<svg width="160" height="46" viewBox="0 0 160 46" fill="none" xmlns="http://www.w3.org/2000/svg">
<path d="M104.59 0.207275C104.59 0.207275 104.59 0.207275 104.59 0.207275C102.376 0.17658 100.16 0.146239 97.9371 0.11625C90.5225 0.0110428 83.1056 -0.0399914 75.6855 0.0370272C73.0891 0.0638352 70.4919 0.10595 67.8942 0.167719C56.9277 0.444477 45.9668 0.990043 35.0275 2.05504C28.0525 2.72126 20.4895 5.04144 15.6637 10.4796C13.6064 12.167 12.3842 15.3471 12.912 18.0109C13.3205 20.6797 14.3552 22.9676 15.2896 25.2382C17.902 32.2352 25.4627 35.4966 31.5641 37.4955C37.2678 39.453 42.9366 39.5911 48.5483 40.1513C62.2101 41.244 75.9369 41.7306 89.6961 40.9829C102.056 40.2653 114.331 38.3082 126.323 35.2639C131.965 33.8081 137.619 32.1877 143.046 29.6424C146.284 28.1786 149.663 25.524 151.144 21.8839C152.051 20.0387 151.177 17.8082 150.386 16.7728C145.763 11.6747 140.6 10.7179 135.63 8.61071C130.731 6.83457 125.798 5.93181 120.907 5.04422C118.375 4.59035 115.791 4.24097 113.217 4.02077C108.944 3.65416 104.718 3.55207 100.49 3.49601C88.2677 3.38677 76.087 3.60471 63.8875 4.04524C57.1469 4.31495 50.2721 4.66452 43.5263 5.94645C38.1984 6.92104 32.9514 8.09529 27.7161 9.48952C22.3126 10.9064 16.9924 13.1399 12.2068 15.9536C8.07634 18.3379 4.30203 21.348 1.28525 25.1777C-0.114342 26.8471 -0.199844 29.3514 0.227415 31.0218C2.02176 37.2727 7.35587 39.9885 11.9133 42.4416C17.3478 44.9591 22.8967 45.0835 28.2978 45.4631C38.8048 46.0067 49.2487 44.9839 59.525 43.2859C73.9466 40.8221 88.0958 37.2578 102.122 33.321C111.289 30.7176 120.398 27.8728 129.265 24.3612C130.85 23.7345 132.429 23.0878 133.997 22.4157C137.337 20.9822 140.634 19.4359 143.818 17.6759L143.827 17.6706C147.784 15.2892 151.603 12.6711 155.705 10.5781C156.984 10.0483 158.321 9.65519 159.654 9.26043C158.311 9.61821 156.964 9.97409 155.66 10.4727C151.478 12.4651 147.595 14.9789 143.58 17.2554L143.589 17.25C140.381 18.9166 137.065 20.3703 133.706 21.7135C132.13 22.3433 130.542 22.9481 128.949 23.5334C120.04 26.8126 110.911 29.434 101.717 31.8311C87.6551 35.4517 73.4591 38.7294 59.1513 40.9156C48.9653 42.4176 38.6662 43.2488 28.4733 42.5709C23.2057 42.1575 17.6862 41.7972 13.3232 39.6588C9.03485 37.4192 4.4009 34.3353 3.46226 30.328C3.18509 28.9882 3.28958 28.0405 3.93101 27.251C6.60861 23.9191 10.1339 21.1389 13.934 19.0024C18.6036 16.3264 23.4648 14.3425 28.6521 13.0185C33.7647 11.701 38.9814 10.5738 44.184 9.65853C50.6959 8.46556 57.306 8.16513 64.0289 7.92717C76.1433 7.54637 88.3335 7.36486 100.439 7.48809C104.62 7.54801 108.778 7.65391 112.87 8.00572C115.339 8.21752 117.763 8.54397 120.21 8.98024C125.025 9.84439 129.855 10.7497 134.25 12.3394C138.96 14.1565 144.658 16.096 147.152 19.0056C147.398 19.356 147.551 19.6786 147.594 19.8721C147.634 20.0709 147.631 20.1209 147.557 20.311C146.461 22.9756 144.214 24.8088 141.388 26.1435C136.376 28.5302 130.901 30.1518 125.381 31.6121C113.638 34.6765 101.595 36.7 89.4796 37.5264C75.9766 38.3993 62.3241 38.0858 48.7737 37.1924C43.2229 36.7339 37.469 36.5928 32.4773 34.9369C26.1289 32.9288 19.8999 30.3165 17.4769 24.2935C15.5474 19.9602 13.4077 15.0362 17.1028 12.0284C21.6366 6.74122 28.3945 4.5771 35.2143 3.73859C46.0602 2.45175 56.9952 1.65845 67.9283 1.1182C70.5191 0.993909 73.1108 0.888219 75.7028 0.79683C83.1105 0.53529 90.5227 0.393637 97.9371 0.2983C100.16 0.268312 102.376 0.23797 104.59 0.207275Z" fill="#F7DA00"/>
</svg>
