<svg width="400" height="600" viewBox="0 0 400 600" fill="none" xmlns="http://www.w3.org/2000/svg">
<path fill-rule="evenodd" clip-rule="evenodd" d="M291.68 141.236L283.436 148.393H264.337L258.423 152.448H262.98L256.63 156.785H252.099L258.423 152.448H245.954L240.552 156.651L235.047 157.203L236.148 147.706H231.898L226.931 151.01L217.714 164.633H212.287L222.733 147.706L235.047 145.068L234.356 142.754L226.24 142.477L222.4 140.137L217.586 142.477H211.954L214.258 137.492L202.606 132.155H103.243L70.5224 166.707V193.261L82.4686 205.224L82.4941 205.227L82.4686 205.201L124.252 210.578L129.826 219.039L141.577 218.627L151.273 237.702L151.276 237.722L169.346 215.01L212.307 215.146L215.149 236.646L221.959 236.825L222.139 210.066L291.675 150.549L296.412 149.728L296.468 149.551L296.289 149.582L298.933 141.252H291.675L291.68 141.236ZM239.323 160.225L232.871 164.631H240.68L247.106 160.225H239.323Z" fill="url(#paint0_linear_218_4404)"/>
<path d="M253.886 342.836V367.084L253.86 367.069V367.084V371.467L242.595 372.851L237.628 389.076L256.472 405.326L273.446 400.533L284.916 412.324L307.19 430.548L307.498 440.339L307.856 451.874L326.904 462.05L327.416 469.226L327.414 469.243L327.442 469.226L327.775 473.968L315.46 486.63L336.538 501.074L348.82 479.633L351.713 461.05L381.566 447.824L387.122 406.505L400 389.64V379.438L378.929 365.7L358.319 364.444L358.857 358.805L349.332 354.678L339.808 360.266L342.906 351.91L336.582 349.167L327.596 356.088L334.124 346.45L328.364 333.865L325.88 340.914L317.483 341.862L312.185 342.442L293.723 344.502L294.466 328.841L289.04 330.83L289.038 330.84L276.493 335.454L277.261 345.604L267.89 348.629H267.865L264.946 342.093L262.667 342.246L253.886 342.836Z" fill="url(#paint1_linear_218_4404)"/>
<path d="M129.826 219.065L124.252 210.601L82.4941 205.227L82.548 205.283L84.3274 224.117L97.1799 248.467L102.446 244.392L92.3102 222.756V210.578H98.2884L98.5214 221.905L117.723 267.068L149.035 280.14L156.849 278.064L163.61 284.969L167.026 278.885H174.241L173.212 270.964H179.395L187.437 264.966L187.265 265.29L187.562 265.069L187.903 256.329L179.108 256.175L172.116 267.658L152.863 267.665L143.5 247.468L151.273 237.702L141.577 218.652L129.826 219.065Z" fill="#190452"/>
<path fill-rule="evenodd" clip-rule="evenodd" d="M298.977 141.113L298.933 141.252L296.289 149.582L296.468 149.551L309.474 147.306L300.821 151.433L301.64 155.014L325.143 146.747L313.673 146.201L308.322 141.375L313.622 133.147L311.036 130.676L294.42 138.225V133.89L310.319 126.252L335.794 125.153L354.944 114.948L355.047 110.291L341.093 107.872L339.404 85.0336L321.149 92.2259L321.277 81.481L312.47 73.9811H300.513L268.177 121.092L260.343 121.118L260.496 105.624L232.641 90.4881L260.496 69.8467L276.293 66.9606L272.99 62.07L297.313 59.3864L307.221 49.067L297.927 48.0366L285.152 56.4977L286.585 49.2746L280.62 48.6543L279.212 39.9267L268.868 44.525L271.557 50.1L257.731 56.7027L233.614 52.1633L220.864 58.1484L189.91 45.7656L130.841 47.0016L130.742 47.0036L90.3158 81.9398L95.0113 87.3276H99.8195L104.082 91.7338L99.2703 96.9203L99.2025 96.9934L94.2535 119.667L103.12 127.718V132.053H202.509L214.184 137.387L233.949 133.186L236.432 141.959L240.427 144.912L247.134 144.438L249.769 152.325H258.295L264.209 148.27H283.308L291.552 141.113H298.977ZM151.273 237.702L141.577 218.627L129.826 219.039L124.252 210.578L82.4686 205.201L82.4941 205.227L124.252 210.601L129.826 219.065L141.577 218.652L151.273 237.702ZM163.601 284.985L163.61 284.969L167.026 278.885H174.241L173.212 270.964H179.395L187.437 264.966L187.265 265.29L180.737 277.629L173.816 290.137L163.743 285.057L163.726 285.087L163.65 285.01L163.601 284.985ZM173.816 290.137L176.008 286.215L179.4 280.14L199.964 279.935L200.517 304.183L189.393 303.004L182.9 294.238L181.041 293.392L173.816 290.137ZM332.798 137.558H357.069L352.026 129.515L351.968 129.501L351.898 129.389L347.469 128.331V122.656L347.34 122.786V122.53L332.67 137.433H332.922L332.798 137.558ZM98.8671 128.91L92.131 123.404L89.243 125.883L93.9386 132.03H98.8671V128.91ZM349.261 44.3379L319.715 32.2577L315.312 32.2115L305.045 40.6546L308.476 32.1602L303.509 32.1218L291.552 44.848L320.611 43.2665L338.354 59.1608L326.423 58.9558L320.406 63.8899H306.863V67.7654H320.611L332.26 77.4107L335.435 76.0214L332.67 69.8954L340.684 73.7146L343.295 72.5791V60.6064L352.512 63.8899L357.812 60.3501L354.816 54.7496L349.491 52.8067L349.261 44.3379ZM285.433 63.895L277.855 70.0646L292.833 71.6512L294.42 67.7705L285.433 63.895ZM256.195 48.2007L258.986 51.807L266.052 48.2007L263.953 44.8531L256.195 48.2007ZM261.546 36.087L266.052 40.6598L275.73 37.425L278.265 30.6531L261.546 36.087ZM280.006 33.3649L281.235 37.6993L294.42 34.1903L291.757 30.6531L280.006 33.3649ZM313.622 24.3861L306.402 21.3923L299.387 27.3773L327.831 29.6201L335.256 24.3861H313.622ZM382.877 8.3893L397.726 0L338.764 4.37792V7.56395L358.657 7.15128L355.866 10.8679L335.256 11.278L337.944 16.0276L329.06 14.5819L332.568 19.1213H317.309L319.587 21.3923H336.28L338.968 23.6633L363.291 12.311L382.877 8.3893ZM310.729 11.8342L321.712 13.913L328.01 9.87594L323.453 6.46947L310.729 11.8342ZM194.723 40.67L220.531 31.8809L214.591 29.1254L190.192 35.3463L194.723 40.67ZM223.859 33.4854L209.954 38.2196L218.15 41.6748L205.366 44.9352L221.248 51.1278L232.18 46.3782L244.341 49.2695L253.456 47.1754L244.546 43.0563L251.407 34.1877H244.546L240.424 39.5243L238.76 34.1877L231.489 37.0124L223.859 33.4854ZM203.717 250.92H216.383L226.599 257.738L222.707 262.07H240.424L219.251 246.793H208.047L203.717 250.92ZM221.452 269.913L224.115 272.195H231.745V269.503L229.082 266.812H221.452V269.913ZM268.433 267.812L266.871 270.4H271.147L272.709 267.812H268.433ZM207.315 370.518L216.389 374.862L216.378 374.876L207.276 370.518L206.984 375.183L234.635 422.32L258.522 438.34L262.539 536.382L273.113 544.943L273.6 562.526L291.931 586.261L297.871 586.877L284.711 566.704L284.302 554.862L275.443 539.073L265.637 496.14L270.297 452.822H270.323L265.663 496.14L275.469 539.073L284.327 554.862L284.737 566.704L297.897 586.877L302.684 587.363L300.201 535.767L328.108 523.668L315.46 506.034L330.514 511.57L336.557 501.087L336.538 501.074L315.46 486.63L327.775 473.968L327.442 469.226L327.414 469.243L319.864 473.84H319.838L327.416 469.226L326.904 462.05L307.856 451.874L307.498 440.339L307.19 430.548L284.916 412.324L273.446 400.533L260.67 404.147L256.472 405.326L237.628 389.076L242.595 372.851L253.86 371.467V367.084L232.636 354.949L232.648 354.934L253.86 367.069L253.886 367.084V342.836L262.667 342.246L264.946 342.093H264.972L267.89 348.629L277.261 345.604L276.493 335.454L289.038 330.84L289.04 330.83L294.466 328.841L293.723 344.502L306.243 343.092L312.185 342.442L317.483 341.862L325.88 340.914L328.364 333.865L325.061 326.611L318.046 326.021L305.808 324.945L292.746 312.508L292.751 312.488L288.526 308.438L271.756 306.798L262.411 300.133L240.752 299.928L236.348 299.903L227.157 312.334L222.557 312.636L221.253 307.874L211.334 308.746L207.837 311.668L203.2 309.104L200.571 307.643L200.492 304.183L189.367 303.004L196.774 313.026L199.447 313.975L210.487 317.922L213.162 313.923L219.486 314.538L221.33 320.639L223.787 317.153L223.603 316.476L223.803 317.153L221.345 320.639L223.239 326.944L221.447 338.709L216.096 345.476H216.109L208.262 355.37L207.315 370.518ZM300.764 594.182L306.397 599.359L323.755 600L305.014 590.209L300.764 594.182ZM288.833 450.669L288.852 450.682L287.681 452.822H287.656L294.415 440.416L288.833 450.669ZM262.642 264.3L250.173 262.916H242.39L244.925 266.504H240.393V268.119H250.173V269.811L254.347 266.709H261.003L262.642 264.3Z" fill="#190452"/>
<path d="M130.845 46.9908L121.5 43.1358L72.5732 43.4126L52.7824 51.3944V60.2015L30.5183 59.9272L26.2939 65.8302L45.0836 65.1535L20.8943 74.2375L9.2067 90.0908L19.2455 89.9241L0 102.584L7.0356 103.135L43.8778 85.5231L86.4037 84.0365L99.2703 96.9203L104.082 91.7338L99.8195 87.3276H95.0113L90.3158 81.9398L130.742 47.0036L130.841 47.0016L130.863 46.9831L130.845 46.9908Z" fill="url(#paint2_linear_218_4404)"/>
<defs>
<linearGradient id="paint0_linear_218_4404" x1="-35.7143" y1="300" x2="400" y2="300" gradientUnits="userSpaceOnUse">
<stop stop-color="#BB0711"/>
<stop offset="1" stop-color="#3F4ADF"/>
</linearGradient>
<linearGradient id="paint1_linear_218_4404" x1="-35.7143" y1="300" x2="400" y2="300" gradientUnits="userSpaceOnUse">
<stop stop-color="#BB0711"/>
<stop offset="1" stop-color="#3F4ADF"/>
</linearGradient>
<linearGradient id="paint2_linear_218_4404" x1="-35.7143" y1="300" x2="400" y2="300" gradientUnits="userSpaceOnUse">
<stop stop-color="#BB0711"/>
<stop offset="1" stop-color="#3F4ADF"/>
</linearGradient>
</defs>
</svg>
