<svg xmlns="http://www.w3.org/2000/svg" xmlns:xlink="http://www.w3.org/1999/xlink" version="1.1" width="256" height="256" viewBox="0 0 256 256" xml:space="preserve">
<g style="stroke: none; stroke-width: 0; stroke-dasharray: none; stroke-linecap: butt; stroke-linejoin: miter; stroke-miterlimit: 10; fill: none; fill-rule: nonzero; opacity: 1;" transform="translate(1.4065934065934016 1.4065934065934016) scale(2.81 2.81)">
	<linearGradient id="SVGID_1" gradientUnits="userSpaceOnUse" x1="45.0001" y1="90.0001" x2="45.0001" y2="0.0001220703">
<stop offset="0%" style="stop-color:rgb(241,70,70);stop-opacity: 1"/>
<stop offset="100%" style="stop-color:rgb(255,132,132);stop-opacity: 1"/>
</linearGradient>
<path d="M 76.835 13.166 c -17.555 -17.554 -46.115 -17.554 -63.669 0 c -17.553 17.553 -17.553 46.115 0 63.669 C 21.943 85.611 33.471 90 45 90 s 23.057 -4.389 31.835 -13.165 C 94.388 59.281 94.388 30.719 76.835 13.166 z M 23.07 23.07 C 29.116 17.023 37.058 14 45 14 c 5.705 0 11.405 1.568 16.407 4.688 L 18.688 61.407 C 11.226 49.441 12.68 33.459 23.07 23.07 z M 66.93 66.93 c -10.388 10.39 -26.371 11.845 -38.337 4.382 l 42.719 -42.719 C 78.774 40.559 77.319 56.541 66.93 66.93 z" style="stroke: none; stroke-width: 1; stroke-dasharray: none; stroke-linecap: butt; stroke-linejoin: miter; stroke-miterlimit: 10; fill: url(#SVGID_1); fill-rule: nonzero; opacity: 1;" transform=" matrix(1 0 0 1 0 0) " stroke-linecap="round"/>
</g>
</svg>