<svg width="20" height="20" viewBox="0 0 20 20" fill="none" xmlns="http://www.w3.org/2000/svg">
<g clip-path="url(#clip0_402_1010)">
<path d="M9.99805 0L11.6758 1.56525L13.8249 0.761205L14.776 2.84936L17.0691 2.92893L17.1487 5.2221L19.2368 6.17317L18.4328 8.32222L19.998 10L18.4328 11.6778L19.2368 13.8268L17.1487 14.7779L17.0691 17.0711L14.776 17.1506L13.8249 19.2388L11.6758 18.4348L9.99805 20L8.32027 18.4348L6.17121 19.2388L5.22014 17.1506L2.92698 17.0711L2.84741 14.7779L0.759252 13.8268L1.56329 11.6778L-0.00195312 10L1.56329 8.32222L0.759252 6.17317L2.84741 5.2221L2.92698 2.92893L5.22014 2.84936L6.17121 0.761205L8.32027 1.56525L9.99805 0Z" fill="#60A5FA"/>
<circle cx="10.002" cy="10" r="6.25" fill="#2563EB"/>
<path d="M12.5059 8.28125L9.06836 11.7187L7.50586 10.1562" stroke="white" stroke-width="0.625" stroke-linecap="round" stroke-linejoin="round"/>
</g>
<defs>
<clipPath id="clip0_402_1010">
<rect width="20" height="20" rx="10" fill="white"/>
</clipPath>
</defs>
</svg>
