<svg width="100" height="80" viewBox="0 0 100 80" fill="none" xmlns="http://www.w3.org/2000/svg">
<path d="M94.697 35.5098L14.1253 40.9396C14.1253 40.9396 -4.80476 58.3904 1.16387 65.987C6.94388 73.3437 17.9785 83.5028 38.9975 78.5983C38.9975 78.5983 75.5471 66.6879 86.0562 59.6817C86.0562 59.6817 110.461 50.223 94.697 35.5098Z" fill="#DE5500"/>
<path d="M94.6994 35.5105C90.8465 -4.07493 52.6619 0.129025 52.6619 0.129025C11.3251 5.03326 12.9633 44.3855 14.8283 47.0711C20.6663 55.4787 37.5608 60.2905 46.1236 62.9523C63.405 68.3235 77.4177 59.9159 77.4177 59.9159C100.538 51.5086 94.6994 35.5105 94.6994 35.5105Z" fill="#F35D00"/>
<path d="M80.2132 7.36875C80.2132 7.36875 76.0093 0.59606 69.0028 0.129018C48.1579 -1.26132 20.5427 13.9665 16.1055 48.7643C16.1055 48.7643 20.0185 52.6759 25.1562 55.2452C30.9494 58.1425 40.2193 61.0252 40.2193 61.0252C40.2193 61.0252 26.7323 11.3389 80.2132 7.36875Z" fill="#FF883D"/>
<path d="M69.0028 0.129018C48.1579 -1.26132 20.5427 13.9665 16.1055 48.7643C16.1055 48.7643 20.0185 52.6759 25.1562 55.2452C25.1562 55.2452 25.0918 30.9503 39.1101 17.6445C52.8887 4.56621 76.3964 3.20648 76.3964 3.20648C74.5294 1.70711 72.0275 0.330761 69.0028 0.129018Z" fill="#FFA066"/>
<path d="M40.984 57.5C40.6027 57.5 40.2733 57.3787 39.996 57.136C39.7533 56.8933 39.632 56.5813 39.632 56.2V52.508C39.632 52.2653 39.7013 51.9013 39.84 51.416C39.9787 50.896 40.3427 50.4107 40.932 49.96L46.34 44.656C49.1133 42.5413 51.384 40.756 53.152 39.3C54.9547 37.8093 56.2893 36.492 57.156 35.348C58.0227 34.204 58.456 33.1293 58.456 32.124C58.456 30.9453 58.144 29.9747 57.52 29.212C56.9307 28.4147 55.8907 28.016 54.4 28.016C53.3947 28.016 52.5453 28.2413 51.852 28.692C51.1933 29.108 50.6907 29.6627 50.344 30.356C49.9973 31.0493 49.7547 31.76 49.616 32.488C49.4773 32.9387 49.2347 33.2507 48.888 33.424C48.576 33.5973 48.2293 33.684 47.848 33.684H41.348C41.036 33.684 40.776 33.58 40.568 33.372C40.36 33.164 40.256 32.904 40.256 32.592C40.2907 30.928 40.6373 29.368 41.296 27.912C41.9893 26.456 42.9427 25.1733 44.156 24.064C45.404 22.92 46.8773 22.036 48.576 21.412C50.3093 20.788 52.2507 20.476 54.4 20.476C57.3467 20.476 59.8427 20.944 61.888 21.88C63.968 22.816 65.5453 24.1333 66.62 25.832C67.6947 27.496 68.232 29.4547 68.232 31.708C68.232 33.4067 67.8507 35.0013 67.088 36.492C66.36 37.948 65.3027 39.352 63.916 40.704C62.564 42.0213 60.952 43.3907 59.08 44.812L54.296 49.648H67.66C68.0413 49.648 68.3533 49.7693 68.596 50.012C68.8733 50.2547 69.012 50.5667 69.012 50.948V56.2C69.012 56.5813 68.8733 56.8933 68.596 57.136C68.3533 57.3787 68.0413 57.5 67.66 57.5H40.984Z" fill="white"/>
</svg>
