<svg width="100" height="80" viewBox="0 0 100 80" fill="none" xmlns="http://www.w3.org/2000/svg">
<path d="M94.697 35.5098L14.1253 40.9396C14.1253 40.9396 -4.80476 58.3904 1.16387 65.987C6.94388 73.3437 17.9785 83.5028 38.9975 78.5983C38.9975 78.5983 75.5471 66.6879 86.0562 59.6817C86.0562 59.6817 110.461 50.223 94.697 35.5098Z" fill="#DE5500"/>
<path d="M94.6994 35.5105C90.8465 -4.07493 52.6619 0.129025 52.6619 0.129025C11.3251 5.03326 12.9633 44.3855 14.8283 47.0711C20.6663 55.4787 37.5608 60.2905 46.1236 62.9523C63.405 68.3235 77.4177 59.9159 77.4177 59.9159C100.538 51.5086 94.6994 35.5105 94.6994 35.5105Z" fill="#F35D00"/>
<path d="M80.2132 7.36875C80.2132 7.36875 76.0093 0.59606 69.0028 0.129018C48.1579 -1.26132 20.5427 13.9665 16.1055 48.7643C16.1055 48.7643 20.0185 52.6759 25.1562 55.2452C30.9494 58.1425 40.2193 61.0252 40.2193 61.0252C40.2193 61.0252 26.7323 11.3389 80.2132 7.36875Z" fill="#FF883D"/>
<path d="M69.0028 0.129018C48.1579 -1.26132 20.5427 13.9665 16.1055 48.7643C16.1055 48.7643 20.0185 52.6759 25.1562 55.2452C25.1562 55.2452 25.0918 30.9503 39.1101 17.6445C52.8887 4.56621 76.3964 3.20648 76.3964 3.20648C74.5294 1.70711 72.0275 0.330761 69.0028 0.129018Z" fill="#FFA066"/>
<path d="M57.728 57.5C57.3813 57.5 57.0693 57.3787 56.792 57.136C56.5493 56.8933 56.428 56.5813 56.428 56.2V50.324H40.256C39.9093 50.324 39.5973 50.2027 39.32 49.96C39.0773 49.7173 38.956 49.4053 38.956 49.024V44.084C38.956 43.772 39.008 43.4947 39.112 43.252C39.2507 42.9747 39.3893 42.7147 39.528 42.472L54.66 21.984C55.1107 21.3947 55.752 21.1 56.584 21.1H64.124C64.5053 21.1 64.8173 21.2213 65.06 21.464C65.3373 21.7067 65.476 22.0187 65.476 22.4V42.576H70.052C70.468 42.576 70.7973 42.7147 71.04 42.992C71.2827 43.2347 71.404 43.5293 71.404 43.876V49.024C71.404 49.4053 71.2653 49.7173 70.988 49.96C70.7453 50.2027 70.4507 50.324 70.104 50.324H65.476V56.2C65.476 56.5813 65.3373 56.8933 65.06 57.136C64.8173 57.3787 64.5053 57.5 64.124 57.5H57.728ZM47.9 42.94H56.636V30.668L47.9 42.94Z" fill="white"/>
</svg>
