<svg width="100" height="80" viewBox="0 0 100 80" fill="none" xmlns="http://www.w3.org/2000/svg">
<path d="M94.697 35.5098L14.1253 40.9396C14.1253 40.9396 -4.80476 58.3904 1.16387 65.987C6.94388 73.3437 17.9785 83.5028 38.9975 78.5983C38.9975 78.5983 75.5471 66.6879 86.0562 59.6817C86.0562 59.6817 110.461 50.223 94.697 35.5098Z" fill="#DE5500"/>
<path d="M94.6994 35.5105C90.8465 -4.07493 52.6619 0.129025 52.6619 0.129025C11.3251 5.03326 12.9633 44.3855 14.8283 47.0711C20.6663 55.4787 37.5608 60.2905 46.1236 62.9523C63.405 68.3235 77.4177 59.9159 77.4177 59.9159C100.538 51.5086 94.6994 35.5105 94.6994 35.5105Z" fill="#F35D00"/>
<path d="M80.2132 7.36875C80.2132 7.36875 76.0093 0.59606 69.0028 0.129018C48.1579 -1.26132 20.5427 13.9665 16.1055 48.7643C16.1055 48.7643 20.0185 52.6759 25.1562 55.2452C30.9494 58.1425 40.2193 61.0252 40.2193 61.0252C40.2193 61.0252 26.7323 11.3389 80.2132 7.36875Z" fill="#FF883D"/>
<path d="M69.0028 0.129018C48.1579 -1.26132 20.5427 13.9665 16.1055 48.7643C16.1055 48.7643 20.0185 52.6759 25.1562 55.2452C25.1562 55.2452 25.0918 30.9503 39.1101 17.6445C52.8887 4.56621 76.3964 3.20648 76.3964 3.20648C74.5294 1.70711 72.0275 0.330761 69.0028 0.129018Z" fill="#FFA066"/>
<path d="M54.14 58.072C50.8813 58.072 48.16 57.5693 45.976 56.564C43.792 55.524 42.128 54.1893 40.984 52.56C39.8747 50.896 39.2853 49.1107 39.216 47.204C39.216 46.892 39.32 46.632 39.528 46.424C39.736 46.216 39.996 46.112 40.308 46.112H47.276C47.7267 46.112 48.0733 46.216 48.316 46.424C48.5933 46.5973 48.8013 46.8227 48.94 47.1C49.252 47.8973 49.6507 48.556 50.136 49.076C50.656 49.596 51.2453 49.9773 51.904 50.22C52.5973 50.4627 53.36 50.584 54.192 50.584C55.1627 50.584 56.064 50.376 56.896 49.96C57.728 49.544 58.3867 48.9373 58.872 48.14C59.392 47.308 59.652 46.32 59.652 45.176C59.652 44.136 59.4093 43.2347 58.924 42.472C58.4733 41.7093 57.832 41.1027 57 40.652C56.168 40.2013 55.232 39.976 54.192 39.976C53.36 39.976 52.684 40.08 52.164 40.288C51.644 40.4613 51.2107 40.6867 50.864 40.964C50.5173 41.2413 50.2053 41.484 49.928 41.692C49.6507 41.8653 49.3387 41.952 48.992 41.952H42.18C41.868 41.952 41.5907 41.848 41.348 41.64C41.14 41.3973 41.036 41.12 41.036 40.808L42.908 22.66C42.9773 22.14 43.168 21.7587 43.48 21.516C43.792 21.2387 44.1733 21.1 44.624 21.1H65.476C65.8573 21.1 66.1693 21.2213 66.412 21.464C66.6547 21.7067 66.776 22.0187 66.776 22.4V27.288C66.776 27.6693 66.6547 27.9813 66.412 28.224C66.1693 28.4667 65.8573 28.588 65.476 28.588H50.396L49.72 35.348C50.4827 34.828 51.3667 34.412 52.372 34.1C53.412 33.7533 54.816 33.58 56.584 33.58C58.248 33.58 59.8253 33.8573 61.316 34.412C62.8413 34.9667 64.1933 35.764 65.372 36.804C66.5853 37.844 67.5213 39.092 68.18 40.548C68.8733 41.9693 69.22 43.5813 69.22 45.384C69.22 47.8453 68.6133 50.0293 67.4 51.936C66.2213 53.8427 64.5053 55.3507 62.252 56.46C59.9987 57.5347 57.2947 58.072 54.14 58.072Z" fill="white"/>
</svg>
