<svg width="100" height="80" viewBox="0 0 100 80" fill="none" xmlns="http://www.w3.org/2000/svg">
<path d="M94.697 35.5098L14.1253 40.9396C14.1253 40.9396 -4.80476 58.3904 1.16387 65.987C6.94388 73.3437 17.9785 83.5028 38.9975 78.5983C38.9975 78.5983 75.5471 66.6879 86.0562 59.6817C86.0562 59.6817 110.461 50.223 94.697 35.5098Z" fill="#DE5500"/>
<path d="M94.6994 35.5105C90.8465 -4.07493 52.6619 0.129025 52.6619 0.129025C11.3251 5.03326 12.9633 44.3855 14.8283 47.0711C20.6663 55.4787 37.5608 60.2905 46.1236 62.9523C63.405 68.3235 77.4177 59.9159 77.4177 59.9159C100.538 51.5086 94.6994 35.5105 94.6994 35.5105Z" fill="#F35D00"/>
<path d="M80.2132 7.36875C80.2132 7.36875 76.0093 0.59606 69.0028 0.129018C48.1579 -1.26132 20.5427 13.9665 16.1055 48.7643C16.1055 48.7643 20.0185 52.6759 25.1562 55.2452C30.9494 58.1425 40.2193 61.0252 40.2193 61.0252C40.2193 61.0252 26.7323 11.3389 80.2132 7.36875Z" fill="#FF883D"/>
<path d="M69.0028 0.129018C48.1579 -1.26132 20.5427 13.9665 16.1055 48.7643C16.1055 48.7643 20.0185 52.6759 25.1562 55.2452C25.1562 55.2452 25.0918 30.9503 39.1101 17.6445C52.8887 4.56621 76.3964 3.20648 76.3964 3.20648C74.5294 1.70711 72.0275 0.330761 69.0028 0.129018Z" fill="#FFA066"/>
<path d="M51.904 57.5C51.5573 57.5 51.2453 57.3787 50.968 57.136C50.7253 56.8933 50.604 56.5813 50.604 56.2V31.448L43.48 36.908C43.168 37.1507 42.8387 37.2373 42.492 37.168C42.18 37.0987 41.9027 36.908 41.66 36.596L38.592 32.592C38.384 32.28 38.2973 31.9507 38.332 31.604C38.4013 31.2227 38.6093 30.928 38.956 30.72L50.916 21.464C51.124 21.3253 51.3147 21.2387 51.488 21.204C51.696 21.1347 51.9213 21.1 52.164 21.1H58.664C59.0107 21.1 59.3053 21.2213 59.548 21.464C59.8253 21.7067 59.964 22.0187 59.964 22.4V56.2C59.964 56.5813 59.8253 56.8933 59.548 57.136C59.3053 57.3787 59.0107 57.5 58.664 57.5H51.904Z" fill="white"/>
</svg>
