<svg width="100" height="80" viewBox="0 0 100 80" fill="none" xmlns="http://www.w3.org/2000/svg">
<path d="M94.697 35.5098L14.1253 40.9396C14.1253 40.9396 -4.80476 58.3904 1.16387 65.987C6.94388 73.3437 17.9785 83.5028 38.9975 78.5983C38.9975 78.5983 75.5471 66.6879 86.0562 59.6817C86.0562 59.6817 110.461 50.223 94.697 35.5098Z" fill="#DE5500"/>
<path d="M94.6994 35.5105C90.8465 -4.07493 52.6619 0.129025 52.6619 0.129025C11.3251 5.03326 12.9633 44.3855 14.8283 47.0711C20.6663 55.4787 37.5608 60.2905 46.1236 62.9523C63.405 68.3235 77.4177 59.9159 77.4177 59.9159C100.538 51.5086 94.6994 35.5105 94.6994 35.5105Z" fill="#F35D00"/>
<path d="M80.2132 7.36875C80.2132 7.36875 76.0093 0.59606 69.0028 0.129018C48.1579 -1.26132 20.5427 13.9665 16.1055 48.7643C16.1055 48.7643 20.0185 52.6759 25.1562 55.2452C30.9494 58.1425 40.2193 61.0252 40.2193 61.0252C40.2193 61.0252 26.7323 11.3389 80.2132 7.36875Z" fill="#FF883D"/>
<path d="M69.0028 0.129018C48.1579 -1.26132 20.5427 13.9665 16.1055 48.7643C16.1055 48.7643 20.0185 52.6759 25.1562 55.2452C25.1562 55.2452 25.0918 30.9503 39.1101 17.6445C52.8887 4.56621 76.3964 3.20648 76.3964 3.20648C74.5294 1.70711 72.0275 0.330761 69.0028 0.129018Z" fill="#FFA066"/>
<path d="M54.4 58.02C51.696 58.02 49.3907 57.708 47.484 57.084C45.5773 56.4253 44.0173 55.5933 42.804 54.588C41.5907 53.548 40.6893 52.456 40.1 51.312C39.5107 50.1333 39.1987 49.0067 39.164 47.932C39.164 47.62 39.268 47.36 39.476 47.152C39.7187 46.944 39.996 46.84 40.308 46.84H47.068C47.484 46.84 47.8133 46.9267 48.056 47.1C48.2987 47.2387 48.524 47.4813 48.732 47.828C49.0093 48.4867 49.408 49.024 49.928 49.44C50.4827 49.856 51.1413 50.1507 51.904 50.324C52.6667 50.4627 53.4987 50.532 54.4 50.532C56.168 50.532 57.5373 50.1333 58.508 49.336C59.5133 48.504 60.016 47.3773 60.016 45.956C60.016 44.4653 59.548 43.408 58.612 42.784C57.676 42.1253 56.3413 41.796 54.608 41.796H48.836C48.4547 41.796 48.1427 41.6747 47.9 41.432C47.6573 41.1893 47.536 40.8773 47.536 40.496V37.584C47.536 37.168 47.6227 36.804 47.796 36.492C47.9693 36.18 48.16 35.9547 48.368 35.816L56.896 28.588H42.44C42.0933 28.588 41.7813 28.4667 41.504 28.224C41.2613 27.9813 41.14 27.6693 41.14 27.288V22.4C41.14 22.0187 41.2613 21.7067 41.504 21.464C41.7813 21.2213 42.0933 21.1 42.44 21.1H66.36C66.7413 21.1 67.0533 21.2213 67.296 21.464C67.5733 21.7067 67.712 22.0187 67.712 22.4V26.82C67.712 27.2013 67.6253 27.548 67.452 27.86C67.2787 28.1373 67.088 28.3627 66.88 28.536L58.976 35.868L59.34 35.972C61.316 36.2147 63.084 36.752 64.644 37.584C66.204 38.3813 67.4347 39.508 68.336 40.964C69.2373 42.42 69.688 44.2747 69.688 46.528C69.688 48.8853 69.012 50.9307 67.66 52.664C66.3427 54.3627 64.54 55.68 62.252 56.616C59.964 57.552 57.3467 58.02 54.4 58.02Z" fill="white"/>
</svg>
