<svg width="160" height="46" viewBox="0 0 160 46" fill="none" xmlns="http://www.w3.org/2000/svg">
<path d="M104.588 0.207275C104.588 0.207275 104.588 0.207275 104.588 0.207275C102.374 0.17658 100.158 0.146239 97.9352 0.11625C90.5206 0.0110428 83.1036 -0.0399914 75.6836 0.0370272C73.0871 0.0638352 70.49 0.10595 67.8922 0.167719C56.9258 0.444477 45.9648 0.990043 35.0255 2.05504C28.0506 2.72126 20.4875 5.04144 15.6617 10.4796C13.6044 12.167 12.3823 15.3471 12.91 18.0109C13.3185 20.6797 14.3533 22.9676 15.2877 25.2382C17.9001 32.2352 25.4607 35.4966 31.5621 37.4955C37.2658 39.453 42.9346 39.5911 48.5463 40.1513C62.2082 41.244 75.935 41.7306 89.6942 40.9829C102.054 40.2653 114.329 38.3082 126.322 35.2639C131.963 33.8081 137.617 32.1877 143.044 29.6424C146.282 28.1786 149.661 25.524 151.143 21.8839C152.05 20.0387 151.175 17.8082 150.384 16.7728C145.761 11.6747 140.598 10.7179 135.628 8.61071C130.729 6.83457 125.796 5.93181 120.905 5.04422C118.373 4.59035 115.789 4.24097 113.215 4.02077C108.942 3.65416 104.716 3.55207 100.488 3.49601C88.2657 3.38677 76.085 3.60471 63.8856 4.04524C57.145 4.31495 50.2701 4.66452 43.5243 5.94645C38.1964 6.92104 32.9494 8.09529 27.7141 9.48952C22.3106 10.9064 16.9904 13.1399 12.2049 15.9536C8.07439 18.3379 4.30008 21.348 1.2833 25.1777C-0.116295 26.8471 -0.201797 29.3514 0.225462 31.0218C2.01981 37.2727 7.35391 39.9885 11.9114 42.4416C17.3459 44.9591 22.8948 45.0835 28.2958 45.4631C38.8029 46.0067 49.2468 44.9839 59.523 43.2859C73.9446 40.8221 88.0939 37.2578 102.12 33.321C111.287 30.7176 120.396 27.8728 129.263 24.3612C130.848 23.7345 132.427 23.0878 133.995 22.4157C137.335 20.9822 140.632 19.4359 143.816 17.6759L143.825 17.6706C147.782 15.2892 151.601 12.6711 155.703 10.5781C156.982 10.0483 158.319 9.65519 159.652 9.26043C158.309 9.61821 156.962 9.97409 155.658 10.4727C151.476 12.4651 147.593 14.9789 143.578 17.2554L143.587 17.25C140.379 18.9166 137.063 20.3703 133.704 21.7135C132.128 22.3433 130.54 22.9481 128.947 23.5334C120.038 26.8126 110.909 29.434 101.715 31.8311C87.6532 35.4517 73.4571 38.7294 59.1494 40.9156C48.9634 42.4176 38.6642 43.2488 28.4714 42.5709C23.2038 42.1575 17.6842 41.7972 13.3213 39.6588C9.0329 37.4192 4.39894 34.3353 3.46031 30.328C3.18314 28.9882 3.28762 28.0405 3.92906 27.251C6.60666 23.9191 10.132 21.1389 13.932 19.0024C18.6017 16.3264 23.4628 14.3425 28.6501 13.0185C33.7628 11.701 38.9794 10.5738 44.182 9.65853C50.694 8.46556 57.304 8.16513 64.0269 7.92717C76.1414 7.54637 88.3316 7.36486 100.437 7.48809C104.618 7.54801 108.776 7.65391 112.868 8.00572C115.337 8.21752 117.761 8.54397 120.208 8.98024C125.023 9.84439 129.853 10.7497 134.248 12.3394C138.958 14.1565 144.656 16.096 147.15 19.0056C147.396 19.356 147.549 19.6786 147.592 19.8721C147.632 20.0709 147.629 20.1209 147.555 20.311C146.459 22.9756 144.212 24.8088 141.386 26.1435C136.374 28.5302 130.899 30.1518 125.379 31.6121C113.636 34.6765 101.593 36.7 89.4777 37.5264C75.9747 38.3993 62.3221 38.0858 48.7717 37.1924C43.2209 36.7339 37.467 36.5928 32.4754 34.9369C26.127 32.9288 19.898 30.3165 17.4749 24.2935C15.5455 19.9602 13.4057 15.0362 17.1009 12.0284C21.6346 6.74122 28.3926 4.5771 35.2124 3.73859C46.0583 2.45175 56.9932 1.65845 67.9263 1.1182C70.5171 0.993909 73.1088 0.888219 75.7009 0.79683C83.1085 0.53529 90.5208 0.393637 97.9352 0.2983C100.158 0.268312 102.374 0.23797 104.588 0.207275Z" fill="#F7DA00"/>
</svg>
