<svg width="126" height="23" viewBox="0 0 126 23" fill="none" xmlns="http://www.w3.org/2000/svg">
<path d="M3.19178 22.3776C3.92047 22.4255 4.76179 22.0064 5.36796 21.5571C5.5584 21.4172 5.35873 21.0273 5.48624 20.9121C5.73644 20.6872 6.04638 20.8312 6.28501 20.5771C6.36374 20.4908 6.10219 19.8608 6.18823 19.7853C6.66307 19.3761 7.20393 19.4326 7.71754 19.1752C10.2416 17.9074 12.8118 17.1312 15.4682 16.3455C16.3479 16.0859 17.3277 15.2998 18.3076 15.4106C18.4199 15.4245 18.4506 16.0169 18.4788 16.0615C18.9169 16.7441 18.6206 15.5863 18.806 15.3964C19.5489 14.6447 20.4831 14.4469 21.3192 14.5546C21.6783 14.6018 21.5009 15.811 21.7538 15.1101C21.7717 15.0627 21.5941 14.4557 21.6797 14.3759C21.8766 14.1956 22.2959 14.249 22.455 14.1766C22.7615 14.034 22.8159 14.0328 23.1211 13.9837C23.5371 13.9113 23.9821 13.5378 24.4534 13.6195C24.5538 13.6388 24.5093 14.2918 24.6766 14.3803C24.8435 14.4685 25.2319 14.3639 25.3492 14.1967C25.4656 14.0294 25.345 13.5362 25.3546 13.4184C25.4305 12.425 26.0709 13.7079 26.1329 13.7341C27.2852 14.1672 28.1341 13.2946 29.17 13.184C29.9448 13.1031 30.8144 13.2687 31.5521 13.1609C32.4443 13.0286 33.1541 12.6129 34.0267 12.5949C34.1176 12.5924 34.0786 13.3535 34.1897 13.352C35.3778 13.3346 36.5451 13.1561 37.6824 12.5582C37.7963 12.4976 37.5939 11.8486 37.7049 11.7485C38.3891 11.1498 39.4522 9.76251 40.0826 12.6112C40.5722 12.4645 41.1537 12.3094 41.556 11.7009C41.8162 11.3092 41.4937 10.6065 41.8639 10.8916C41.9474 10.9551 41.8843 11.5924 42.0064 11.64C42.1957 11.7134 42.3882 11.7275 42.5824 11.7307C42.9063 11.7369 43.235 11.7111 43.5576 11.899C43.6615 11.9609 43.6672 12.528 43.7015 12.6281C43.9864 13.4389 44.3069 12.053 44.3894 11.9491C45.0051 11.1735 45.4961 11.4387 46.1143 11.3886C46.2577 11.3767 46.1271 12.1453 46.2664 12.1611C46.9855 12.2334 47.7042 12.1331 48.394 11.7635C48.547 11.6794 48.3734 11.0386 48.445 10.9654C48.7599 10.6503 48.8828 11.8701 49.1828 11.5921C49.2461 11.535 49.1847 10.9824 49.194 10.921C49.3401 9.95717 49.5631 11.3041 49.6126 11.3319C50.2415 11.7142 50.587 10.2839 51.1806 10.461C51.2522 10.4836 51.1207 11.1913 51.3201 11.2119C52.6584 11.3534 54.049 11.1123 55.354 10.5107C55.5548 10.4182 55.3936 9.89555 55.4044 9.83019C55.5828 8.80855 55.7595 10.1649 55.8275 10.2142C56.3633 10.5674 56.8277 9.41276 57.2329 11.0235C59.4396 10.4015 61.6873 11.2663 63.876 9.78222C63.9041 9.76499 63.8435 9.09552 63.8997 9.06403C64.5792 8.67802 64.4566 9.72166 64.9198 10.9898C65.0356 11.3083 65.3589 9.76598 65.3883 9.6529C65.4941 9.23612 65.3675 8.24035 65.4036 8.15945C65.704 7.52405 65.6914 10.8221 66.1055 10.8187C66.1184 10.8131 66.0574 10.2067 66.0916 10.146C66.1978 9.95535 66.3078 10.1954 66.4118 9.98541C66.6499 9.49952 66.7224 7.89625 67.0979 8.8255C67.1455 8.94614 67.0911 10.8173 67.4576 10.7258C67.6034 10.6876 68.2543 10.7148 68.4369 10.5924C68.6189 10.4701 68.4894 9.86814 68.5022 9.84194C68.991 9.04167 68.8018 8.71254 69.0435 7.53096C69.2865 6.3539 69.2316 9.15837 69.3334 9.4708C69.4348 9.78234 69.7904 9.12296 69.878 8.89397C69.9654 8.66486 69.8535 8.28229 69.9316 8.15252C70.4505 7.30475 70.1662 9.54345 70.3397 9.98785C70.748 11.0402 71.0584 8.95986 71.4326 8.75539C71.5337 8.70019 71.452 9.17395 71.5421 9.21809C71.8998 9.38669 72.1075 8.73761 72.5109 9.33248C72.5769 9.42941 72.9014 10.6797 73.1131 9.7624C73.1431 9.63012 73.0585 9.11182 73.2099 8.99589C73.4361 8.82188 73.845 8.7093 74.0891 8.88313C74.2691 9.01174 74.0603 9.8651 74.2878 9.60044C74.3877 9.48227 74.2045 8.98222 74.3922 8.8019C74.5788 8.6216 75.0563 8.64523 75.2384 8.66329C75.4202 8.68169 75.3178 9.32899 75.3324 9.37268C75.4201 9.623 75.7675 9.937 75.7984 9.93641C77.3596 10.0235 78.7986 8.94416 80.3089 9.32352C80.4272 9.35236 80.3399 10.0344 80.3579 10.0458C80.7604 10.3369 80.4623 8.51713 80.7545 7.91287C80.6959 9.29832 80.8668 9.04943 81.152 9.20522C81.2895 9.28143 81.2069 9.81708 81.2188 9.87218C81.4129 10.69 81.5703 9.63921 81.6102 9.42435C81.7576 8.634 81.8927 9.57221 81.9932 9.04401C82.0938 8.51977 81.891 7.73747 82.1681 7.7515C82.2381 8.24876 82.0148 9.54222 82.22 9.75541C82.9881 10.5614 84.4799 9.56957 85.1151 9.4764C85.7466 9.38294 85.949 9.47876 86.3211 9.30711C86.9942 8.99704 86.7297 9.95368 87.1338 10.4029C87.5394 10.8524 87.3906 8.4815 87.4619 7.97412C87.532 7.46696 87.5853 7.99186 87.6638 7.71398C87.7425 7.43617 87.5938 7.08671 87.7664 6.98566C87.9392 6.88469 88.3844 7.80027 88.432 8.33364C88.5327 9.46358 88.2944 10.6411 88.7547 10.2365C88.7813 10.2125 88.7123 9.58824 88.8132 9.52779C89.6136 9.06811 90.441 9.06013 91.2375 8.6585C91.3475 8.60231 91.27 7.90748 91.3343 7.86696C92.005 7.44291 91.7368 8.60326 92.0594 9.91005C92.0288 8.18256 92.259 7.13276 92.7616 7.13767C93.0637 7.14006 92.9892 7.89195 93.1676 8.42893C93.2206 8.59077 93.4482 8.08001 93.4756 8.43554C93.5659 9.59773 93.326 10.8879 93.8545 10.3879C93.8777 10.3641 93.8263 9.7278 93.9053 9.69188C94.4164 9.45669 94.4373 10.6701 94.9766 10.8349C95.3998 10.9642 96.1848 10.2518 96.6727 10.1491C96.7317 8.2095 97.1755 8.67012 97.3125 10.014C97.6298 9.97082 97.9679 10.0592 98.2806 9.88604C98.3882 9.82706 98.3406 9.26303 98.3561 9.20288C98.5963 8.25912 98.6842 9.56511 98.7505 9.61874C99.4657 10.1429 100.106 9.18144 100.772 10.1741C100.795 10.2098 100.779 11.5582 101.009 10.5828C101.024 10.5155 100.817 9.89302 101.151 9.85961C101.486 9.82615 102.14 9.13103 102.572 9.77538C102.676 9.93051 102.908 11.0361 103.173 10.1923C103.208 10.0776 103.192 9.68998 103.246 9.47705C103.417 8.79868 103.432 10.1631 103.65 9.01448C103.868 7.8659 104.255 7.01595 104.683 7.83552C104.697 7.8594 104.756 8.94315 104.902 8.93301C105.136 8.91589 105.477 8.70708 105.72 8.72595C105.836 8.73537 105.729 9.40145 105.749 9.41468C106.512 9.82813 107.105 9.25936 107.954 9.04352C108.11 9.00264 108.503 9.93875 108.839 9.23275C109.209 8.46003 109.047 5.15475 109.761 5.97863C110.049 6.30842 110.207 10.4994 110.869 8.36934C111.892 8.96362 112.942 7.91542 113.954 8.74346C113.999 8.78019 114.079 9.9527 114.192 9.94366C114.359 9.92801 114.484 9.38985 114.605 9.36132C115.112 9.22809 115.539 9.72173 116.024 9.67987C116.208 9.66517 116.18 9.09901 116.399 9.08144C116.618 9.06442 116.714 9.81387 117.031 9.47544C117.27 9.21736 117.592 7.71904 117.899 7.56223C117.812 9.05516 118.016 9.03773 118.35 9.45568C118.415 9.53673 118.306 10.0511 118.334 10.1162C118.449 10.3928 118.602 9.97067 118.709 10.2706C118.735 10.3426 118.702 10.8522 118.721 10.9399C118.884 11.7047 119.314 10.5826 119.388 10.3872C119.671 9.64516 119.733 10.3153 119.931 10.0291C120.129 9.74302 119.89 9.35165 120.11 9.18495C120.565 8.84021 121.113 8.96144 121.552 8.96933C121.727 8.97562 121.559 9.64706 121.583 9.66375C121.931 9.86198 122.35 9.16532 122.449 10.5341C122.955 7.05068 122.641 10.8895 123.206 10.2265C123.251 10.1728 123.425 8.5208 123.287 8.26618C123.149 8.01178 122.875 8.51198 122.687 8.11726C122.642 8.02457 122.462 6.45151 122.428 6.35457C122.165 5.59707 121.942 8.06865 121.916 8.20337C121.622 9.65666 121.383 7.95923 121.296 7.83699C120.901 7.27691 120.509 7.59926 120.174 7.19633C119.954 6.93573 120.042 5.31275 119.853 5.34959C119.222 5.47124 118.853 7.71868 118.4 5.7183C118.303 5.29165 118.545 3.52736 118.003 4.89144C117.969 4.97742 117.553 6.23061 117.413 5.41159C117.396 5.30833 117.43 4.79179 117.401 4.74632C117.205 4.45172 117.036 4.85408 116.817 4.64204C116.598 4.43004 116.334 4.11821 116.057 4.27665C115.889 4.37129 115.623 5.32105 115.532 5.55195C115.273 6.21738 115.11 5.08983 114.925 5.90377C114.739 6.72181 114.925 7.99289 114.539 8.50515C114.609 7.16187 114.663 5.78211 114.724 4.43072C113.944 4.43049 113.152 4.81907 112.374 4.71457C112.278 4.70028 112.419 3.98413 112.317 3.95021C111.885 3.81026 111.473 4.30318 111.032 4.07291C110.691 3.89197 110.345 3.10617 109.987 2.89357C109.678 4.41809 109.16 3.86706 108.757 3.98672C108.615 4.02796 108.603 4.43894 108.498 4.5677C108.1 5.04361 108.345 3.69449 108.254 3.47544C107.864 2.54056 107.669 5.61297 107.156 5.51085C107.129 5.50647 106.876 3.85081 106.835 3.74646C106.575 3.06636 106.758 4.31447 106.569 4.42646C106.223 4.6312 105.972 5.01124 105.604 4.51228C105.496 4.36458 105.271 3.32983 105.012 4.10957C104.978 4.21167 104.968 4.7542 104.943 4.78482C104.495 5.29372 104.561 3.5908 104.344 3.0029C104.126 2.4151 103.695 3.57314 103.603 3.90843C103.363 4.77561 103.739 4.28985 103.746 4.37635C103.827 5.40547 103.561 5.21677 103.348 5.29383C103.242 6.96177 102.955 6.84851 103.127 5.36701C103.146 5.20521 103.302 5.36819 103.348 5.29383C103.238 3.64771 102.924 3.42347 102.502 4.93856C102.305 5.64871 102.425 6.49187 101.936 6.16413C101.713 6.01619 101.851 4.87045 101.661 4.54837C101.227 3.81347 100.58 4.86082 100.111 4.67264C99.9408 4.60432 100.135 3.9818 100.019 3.91343C99.7119 3.73001 99.4169 4.19127 99.1122 3.93712C99.0846 3.91329 99.1799 3.25721 99.0824 3.24501C98.3388 3.1395 97.6728 3.53715 96.8973 3.52104C96.5231 3.51292 95.8652 3.12616 95.4715 3.18608C94.7907 3.28588 93.9323 4.21752 93.3671 3.96715C92.9963 3.80661 93.098 3.15002 92.9501 2.69603C92.6638 1.816 92.0665 3.35925 91.986 3.59864C91.9835 3.60655 92.3023 3.77134 92.12 4.10468C91.9993 4.8068 91.9896 3.6018 91.986 3.59864C91.9327 3.75314 91.2837 3.88449 91.1596 3.75504C91.0921 3.68425 91.1482 3.06079 91.1126 3.03569C90.271 2.45315 89.3962 2.27177 88.5165 2.54301C88.5008 2.55526 88.5073 3.25446 88.4707 3.27455C87.9577 3.57318 87.655 2.71119 87.2444 2.19443C86.8352 1.67797 86.4983 1.84089 86.2262 3.03527C85.9136 2.87773 85.4514 3.39912 85.1863 3.71598C84.9216 4.03284 84.9097 2.67206 84.8872 2.64474C84.1836 1.77085 83.7545 2.54219 83.0121 2.65152C82.6599 2.7058 81.9638 2.49813 81.5808 2.34419C81.2793 2.22021 81.0929 2.53661 80.8171 2.32925C80.7798 2.30156 80.8255 1.69638 80.8143 1.67292C80.5124 0.94441 80.6435 2.42691 80.5762 2.69055C80.3323 3.64936 80.1836 4.15976 79.7935 3.70297C79.7042 3.59835 79.4599 1.46353 79.292 1.33712C79.0746 1.1767 79.1495 1.9417 78.9225 1.75434C78.9031 1.73901 78.9117 1.26759 78.7703 1.28703C78.113 1.37106 77.4039 1.63971 76.7247 1.58811C76.6315 1.58287 76.7559 0.835826 76.6211 0.815953C75.9886 0.723322 75.2977 0.747724 74.6863 1.09577C74.5359 1.18379 74.6284 1.70769 74.5953 1.86305C74.3936 2.80308 74.1114 1.43559 74.0637 1.40944C72.9318 0.750179 72.0916 1.98712 70.9354 1.40103C70.8731 1.36658 70.3873 -0.0972023 70.1783 1.16029C70.1638 1.24394 69.958 2.5304 69.768 1.65222C69.7561 1.59728 69.8846 0.934811 69.6556 1.00331C69.4271 1.07167 69.0557 0.631599 68.7404 1.36079C68.6408 1.59049 68.412 2.87443 68.106 1.85428C68.0864 1.78301 67.6064 -0.525056 67.455 1.07119C67.4306 1.33395 67.4723 3.02135 67.1104 2.15913C67.0412 1.99198 67.1608 1.61443 66.9802 1.38097C66.7055 1.02112 66.3409 1.47672 65.9935 0.728549C65.9329 0.596077 65.6676 -0.546664 65.4755 0.325097C65.4455 0.461629 65.512 1.02435 65.4063 1.08864C64.9021 1.39702 64.3781 1.02688 63.8635 1.42414C63.6824 1.56375 63.7891 2.47319 63.6025 2.72006C63.4158 2.96684 63.0379 3.20745 62.8336 2.79447C62.6289 2.3813 62.8216 0.926183 62.5227 0.814926C61.2247 0.331917 59.9557 1.20912 58.6629 1.36429C58.471 1.38746 58.618 0.864294 58.3345 0.861259C57.2989 0.846922 55.4695 0.410997 54.6087 1.54324C53.9072 2.45012 54.8457 3.09362 54.3012 3.471C54.0393 3.65114 53.6949 1.97386 53.6285 1.92293C52.9786 1.40472 52.579 2.167 51.995 1.95893C51.8754 1.91572 51.9657 1.22782 51.8641 1.19861C51.5169 1.09278 51.1703 1.41162 50.8442 1.36856C50.6979 1.34768 50.704 0.824546 50.5719 0.870159C50.259 0.973191 49.9761 1.20458 49.6821 1.70704C49.6553 1.75283 49.876 2.39409 49.6381 2.42827C49.253 2.48178 48.7983 2.98506 48.3381 2.50645C48.2013 2.36241 48.1429 1.16965 47.8945 2.0066C47.8426 2.18144 47.985 3.61019 47.5963 2.38804C47.5314 2.18489 46.8954 0.542068 46.6773 1.63132C46.6196 1.91798 46.496 3.09884 46.3306 2.92248C46.3079 2.89416 46.361 2.24929 46.2281 2.1933C45.758 2.00725 45.2673 2.10121 44.7843 1.92598C44.6548 1.87796 44.8077 1.20503 44.6157 1.15464C44.0927 1.01482 43.4421 1.22069 42.9446 1.45799C42.7613 1.54673 42.9234 2.08798 42.9132 2.14851C42.7514 3.1329 42.545 1.82932 42.4677 1.75721C42.2782 1.58641 42.1161 1.58346 41.9635 1.63354C41.7244 1.71021 41.508 1.90975 41.2484 1.82743C41.1298 1.79146 41.1723 1.16118 41.1457 1.1069C40.8717 0.577553 41.1213 1.68874 40.9783 1.82213C40.5756 2.19972 40.1182 2.1794 39.6745 2.12932C39.5141 2.10983 39.6428 1.37314 39.4993 1.36406C38.6511 1.29648 37.7916 1.4281 37.0027 1.88961C36.8556 1.97774 36.9943 2.52803 36.9722 2.65781C36.8214 3.56551 36.4093 2.37494 36.3267 2.26497C35.9429 1.76328 35.849 2.2669 35.5422 2.19902C34.0586 1.85696 32.2576 2.34596 30.9098 2.68138C29.1395 3.11623 27.7953 3.79544 26.0736 3.85757C25.963 3.86243 25.9868 3.11055 25.8902 3.10529C24.6564 3.07009 23.4962 3.50886 22.2467 3.45985C22.1452 3.45705 22.1946 2.73876 22.0281 2.71084C21.691 2.648 21.2645 2.74528 20.965 3.01469C20.8179 3.1449 21.1193 3.71373 20.9699 3.8325C20.6262 4.10992 20.2214 4.2187 19.8153 4.1639C19.6421 4.1391 19.788 3.38866 19.5708 3.41213C18.0856 3.55822 16.6128 3.66512 15.2865 4.8371C15.195 4.91769 15.3508 6.37817 15.0884 6.13792C15.0034 5.73971 14.9233 5.26787 14.8426 4.84049C12.6659 4.97637 10.6513 5.8734 8.55547 6.37911C8.46722 6.40025 8.46636 5.60778 8.29445 5.64491C7.29367 5.8603 6.28153 5.85301 5.4279 6.82656C5.34341 6.92203 5.68248 8.24674 5.34504 8.10828C5.28641 8.08231 4.80162 8.0012 4.62388 7.73649C4.59871 7.69619 4.54368 7.05531 4.3964 7.06849C3.54472 7.15561 2.70437 7.49192 1.9686 8.05694C1.85014 8.14932 2.14056 8.78018 2.05729 8.85178C1.46582 9.35451 0.626216 9.0156 0.127478 9.76158C-0.205965 10.2633 0.212325 11.3723 0.24323 12.5506C0.247511 12.7168 -0.00958455 12.8019 0.126222 13.4606C0.466973 15.1172 1.0055 16.8935 1.35367 18.6626C1.42891 19.0437 0.984224 18.7161 1.40092 19.5834C1.42944 19.6413 1.75356 19.8867 1.88697 20.1827C1.97953 20.3873 2.05271 21.072 2.20438 21.3264C2.35597 21.5804 2.32657 20.9992 2.54765 21.2882C2.76942 21.5813 2.87768 22.3546 3.19178 22.3776ZM83.9867 5.13286C83.7347 5.78191 83.7397 3.38889 83.991 3.96577C84.0031 3.9965 83.9997 5.10103 83.9867 5.13286ZM113.051 6.62147C112.675 7.65652 112.55 6.09486 112.82 5.29412C113.09 4.49432 113.166 6.30777 113.051 6.62147ZM116.256 7.58983C115.837 8.39699 115.992 5.00704 116.343 5.71659C116.364 5.75674 116.281 7.54297 116.256 7.58983ZM1.36314 12.6333C1.36693 12.665 1.18462 12.7382 1.17314 12.7085C0.903911 11.9904 1.2688 11.8445 1.36314 12.6333ZM119.423 8.63944C119.279 9.08958 118.984 8.53857 119.165 7.97879C119.312 7.52849 119.604 8.07953 119.423 8.63944ZM71.4406 7.58741C71.4368 7.62307 71.2972 7.65545 71.2996 7.45389C71.3077 6.80472 71.5028 6.98756 71.4406 7.58741ZM124.89 9.07417C124.071 9.13975 123.374 11.8984 124.274 11.6491C124.438 11.6041 123.999 10.7319 124.221 10.4953C124.626 10.0643 124.738 11.8378 125.189 10.9266C125.271 10.7598 124.938 9.0642 124.889 9.07017C124.89 9.0715 124.89 9.07284 124.89 9.07417ZM83.7987 8.00406C83.7933 8.03561 83.6005 8.06234 83.5964 8.0309C83.5049 7.26961 83.8939 7.21532 83.7987 8.00406ZM63.3511 9.1357C63.3414 9.20324 62.8971 9.27334 62.8818 9.2115C62.6288 7.97315 63.5289 7.82769 63.3511 9.1357ZM96.6822 10.0976C96.8636 10.8688 97.1095 10.9678 97.3115 10.0149C97.1018 10.0582 96.8925 10.0581 96.6822 10.0976Z" fill="#FFE100"/>
</svg>
