<svg width="186" height="64" viewBox="0 0 186 64" fill="none" xmlns="http://www.w3.org/2000/svg">
<path d="M14.2328 22.0632C14.8082 21.0371 15.4694 20.0659 16.2073 19.1599C16.2822 19.0678 16.2759 18.9334 16.1918 18.8493L8.33761 10.9944C8.16774 10.8245 7.88976 10.8343 7.73247 11.0156C6.10523 12.8962 4.69248 14.9668 3.53311 17.1912C3.42215 17.4039 3.51595 17.6665 3.73673 17.7614L13.9389 22.1622C14.0481 22.2102 14.1751 22.1667 14.2328 22.0632Z" fill="#525252"/>
<path d="M11.7549 29.9122C11.8962 28.5275 12.1765 27.1845 12.5809 25.8964C12.6163 25.7832 12.5608 25.6608 12.4516 25.6139L2.24489 21.2108C2.02411 21.1153 1.76902 21.228 1.69009 21.4557C0.784094 24.0604 0.205838 26.8173 0.00107502 29.6783C-0.0160839 29.9174 0.17438 30.121 0.414033 30.121H11.5244C11.6434 30.121 11.7429 30.0306 11.7549 29.9122Z" fill="#525252"/>
<path d="M19.1596 16.2071C20.2183 15.3457 21.3662 14.5919 22.5857 13.9547C22.6909 13.8998 22.7378 13.7739 22.6938 13.6636L18.5899 3.33318C18.5013 3.10954 18.241 3.00887 18.0242 3.11411C15.4836 4.34557 13.1299 5.90247 11.0171 7.73049C10.8352 7.88778 10.8244 8.16634 10.9948 8.33678L18.849 16.1911C18.9331 16.2757 19.0669 16.2826 19.1596 16.2071Z" fill="#A52023"/>
<path d="M12.4127 37.5351C12.0981 36.4215 11.8756 35.2695 11.7549 34.0867C11.7429 33.9683 11.6434 33.8779 11.5244 33.8779H0.414033C0.17438 33.8779 -0.0160839 34.081 0.00107502 34.3206C0.182388 36.859 0.659406 39.3157 1.39724 41.6567C1.46988 41.8861 1.72097 42.0068 1.94518 41.9176L12.2754 37.8137C12.3858 37.7702 12.4447 37.6495 12.4127 37.5351Z" fill="#A52023"/>
<path d="M26.4641 12.4129C27.5778 12.0983 28.7297 11.8758 29.9125 11.7551C30.0309 11.7431 30.1213 11.6435 30.1213 11.5246V0.414037C30.1213 0.174381 29.9182 -0.0160841 29.6786 0.00107504C27.1402 0.18239 24.6836 0.659409 22.3426 1.39725C22.1132 1.46989 21.9925 1.72099 22.0817 1.9452L26.1856 12.2756C26.2291 12.386 26.3497 12.4449 26.4641 12.4129Z" fill="#525252"/>
<path d="M41.9366 14.233C42.9627 14.8084 43.9339 15.4696 44.8399 16.2074C44.9319 16.2823 45.0664 16.2761 45.1504 16.192L53.0047 8.33767C53.1745 8.16779 53.1648 7.88981 52.9835 7.73252C51.1029 6.10526 49.0324 4.69249 46.808 3.53311C46.5952 3.42215 46.3327 3.51594 46.2377 3.73673L41.837 13.939C41.7896 14.0482 41.833 14.1746 41.9366 14.233Z" fill="#525252"/>
<path d="M55.6618 10.9941L47.8076 18.8484C47.7235 18.9325 47.7167 19.0663 47.7922 19.159C48.6535 20.2177 49.4074 21.3656 50.0446 22.5851C50.0995 22.6903 50.2253 22.7372 50.3357 22.6932L60.6659 18.5893C60.8896 18.5006 60.9902 18.2404 60.885 18.0236C59.6536 15.4829 58.0967 13.1293 56.2687 11.0164C56.1108 10.8345 55.8323 10.8242 55.6618 10.9941Z" fill="#A52023"/>
<path d="M34.0877 11.7551C35.4724 11.8964 36.8154 12.1766 38.1034 12.581C38.2167 12.6165 38.3391 12.561 38.386 12.4517L42.789 2.24492C42.8845 2.02414 42.7718 1.76903 42.5442 1.6901C39.9394 0.784098 37.1826 0.205841 34.3216 0.00107504C34.0825 -0.0160841 33.8789 0.174381 33.8789 0.414037V11.5246C33.8789 11.6435 33.9693 11.7431 34.0877 11.7551Z" fill="#525252"/>
<path d="M22.0626 49.7669C21.0365 49.1915 20.0653 48.5303 19.1593 47.7924C19.0672 47.7175 18.9328 47.7238 18.8487 47.8079L10.9939 55.6622C10.8241 55.832 10.8338 56.11 11.0151 56.2673C12.8957 57.8946 14.9662 59.3073 17.1906 60.4667C17.4034 60.5777 17.6659 60.4839 17.7608 60.2631L22.1615 50.0609C22.2096 49.9516 22.1661 49.8252 22.0626 49.7669Z" fill="#A52023"/>
<path d="M49.7664 41.9371C49.191 42.9632 48.5298 43.9344 47.7919 44.8404C47.717 44.9325 47.7233 45.0669 47.8074 45.151L55.6616 53.0053C55.8315 53.1751 56.1094 53.1654 56.2667 52.9841C57.894 51.1035 59.3067 49.0329 60.4661 46.8085C60.5771 46.5958 60.4833 46.3332 60.2625 46.2383L50.0603 41.8375C49.9517 41.7901 49.8247 41.8335 49.7664 41.9371Z" fill="#525252"/>
<path d="M52.2443 34.0877C52.103 35.4724 51.8228 36.8154 51.4184 38.1035C51.3829 38.2167 51.4384 38.3391 51.5476 38.386L61.7543 42.7891C61.9751 42.8846 62.2302 42.7719 62.3092 42.5443C63.2151 39.9401 63.7934 37.1826 63.9982 34.3216C64.0153 34.0825 63.8249 33.8789 63.5852 33.8789H52.4748C52.3558 33.8789 52.2563 33.9693 52.2443 34.0877Z" fill="#525252"/>
<path d="M51.5871 26.4647C51.9017 27.5783 52.1241 28.7303 52.2448 29.9131C52.2568 30.0315 52.3564 30.1219 52.4753 30.1219H63.5857C63.8254 30.1219 64.0159 29.9188 63.9987 29.6792C63.8174 27.1408 63.3404 24.6841 62.6025 22.3431C62.5299 22.1137 62.2788 21.993 62.0546 22.0822L51.7243 26.1861C51.6134 26.2296 51.5545 26.3503 51.5871 26.4647Z" fill="#525252"/>
<path d="M29.9121 52.2448C28.5274 52.1035 27.1844 51.8233 25.8964 51.4189C25.7831 51.3834 25.6607 51.4389 25.6138 51.5481L21.2108 61.755C21.1153 61.9757 21.228 62.2308 21.4556 62.3098C24.0598 63.2158 26.8172 63.794 29.6782 63.9988C29.9173 64.016 30.1209 63.8255 30.1209 63.5858V52.4753C30.1203 52.3563 30.0305 52.2568 29.9121 52.2448Z" fill="#525252"/>
<path d="M16.2079 44.8407C15.3465 43.782 14.5927 42.6341 13.9555 41.4146C13.9006 41.3094 13.7748 41.2625 13.6644 41.3065L3.33415 45.4104C3.11051 45.4991 3.00985 45.7593 3.11509 45.9761C4.34653 48.5168 5.90341 50.8705 7.73141 52.9833C7.8887 53.1652 8.16725 53.1761 8.3377 53.0056L16.1919 45.1513C16.276 45.0667 16.2829 44.9328 16.2079 44.8407Z" fill="#525252"/>
<path d="M44.8402 47.7922C43.7815 48.6536 42.6336 49.4074 41.4141 50.0446C41.3089 50.0995 41.262 50.2253 41.306 50.3357L45.4099 60.6661C45.4985 60.8897 45.7588 60.9904 45.9756 60.8852C48.5162 59.6537 50.8699 58.0968 52.9827 56.2688C53.1646 56.1115 53.1754 55.8329 53.005 55.6625L45.1508 47.8082C45.0661 47.7241 44.9323 47.7172 44.8402 47.7922Z" fill="#A52023"/>
<path d="M37.5351 51.5868C36.4215 51.9014 35.2695 52.1239 34.0867 52.2446C33.9683 52.2566 33.8779 52.3561 33.8779 52.4751V63.5856C33.8779 63.8253 34.081 64.0157 34.3206 63.9986C36.859 63.8173 39.3156 63.3403 41.6566 62.6024C41.886 62.5298 42.0067 62.2787 41.9175 62.0545L37.8136 51.7241C37.7701 51.6137 37.65 51.5548 37.5351 51.5868Z" fill="#525252"/>
<path d="M20.6474 28.4574C20.8579 27.7848 21.1279 27.1338 21.451 26.5127C21.4762 26.4646 21.4602 26.4052 21.415 26.3754L15.9179 22.7731C15.8263 22.7131 15.7034 22.7434 15.6496 22.8383C14.9203 24.1384 14.3444 25.5266 13.94 26.9754C13.9108 27.0807 13.9772 27.1893 14.0841 27.2111L20.525 28.5295C20.5782 28.5409 20.6308 28.5094 20.6474 28.4574Z" fill="#A52023"/>
<path d="M20.1751 33.2436C20.0871 32.4166 20.0876 31.5975 20.1694 30.795C20.1751 30.7413 20.1385 30.6921 20.0853 30.6812L13.6416 29.3622C13.5346 29.3405 13.4311 29.4137 13.4162 29.5218C13.1983 31.1554 13.1955 32.8404 13.43 34.5403C13.4448 34.6484 13.5484 34.7216 13.6553 34.6993L20.0916 33.3592C20.1448 33.3477 20.1809 33.298 20.1751 33.2436Z" fill="#525252"/>
<path d="M22.7578 24.5179C23.2703 23.8842 23.8502 23.3031 24.4868 22.7832C24.5286 22.7488 24.5377 22.6882 24.508 22.6436L20.8846 17.1544C20.8245 17.0629 20.6993 17.0417 20.6123 17.1081C19.2717 18.1347 18.0831 19.3336 17.073 20.6646C17.0067 20.7515 17.029 20.8768 17.1199 20.9363L22.6177 24.5385C22.6634 24.5694 22.724 24.5603 22.7578 24.5179Z" fill="#525252"/>
<path d="M21.4689 37.5233C21.1469 36.909 20.8752 36.2603 20.6618 35.5803C20.6453 35.5282 20.5926 35.4968 20.5394 35.5082L14.1031 36.8483C13.9962 36.8706 13.9304 36.9787 13.9596 37.084C14.372 38.5539 14.9525 39.9375 15.676 41.2188C15.7298 41.3143 15.8533 41.3435 15.9443 41.2834L21.4334 37.66C21.4786 37.6302 21.4941 37.5713 21.4689 37.5233Z" fill="#525252"/>
<path d="M26.4764 21.4695C27.0907 21.1474 27.7393 20.8758 28.4194 20.6624C28.4714 20.6458 28.5029 20.5932 28.4914 20.54L27.1513 14.1036C27.129 13.9967 27.0209 13.9309 26.9157 13.9601C25.4457 14.3724 24.0621 14.953 22.7809 15.6765C22.6854 15.7303 22.6563 15.8539 22.7163 15.9448L26.3397 21.434C26.3694 21.4792 26.4289 21.4946 26.4764 21.4695Z" fill="#525252"/>
<path d="M35.5417 20.647C36.2143 20.8575 36.8652 21.1275 37.4864 21.4506C37.5344 21.4758 37.5939 21.4598 37.6236 21.4146L41.2259 15.9174C41.2859 15.8259 41.2556 15.7029 41.1607 15.6491C39.8606 14.9199 38.4724 14.3439 37.0237 13.9395C36.9184 13.9103 36.8097 13.9767 36.788 14.0836L35.4696 20.5246C35.4582 20.5784 35.4896 20.631 35.5417 20.647Z" fill="#525252"/>
<path d="M43.0616 17.1207L39.4588 22.6185C39.4291 22.6637 39.4382 22.7243 39.4805 22.7581C40.1143 23.2705 40.6954 23.8505 41.2153 24.4871C41.2496 24.5289 41.3102 24.538 41.3549 24.5083L46.844 20.8849C46.9355 20.8248 46.9567 20.6995 46.8903 20.6126C45.8637 19.2719 44.6648 18.0833 43.3339 17.0732C43.2469 17.0075 43.1217 17.0292 43.0616 17.1207Z" fill="#525252"/>
<path d="M30.7565 20.1757C31.5835 20.0876 32.4026 20.0882 33.205 20.17C33.2588 20.1757 33.308 20.1391 33.3189 20.0859L34.6384 13.6421C34.6601 13.5351 34.5869 13.4316 34.4788 13.4167C32.8453 13.1988 31.1603 13.1959 29.4604 13.4305C29.3523 13.4453 29.2791 13.5489 29.3014 13.6558L30.6415 20.0922C30.6524 20.1454 30.7021 20.1814 30.7565 20.1757Z" fill="#A52023"/>
<path d="M28.4573 43.3526C27.7847 43.1421 27.1338 42.8722 26.5126 42.549C26.4646 42.5238 26.4051 42.5399 26.3754 42.5851L22.7731 48.0823C22.7131 48.1738 22.7434 48.2968 22.8383 48.3505C24.1384 49.0798 25.5266 49.6558 26.9754 50.0601C27.0806 50.0893 27.1893 50.023 27.211 49.916L28.5294 43.475C28.5408 43.4213 28.5094 43.3686 28.4573 43.3526Z" fill="#525252"/>
<path d="M43.3526 35.5422C43.1421 36.2148 42.8722 36.8657 42.549 37.4869C42.5238 37.5349 42.5399 37.5944 42.585 37.6242L48.0822 41.2264C48.1737 41.2865 48.2967 41.2562 48.3504 41.1612C49.0797 39.8611 49.6557 38.473 50.06 37.0242C50.0892 36.9189 50.0229 36.8102 49.9159 36.7885L43.475 35.4701C43.4213 35.4587 43.3686 35.4901 43.3526 35.5422Z" fill="#525252"/>
<path d="M43.8238 30.7565C43.9119 31.5836 43.9114 32.4027 43.8296 33.2052C43.8238 33.2589 43.8604 33.3081 43.9136 33.319L50.3574 34.6379C50.4644 34.6597 50.5679 34.5865 50.5827 34.4784C50.8007 32.8448 50.8035 31.1598 50.569 29.4599C50.5541 29.3518 50.4506 29.2786 50.3437 29.3009L43.9073 30.641C43.8542 30.6524 43.8181 30.7022 43.8238 30.7565Z" fill="#525252"/>
<path d="M42.53 26.4769C42.852 27.0912 43.1237 27.7399 43.337 28.4199C43.3536 28.472 43.4062 28.5034 43.4594 28.492L49.8957 27.1519C50.0027 27.1296 50.0685 27.0215 50.0393 26.9162C49.6269 25.4462 49.0464 24.0626 48.3228 22.7814C48.2691 22.6859 48.1455 22.6567 48.0546 22.7168L42.5654 26.3402C42.5208 26.37 42.5048 26.4289 42.53 26.4769Z" fill="#A52023"/>
<path d="M33.2431 43.8248C32.416 43.9129 31.597 43.9123 30.7945 43.8305C30.7407 43.8248 30.6916 43.8614 30.6807 43.9146L29.3617 50.3584C29.34 50.4654 29.4132 50.5689 29.5213 50.5838C31.1548 50.8017 32.8399 50.8046 34.5397 50.5701C34.6478 50.5552 34.721 50.4517 34.6987 50.3447L33.3586 43.9083C33.3472 43.8551 33.2974 43.8191 33.2431 43.8248Z" fill="#525252"/>
<path d="M24.5183 41.2423C23.8846 40.7298 23.3035 40.1498 22.7836 39.5132C22.7493 39.4715 22.6886 39.4623 22.644 39.492L17.1549 43.1155C17.0634 43.1755 17.0422 43.3008 17.1085 43.3877C18.1352 44.7284 19.3341 45.917 20.665 46.9271C20.752 46.9934 20.8772 46.9711 20.9367 46.8802L24.5389 41.3824C24.5692 41.3366 24.5601 41.276 24.5183 41.2423Z" fill="#A52023"/>
<path d="M41.2413 39.4822C40.7288 40.116 40.1488 40.6971 39.5122 41.217C39.4705 41.2513 39.4613 41.312 39.4911 41.3566L43.1145 46.8458C43.1745 46.9373 43.2998 46.9585 43.3867 46.8921C44.7274 45.8654 45.9159 44.6666 46.926 43.3356C46.9924 43.2487 46.9701 43.1234 46.8791 43.0639L41.3814 39.4616C41.3356 39.4308 41.275 39.4399 41.2413 39.4822Z" fill="#A52023"/>
<path d="M37.5223 42.5306C36.908 42.8526 36.2594 43.1243 35.5793 43.3376C35.5272 43.3542 35.4958 43.4069 35.5072 43.4601L36.8473 49.8964C36.8696 50.0034 36.9777 50.0692 37.083 50.04C38.5529 49.6276 39.9365 49.0471 41.2177 48.3235C41.3132 48.2697 41.3424 48.1462 41.2824 48.0553L37.659 42.5661C37.6292 42.5209 37.5703 42.5054 37.5223 42.5306Z" fill="#525252"/>
<path d="M83.8635 22.0768H75.8998L74.3301 25.7568H71.2812L78.448 9.85547H81.3605L88.5502 25.7568H85.4561L83.8635 22.0768ZM82.885 19.7597L79.8814 12.8086L76.9012 19.7597H82.885Z" fill="#050306"/>
<path d="M89.9844 9.85547H92.9422V23.2579H101.27V25.7568H89.9844V9.85547Z" fill="#050306"/>
<path d="M103.021 9.85547H105.979V23.2579H114.307V25.7568H103.021V9.85547Z" fill="#050306"/>
<path d="M129.437 18.9313C129.953 19.6051 130.211 20.4419 130.211 21.4417C130.211 22.8202 129.679 23.8835 128.618 24.6333C127.556 25.3832 126.009 25.7578 123.976 25.7578H116.059V9.85645H123.522C125.402 9.85645 126.851 10.2237 127.867 10.9581C128.884 11.693 129.392 12.7037 129.392 13.9907C129.392 14.7783 129.21 15.4749 128.846 16.0806C128.482 16.6864 127.981 17.1559 127.344 17.4888C128.223 17.7765 128.922 18.2576 129.437 18.9313ZM119.016 12.1729V16.5571H123.203C124.234 16.5571 125.027 16.3718 125.58 16.0006C126.134 15.6299 126.411 15.0883 126.411 14.3762C126.411 13.6492 126.134 13.1007 125.58 12.7295C125.026 12.3588 124.234 12.1729 123.203 12.1729H119.016ZM127.23 21.146C127.23 19.6166 126.085 18.8518 123.795 18.8518H119.017V23.4408H123.795C126.085 23.4402 127.23 22.676 127.23 21.146Z" fill="#050306"/>
<path d="M143.202 25.7568L139.949 21.0999C139.812 21.1153 139.607 21.1227 139.334 21.1227H135.74V25.7568H132.782V9.85547H139.334C140.714 9.85547 141.917 10.0825 142.941 10.5367C143.964 10.9908 144.749 11.6423 145.296 12.4905C145.842 13.3388 146.115 14.346 146.115 15.5117C146.115 16.7083 145.823 17.7378 145.239 18.6009C144.655 19.464 143.817 20.1081 142.725 20.5319L146.388 25.7568H143.202ZM142.133 13.1723C141.465 12.6272 140.487 12.3544 139.198 12.3544H135.74V18.6924H139.198C140.487 18.6924 141.465 18.4162 142.133 17.8631C142.8 17.3105 143.134 16.5269 143.134 15.5117C143.134 14.4976 142.8 13.7174 142.133 13.1723Z" fill="#050306"/>
<path d="M148.822 9.85547H151.78V25.7568H148.822V9.85547Z" fill="#050306"/>
<path d="M158.503 24.928C157.206 24.2239 156.19 23.251 155.454 22.0092C154.718 20.7675 154.351 19.3667 154.351 17.8069C154.351 16.2472 154.722 14.8464 155.466 13.6047C156.209 12.3629 157.229 11.39 158.526 10.6853C159.823 9.98124 161.276 9.62891 162.884 9.62891C164.188 9.62891 165.378 9.85598 166.456 10.3101C167.533 10.7643 168.442 11.4232 169.186 12.2863L167.275 14.0811C166.122 12.8394 164.704 12.2182 163.02 12.2182C161.928 12.2182 160.95 12.4567 160.085 12.9338C159.221 13.4108 158.545 14.0737 158.06 14.9214C157.574 15.7696 157.332 16.7311 157.332 17.8064C157.332 18.8817 157.574 19.8432 158.06 20.6914C158.545 21.5396 159.221 22.202 160.085 22.679C160.95 23.156 161.928 23.3945 163.02 23.3945C164.704 23.3945 166.122 22.7665 167.275 21.5093L169.186 23.3265C168.442 24.1896 167.529 24.8485 166.444 25.3026C165.36 25.7568 164.165 25.9838 162.861 25.9838C161.253 25.9844 159.8 25.6321 158.503 24.928Z" fill="#050306"/>
<path d="M176.922 19.1018L174.396 21.6917V25.7578H171.438V9.85645H174.396V18.0116L182.268 9.85645H185.59L178.902 16.9666L186 25.7578H182.542L176.922 19.1018Z" fill="#050306"/>
<path d="M83.6926 28.4181C84.7164 28.8723 85.5012 29.5237 86.0477 30.372C86.5937 31.2202 86.867 32.2274 86.867 33.3931C86.867 34.5439 86.5937 35.5477 86.0477 36.4028C85.5018 37.2585 84.7169 37.9134 83.6926 38.3676C82.6689 38.8217 81.4664 39.0488 80.0863 39.0488H76.4915V43.6377H73.5337V27.7363H80.0863C81.4664 27.7363 82.6689 27.964 83.6926 28.4181ZM82.8849 35.7325C83.5523 35.1874 83.8863 34.4072 83.8863 33.3926C83.8863 32.3779 83.5523 31.5977 82.8849 31.0526C82.2174 30.5075 81.239 30.2347 79.95 30.2347H76.4915V36.5498H79.95C81.239 36.5504 82.2174 36.2781 82.8849 35.7325Z" fill="#050306"/>
<path d="M99.5627 39.9586H91.599L90.0293 43.6387H86.9805L94.1472 27.7373H97.0598L104.249 43.6387H101.155L99.5627 39.9586ZM98.5842 37.6416L95.5806 30.6904L92.5999 37.6416H98.5842Z" fill="#050306"/>
<path d="M118.829 27.7363L111.889 43.6377H108.977L102.015 27.7363H105.223L110.524 40.0034L115.871 27.7363H118.829Z" fill="#050306"/>
<path d="M134.033 41.1626V43.6387H122.088V27.7373H133.715V30.2134H125.046V34.3476H132.736V36.7785H125.046V41.1626H134.033Z" fill="#050306"/>
<path d="M147.957 43.6387L144.704 38.9817C144.568 38.9971 144.362 39.0046 144.09 39.0046H140.495V43.6387H137.537V27.7373H144.09C145.47 27.7373 146.672 27.9644 147.696 28.4185C148.72 28.8727 149.505 29.5241 150.051 30.3724C150.597 31.2206 150.87 32.2279 150.87 33.3935C150.87 34.5901 150.578 35.6196 149.994 36.4827C149.41 37.3458 148.573 37.9899 147.48 38.4137L151.143 43.6387H147.957ZM146.888 31.0536C146.22 30.5085 145.242 30.2357 143.953 30.2357H140.494V36.5737H143.953C145.242 36.5737 146.22 36.2974 146.888 35.7443C147.555 35.1918 147.889 34.4082 147.889 33.393C147.889 32.3789 147.555 31.5987 146.888 31.0536Z" fill="#050306"/>
<path d="M155.75 43.3431C154.605 42.9947 153.699 42.5332 153.031 41.9572L154.055 39.663C154.707 40.1778 155.507 40.5982 156.455 40.9236C157.403 41.2497 158.355 41.4121 159.311 41.4121C160.494 41.4121 161.377 41.2228 161.961 40.8441C162.545 40.4661 162.837 39.9661 162.837 39.345C162.837 38.8908 162.674 38.5156 162.348 38.2205C162.022 37.9254 161.608 37.6943 161.108 37.5278C160.607 37.3614 159.925 37.1721 159.06 36.9599C157.846 36.6722 156.864 36.3845 156.114 36.0968C155.363 35.8091 154.718 35.3584 154.18 34.7452C153.641 34.132 153.372 33.3027 153.372 32.2577C153.372 31.3797 153.611 30.5807 154.089 29.8611C154.567 29.1422 155.287 28.5702 156.25 28.1458C157.213 27.722 158.393 27.5098 159.788 27.5098C160.759 27.5098 161.714 27.631 162.655 27.873C163.595 28.1155 164.407 28.4638 165.09 28.918L164.157 31.2121C163.459 30.8032 162.731 30.4932 161.973 30.281C161.214 30.0693 160.479 29.963 159.766 29.963C158.598 29.963 157.729 30.1597 157.161 30.5538C156.592 30.9479 156.308 31.4701 156.308 32.121C156.308 32.5751 156.471 32.9463 156.797 33.2341C157.123 33.5218 157.537 33.7488 158.038 33.9153C158.538 34.0823 159.221 34.271 160.085 34.4832C161.268 34.7561 162.239 35.0398 162.998 35.3349C163.756 35.63 164.405 36.0808 164.943 36.6865C165.482 37.2922 165.751 38.1101 165.751 39.1397C165.751 40.0182 165.512 40.8132 165.034 41.5248C164.557 42.2369 163.832 42.8049 162.861 43.2287C161.89 43.6525 160.707 43.8647 159.312 43.8647C158.082 43.8659 156.895 43.6914 155.75 43.3431Z" fill="#050306"/>
<path d="M72.2709 51.0639V52.2364H74.1345V52.8421H72.2709V54.3172H71.5542V50.4639H74.3716V51.0639H72.2709Z" fill="#050306"/>
<path d="M76.0527 53.9231C75.7548 53.624 75.6064 53.1956 75.6064 52.6379V50.4639H76.3231V52.6105C76.3231 53.3666 76.6502 53.7441 77.3045 53.7441C77.9553 53.7441 78.2801 53.3661 78.2801 52.6105V50.4639H78.9859V52.6379C78.9859 53.1956 78.8381 53.624 78.5419 53.9231C78.2457 54.2223 77.8315 54.3716 77.2987 54.3716C76.766 54.3716 76.3506 54.2223 76.0527 53.9231Z" fill="#050306"/>
<path d="M80.5625 50.4639H81.2792V53.7115H83.2969V54.3172H80.5625V50.4639Z" fill="#050306"/>
<path d="M84.439 50.4639H85.1556V53.7115H87.1733V54.3172H84.439V50.4639Z" fill="#050306"/>
<path d="M90.7433 54.2455C90.4654 54.1609 90.246 54.0494 90.0845 53.9098L90.3325 53.3539C90.4906 53.4785 90.6843 53.5803 90.914 53.6593C91.1437 53.7382 91.3746 53.7777 91.6061 53.7777C91.8925 53.7777 92.1067 53.7319 92.2483 53.6398C92.3898 53.5483 92.4608 53.4271 92.4608 53.2766C92.4608 53.1668 92.4213 53.0759 92.3422 53.0044C92.2631 52.9329 92.1629 52.8768 92.042 52.8362C91.9206 52.7962 91.7556 52.7499 91.5459 52.6984C91.252 52.6286 91.0137 52.5588 90.8321 52.489C90.6499 52.4192 90.4941 52.31 90.3635 52.1613C90.2328 52.0126 90.1675 51.8118 90.1675 51.5584C90.1675 51.3457 90.2254 51.1523 90.3411 50.9779C90.4568 50.8034 90.6316 50.665 90.8647 50.5621C91.0979 50.4591 91.3838 50.4082 91.7223 50.4082C91.9572 50.4082 92.1892 50.4374 92.4172 50.4963C92.6453 50.5552 92.8418 50.6393 93.0073 50.7497L92.781 51.3056C92.612 51.2067 92.4356 51.1312 92.2517 51.0797C92.0678 51.0282 91.8896 51.0025 91.7166 51.0025C91.4336 51.0025 91.2234 51.0499 91.0853 51.1455C90.9472 51.241 90.8785 51.3674 90.8785 51.5253C90.8785 51.6351 90.918 51.7255 90.9971 51.7952C91.0761 51.865 91.1764 51.9199 91.2973 51.9605C91.4187 52.0011 91.5837 52.0469 91.7934 52.0984C92.0798 52.1647 92.3153 52.2334 92.4992 52.3049C92.6831 52.3764 92.84 52.4856 92.9707 52.6326C93.1013 52.7796 93.1666 52.9775 93.1666 53.2269C93.1666 53.4397 93.1087 53.6324 92.993 53.8046C92.8773 53.9773 92.7014 54.1146 92.4665 54.2175C92.2311 54.3205 91.9446 54.3714 91.6066 54.3714C91.3082 54.372 91.0206 54.3296 90.7433 54.2455Z" fill="#050306"/>
<path d="M97.3454 53.7172V54.3172H94.4512V50.4639H97.2686V51.0639H95.1678V52.066H97.0314V52.6551H95.1678V53.7172H97.3454Z" fill="#050306"/>
<path d="M101.243 54.3172L100.455 53.1887C100.422 53.1922 100.372 53.1945 100.306 53.1945H99.4345V54.3172H98.7178V50.4639H100.306C100.64 50.4639 100.931 50.5188 101.179 50.6292C101.428 50.739 101.618 50.8968 101.75 51.1028C101.882 51.3081 101.948 51.5523 101.948 51.8349C101.948 52.1249 101.877 52.3743 101.736 52.5836C101.595 52.7929 101.392 52.9485 101.127 53.0515L102.015 54.3172H101.243ZM100.984 51.2675C100.823 51.1354 100.585 51.0696 100.273 51.0696H99.435V52.6053H100.273C100.585 52.6053 100.823 52.5384 100.984 52.4046C101.146 52.2707 101.226 52.0808 101.226 51.8349C101.226 51.5889 101.146 51.3996 100.984 51.2675Z" fill="#050306"/>
<path d="M106.85 50.4639L105.168 54.3172H104.463L102.775 50.4639H103.553L104.837 53.4364L106.133 50.4639H106.85Z" fill="#050306"/>
<path d="M107.831 50.4639H108.548V54.3172H107.831V50.4639Z" fill="#050306"/>
<path d="M110.894 54.1161C110.579 53.9457 110.333 53.7094 110.155 53.4086C109.977 53.1077 109.887 52.7686 109.887 52.3905C109.887 52.0124 109.977 51.6732 110.158 51.3724C110.337 51.0715 110.585 50.8359 110.899 50.6648C111.213 50.4944 111.565 50.4092 111.955 50.4092C112.271 50.4092 112.559 50.4641 112.82 50.5745C113.081 50.6843 113.302 50.8445 113.482 51.0532L113.019 51.4879C112.74 51.1871 112.396 51.0366 111.988 51.0366C111.723 51.0366 111.486 51.0944 111.277 51.2099C111.067 51.3255 110.904 51.4862 110.787 51.6915C110.669 51.8969 110.61 52.1302 110.61 52.3905C110.61 52.6513 110.669 52.8841 110.787 53.0894C110.904 53.2948 111.068 53.4555 111.277 53.571C111.487 53.6866 111.724 53.7443 111.988 53.7443C112.396 53.7443 112.74 53.5922 113.019 53.2873L113.482 53.7278C113.302 53.9371 113.08 54.0967 112.817 54.2065C112.555 54.3163 112.265 54.3718 111.949 54.3718C111.56 54.3724 111.208 54.2871 110.894 54.1161Z" fill="#050306"/>
<path d="M117.639 53.7172V54.3172H114.745V50.4639H117.563V51.0639H115.462V52.066H117.325V52.6551H115.462V53.7172H117.639Z" fill="#050306"/>
<path d="M121.107 50.4639H121.824V54.3172H121.107V50.4639Z" fill="#050306"/>
<path d="M126.869 50.4639V54.3172H126.279L124.15 51.7079V54.3172H123.439V50.4639H124.03L126.158 53.0732V50.4639H126.869Z" fill="#050306"/>
<path d="M128.812 54.2455C128.534 54.1609 128.315 54.0494 128.153 53.9098L128.401 53.3539C128.559 53.4785 128.753 53.5803 128.983 53.6593C129.213 53.7382 129.443 53.7777 129.675 53.7777C129.961 53.7777 130.176 53.7319 130.317 53.6398C130.459 53.5483 130.53 53.4271 130.53 53.2766C130.53 53.1668 130.49 53.0759 130.411 53.0044C130.332 52.9329 130.232 52.8768 130.111 52.8362C129.989 52.7962 129.824 52.7499 129.615 52.6984C129.321 52.6286 129.083 52.5588 128.901 52.489C128.719 52.4192 128.563 52.31 128.432 52.1613C128.302 52.0126 128.236 51.8118 128.236 51.5584C128.236 51.3457 128.294 51.1523 128.41 50.9779C128.526 50.8034 128.7 50.665 128.934 50.5621C129.167 50.4591 129.453 50.4082 129.791 50.4082C130.026 50.4082 130.258 50.4374 130.486 50.4963C130.714 50.5552 130.911 50.6393 131.076 50.7497L130.85 51.3056C130.681 51.2067 130.504 51.1312 130.321 51.0797C130.137 51.0282 129.958 51.0025 129.785 51.0025C129.502 51.0025 129.292 51.0499 129.154 51.1455C129.016 51.241 128.947 51.3674 128.947 51.5253C128.947 51.6351 128.987 51.7255 129.066 51.7952C129.145 51.865 129.245 51.9199 129.367 51.9605C129.488 52.0011 129.653 52.0469 129.863 52.0984C130.149 52.1647 130.385 52.2334 130.569 52.3049C130.752 52.3764 130.909 52.4856 131.04 52.6326C131.171 52.7796 131.236 52.9775 131.236 53.2269C131.236 53.4397 131.178 53.6324 131.062 53.8046C130.947 53.9773 130.771 54.1146 130.536 54.2175C130.3 54.3205 130.014 54.3714 129.676 54.3714C129.378 54.372 129.09 54.3296 128.812 54.2455Z" fill="#050306"/>
<path d="M133.248 51.0696H131.969V50.4639H135.243V51.0696H133.964V54.3172H133.247V51.0696H133.248Z" fill="#050306"/>
<path d="M138.667 53.4255H136.738L136.357 54.3172H135.618L137.355 50.4639H138.06L139.802 54.3172H139.053L138.667 53.4255ZM138.43 52.8639L137.702 51.1794L136.98 52.8639H138.43Z" fill="#050306"/>
<path d="M140.867 50.4639H141.584V53.7115H143.602V54.3172H140.867V50.4639Z" fill="#050306"/>
<path d="M144.743 50.4639H145.459V53.7115H147.477V54.3172H144.743V50.4639Z" fill="#050306"/>
<path d="M151.149 53.4255H149.22L148.839 54.3172H148.1L149.837 50.4639H150.542L152.284 54.3172H151.535L151.149 53.4255ZM150.912 52.8639L150.184 51.1794L149.462 52.8639H150.912Z" fill="#050306"/>
<path d="M153.939 51.0696H152.66V50.4639H155.934V51.0696H154.655V54.3172H153.938V51.0696H153.939Z" fill="#050306"/>
<path d="M157.048 50.4639H157.765V54.3172H157.048V50.4639Z" fill="#050306"/>
<path d="M160.12 54.1161C159.803 53.9457 159.555 53.7089 159.375 53.4063C159.196 53.1037 159.105 52.7651 159.105 52.3905C159.105 52.0164 159.195 51.6778 159.375 51.3747C159.555 51.0721 159.803 50.8353 160.12 50.6648C160.436 50.4944 160.79 50.4092 161.183 50.4092C161.576 50.4092 161.931 50.4944 162.247 50.6648C162.563 50.8353 162.812 51.0715 162.991 51.3724C163.171 51.6732 163.262 52.013 163.262 52.3905C163.262 52.7686 163.172 53.1077 162.991 53.4086C162.812 53.7094 162.563 53.9451 162.247 54.1161C161.931 54.2866 161.576 54.3718 161.183 54.3718C160.79 54.3724 160.436 54.2871 160.12 54.1161ZM161.878 53.5716C162.084 53.4561 162.246 53.2948 162.364 53.0871C162.481 52.8801 162.54 52.6479 162.54 52.3911C162.54 52.1342 162.481 51.902 162.364 51.695C162.246 51.4879 162.084 51.3261 161.878 51.2105C161.673 51.095 161.441 51.0372 161.183 51.0372C160.926 51.0372 160.695 51.095 160.489 51.2105C160.283 51.3261 160.121 51.4879 160.003 51.695C159.886 51.9026 159.827 52.1342 159.827 52.3911C159.827 52.6479 159.886 52.8801 160.003 53.0871C160.121 53.2948 160.283 53.4561 160.489 53.5716C160.694 53.6871 160.926 53.7449 161.183 53.7449C161.441 53.7449 161.672 53.6871 161.878 53.5716Z" fill="#050306"/>
<path d="M168.025 50.4639V54.3172H167.435L165.307 51.7079V54.3172H164.596V50.4639H165.186L167.314 53.0732V50.4639H168.025Z" fill="#050306"/>
<path d="M169.969 54.2455C169.691 54.1609 169.472 54.0494 169.31 53.9098L169.558 53.3539C169.716 53.4785 169.91 53.5803 170.14 53.6593C170.369 53.7382 170.6 53.7777 170.832 53.7777C171.118 53.7777 171.332 53.7319 171.474 53.6398C171.615 53.5483 171.686 53.4271 171.686 53.2766C171.686 53.1668 171.647 53.0759 171.568 53.0044C171.489 52.9329 171.388 52.8768 171.267 52.8362C171.146 52.7962 170.981 52.7499 170.771 52.6984C170.477 52.6286 170.239 52.5588 170.057 52.489C169.875 52.4192 169.719 52.31 169.588 52.1613C169.458 52.0126 169.393 51.8118 169.393 51.5584C169.393 51.3457 169.45 51.1523 169.566 50.9779C169.682 50.8034 169.857 50.665 170.09 50.5621C170.323 50.4591 170.609 50.4082 170.947 50.4082C171.182 50.4082 171.414 50.4374 171.642 50.4963C171.87 50.5552 172.067 50.6393 172.232 50.7497L172.006 51.3056C171.837 51.2067 171.661 51.1312 171.477 51.0797C171.293 51.0282 171.115 51.0025 170.942 51.0025C170.659 51.0025 170.448 51.0499 170.31 51.1455C170.172 51.241 170.103 51.3674 170.103 51.5253C170.103 51.6351 170.143 51.7255 170.222 51.7952C170.301 51.865 170.401 51.9199 170.522 51.9605C170.644 52.0011 170.809 52.0469 171.018 52.0984C171.305 52.1647 171.54 52.2334 171.724 52.3049C171.908 52.3764 172.065 52.4856 172.196 52.6326C172.326 52.7796 172.392 52.9775 172.392 53.2269C172.392 53.4397 172.334 53.6324 172.218 53.8046C172.102 53.9773 171.926 54.1146 171.692 54.2175C171.456 54.3205 171.17 54.3714 170.832 54.3714C170.534 54.372 170.246 54.3296 169.969 54.2455Z" fill="#050306"/>
</svg>
