<svg width="103" height="103" viewBox="0 0 103 103" fill="none" xmlns="http://www.w3.org/2000/svg">
<path d="M19.3125 8.58301H83.6875V94.4163H19.3125V8.58301Z" fill="#FBE9E7"/>
<path d="M64.3755 79.3962H70.3839L59.6547 68.667L53.6464 74.6753L64.3755 85.4045V79.3962ZM38.6255 79.3962H32.6172L43.3464 68.667L49.3547 74.6753L38.6255 85.4045V79.3962Z" fill="#008CFF"/>
<path d="M51.4987 55.791C45.4904 55.791 40.7695 60.5118 40.7695 66.5202C40.7695 72.5285 45.4904 77.2493 51.4987 77.2493C57.507 77.2493 62.2279 72.5285 62.2279 66.5202C62.2279 60.5118 57.507 55.791 51.4987 55.791ZM51.4987 72.9577C47.8508 72.9577 45.0612 70.1681 45.0612 66.5202C45.0612 62.8723 47.8508 60.0827 51.4987 60.0827C55.1466 60.0827 57.9362 62.8723 57.9362 66.5202C57.9362 70.1681 55.1466 72.9577 51.4987 72.9577Z" fill="#4AADFF"/>
<path d="M17.168 6.4375V96.5625H85.8346V6.4375H17.168ZM81.543 85.8333C77.8951 85.8333 75.1055 88.6229 75.1055 92.2708H27.8971C27.8971 88.6229 25.1076 85.8333 21.4596 85.8333V17.1667C25.1076 17.1667 27.8971 14.3771 27.8971 10.7292H75.1055C75.1055 14.3771 77.8951 17.1667 81.543 17.1667V85.8333Z" fill="#CCCCCC"/>
<path d="M25.3624 45C25.2093 45 25.0715 44.9464 24.949 44.8392C24.8418 44.732 24.7882 44.5942 24.7882 44.4258V33.4926L21.6414 35.9043C21.5036 36.0115 21.3581 36.0498 21.205 36.0191C21.0672 35.9885 20.9447 35.9043 20.8375 35.7665L19.4823 33.9979C19.3905 33.8601 19.3522 33.7146 19.3675 33.5615C19.3981 33.393 19.49 33.2629 19.6431 33.171L24.926 29.0825C25.0179 29.0213 25.1021 28.983 25.1786 28.9677C25.2705 28.937 25.3701 28.9217 25.4772 28.9217H28.3484C28.5015 28.9217 28.6316 28.9753 28.7388 29.0825C28.8613 29.1897 28.9226 29.3275 28.9226 29.496V44.4258C28.9226 44.5942 28.8613 44.732 28.7388 44.8392C28.6316 44.9464 28.5015 45 28.3484 45H25.3624ZM38.2037 45.2297C37.1011 45.2297 36.1441 45.0766 35.3325 44.7703C34.521 44.4487 33.8472 44.0123 33.3113 43.4611C32.7906 42.9098 32.3925 42.2667 32.1169 41.5317C31.8413 40.7967 31.6805 40.0081 31.6345 39.1659C31.6192 38.7524 31.6039 38.2854 31.5886 37.7648C31.5886 37.2288 31.5886 36.6929 31.5886 36.157C31.6039 35.6057 31.6192 35.1157 31.6345 34.6869C31.6805 33.8447 31.8413 33.0638 32.1169 32.3441C32.4078 31.6091 32.8213 30.9736 33.3572 30.4377C33.9085 29.8864 34.5822 29.4577 35.3785 29.1514C36.19 28.8452 37.1318 28.692 38.2037 28.692C39.2909 28.692 40.2326 28.8452 41.0288 29.1514C41.8251 29.4577 42.4912 29.8864 43.0271 30.4377C43.5784 30.9736 43.9995 31.6091 44.2904 32.3441C44.5814 33.0638 44.7421 33.8447 44.7728 34.6869C44.8034 35.1157 44.8187 35.6057 44.8187 36.157C44.834 36.6929 44.834 37.2288 44.8187 37.7648C44.8187 38.2854 44.8034 38.7524 44.7728 39.1659C44.7421 40.0081 44.5814 40.7967 44.2904 41.5317C44.0148 42.2667 43.609 42.9098 43.0731 43.4611C42.5524 44.0123 41.8863 44.4487 41.0748 44.7703C40.2785 45.0766 39.3215 45.2297 38.2037 45.2297ZM38.2037 41.8992C38.9999 41.8992 39.5741 41.6465 39.9263 41.1412C40.2938 40.6206 40.4852 39.9239 40.5005 39.051C40.5312 38.607 40.5465 38.1399 40.5465 37.6499C40.5618 37.1599 40.5618 36.6699 40.5465 36.1799C40.5465 35.6899 40.5312 35.2382 40.5005 34.8248C40.4852 33.9826 40.2938 33.3011 39.9263 32.7805C39.5741 32.2599 38.9999 31.9919 38.2037 31.9766C37.4074 31.9919 36.8332 32.2599 36.481 32.7805C36.1288 33.3011 35.9374 33.9826 35.9068 34.8248C35.8914 35.2382 35.8761 35.6899 35.8608 36.1799C35.8608 36.6699 35.8608 37.1599 35.8608 37.6499C35.8761 38.1399 35.8914 38.607 35.9068 39.051C35.9374 39.9239 36.1364 40.6206 36.504 41.1412C36.8715 41.6465 37.438 41.8992 38.2037 41.8992ZM46.4793 46.9294C46.3415 46.9294 46.219 46.8758 46.1118 46.7686C46.0199 46.6767 45.974 46.5695 45.974 46.447C45.974 46.3705 45.9969 46.2939 46.0429 46.2174L53.8064 27.4977C53.8676 27.3752 53.9595 27.2527 54.082 27.1302C54.2045 27.0077 54.3883 26.9464 54.6333 26.9464H56.7005C56.823 26.9464 56.9302 27 57.022 27.1072C57.1292 27.1991 57.1828 27.3063 57.1828 27.4288C57.1828 27.49 57.1675 27.5666 57.1369 27.6584L49.3045 46.3781C49.2738 46.4853 49.1896 46.6002 49.0518 46.7227C48.9293 46.8605 48.7456 46.9294 48.5006 46.9294H46.4793ZM63.7636 45C63.6105 45 63.4727 44.9464 63.3502 44.8392C63.243 44.732 63.1894 44.5942 63.1894 44.4258V33.4926L60.0426 35.9043C59.9048 36.0115 59.7594 36.0498 59.6062 36.0191C59.4684 35.9885 59.3459 35.9043 59.2387 35.7665L57.8836 33.9979C57.7917 33.8601 57.7534 33.7146 57.7687 33.5615C57.7993 33.393 57.8912 33.2629 58.0443 33.171L63.3272 29.0825C63.4191 29.0213 63.5033 28.983 63.5799 28.9677C63.6717 28.937 63.7713 28.9217 63.8784 28.9217H66.7496C66.9027 28.9217 67.0329 28.9753 67.14 29.0825C67.2625 29.1897 67.3238 29.3275 67.3238 29.496V44.4258C67.3238 44.5942 67.2625 44.732 67.14 44.8392C67.0329 44.9464 66.9027 45 66.7496 45H63.7636ZM76.6049 45.2297C75.5024 45.2297 74.5453 45.0766 73.7337 44.7703C72.9222 44.4487 72.2484 44.0123 71.7125 43.4611C71.1918 42.9098 70.7937 42.2667 70.5181 41.5317C70.2425 40.7967 70.0817 40.0081 70.0357 39.1659C70.0204 38.7524 70.0051 38.2854 69.9898 37.7648C69.9898 37.2288 69.9898 36.6929 69.9898 36.157C70.0051 35.6057 70.0204 35.1157 70.0357 34.6869C70.0817 33.8447 70.2425 33.0638 70.5181 32.3441C70.809 31.6091 71.2225 30.9736 71.7584 30.4377C72.3097 29.8864 72.9834 29.4577 73.7797 29.1514C74.5913 28.8452 75.533 28.692 76.6049 28.692C77.6921 28.692 78.6338 28.8452 79.43 29.1514C80.2263 29.4577 80.8924 29.8864 81.4283 30.4377C81.9796 30.9736 82.4007 31.6091 82.6916 32.3441C82.9826 33.0638 83.1434 33.8447 83.174 34.6869C83.2046 35.1157 83.2199 35.6057 83.2199 36.157C83.2352 36.6929 83.2352 37.2288 83.2199 37.7648C83.2199 38.2854 83.2046 38.7524 83.174 39.1659C83.1434 40.0081 82.9826 40.7967 82.6916 41.5317C82.416 42.2667 82.0102 42.9098 81.4743 43.4611C80.9537 44.0123 80.2876 44.4487 79.476 44.7703C78.6797 45.0766 77.7227 45.2297 76.6049 45.2297ZM76.6049 41.8992C77.4011 41.8992 77.9753 41.6465 78.3275 41.1412C78.695 40.6206 78.8864 39.9239 78.9018 39.051C78.9324 38.607 78.9477 38.1399 78.9477 37.6499C78.963 37.1599 78.963 36.6699 78.9477 36.1799C78.9477 35.6899 78.9324 35.2382 78.9018 34.8248C78.8864 33.9826 78.695 33.3011 78.3275 32.7805C77.9753 32.2599 77.4011 31.9919 76.6049 31.9766C75.8086 31.9919 75.2344 32.2599 74.8822 32.7805C74.53 33.3011 74.3386 33.9826 74.308 34.8248C74.2927 35.2382 74.2773 35.6899 74.262 36.1799C74.262 36.6699 74.262 37.1599 74.262 37.6499C74.2773 38.1399 74.2927 38.607 74.308 39.051C74.3386 39.9239 74.5377 40.6206 74.9052 41.1412C75.2727 41.6465 75.8392 41.8992 76.6049 41.8992Z" fill="#008CFF"/>
</svg>
