<svg width="42" height="42" viewBox="0 0 42 42" fill="none" xmlns="http://www.w3.org/2000/svg">
<g clip-path="url(#clip0_320_2154)">
<mask id="mask0_320_2154" style="mask-type:luminance" maskUnits="userSpaceOnUse" x="-9" y="-9" width="60" height="60">
<path d="M-8.40039 -8.39991H50.3996V50.4001H-8.40039V-8.39991Z" fill="white"/>
</mask>
<g mask="url(#mask0_320_2154)">
<path d="M42 21.0001C42 9.40215 32.598 0.000117508 21 0.000117508C9.40204 0.000117508 0 9.40215 0 21.0001C0 30.8487 6.78006 39.1124 15.9269 41.3817V27.4174H11.5965V21.0001H15.9269V18.2349C15.9269 11.0872 19.1616 7.77423 26.1789 7.77423C27.5093 7.77423 29.805 8.03505 30.7441 8.29596V14.1133C30.2484 14.0611 29.3876 14.035 28.318 14.035C24.8746 14.035 23.5441 15.3394 23.5441 18.7306V21.0001H30.4035L29.2251 27.4174H23.5441V41.8463C33.9421 40.5904 42 31.7368 42 21.0001Z" fill="#0866FF"/>
<path d="M29.2248 27.4174L30.4032 21.0002H23.5438V18.7306C23.5438 15.3393 24.8742 14.0351 28.3177 14.0351C29.3872 14.0351 30.2481 14.0611 30.7437 14.1133V8.29603C29.8046 8.03512 27.509 7.77422 26.1786 7.77422C19.1613 7.77422 15.9266 11.0873 15.9266 18.235V21.0002H11.5962V27.4174H15.9266V41.3818C17.5514 41.7848 19.2503 42.0002 20.9997 42.0002C21.861 42.0002 22.7097 41.9471 23.5438 41.8464V27.4174H29.2248Z" fill="white"/>
</g>
</g>
<defs>
<clipPath id="clip0_320_2154">
<rect width="42" height="42" fill="white"/>
</clipPath>
</defs>
</svg>
