<svg width="45" height="42" viewBox="0 0 45 42" fill="none" xmlns="http://www.w3.org/2000/svg">
<g clip-path="url(#clip0_320_2165)">
<path d="M26.9142 0.698413C25.5317 0.253968 24.0236 0 22.4841 0C18.054 0 14.0637 2.03175 11.3931 5.2381L18.2425 11.0476L26.9142 0.698413Z" fill="#1A73E8"/>
<path d="M11.3933 5.2381C9.28819 7.77778 8 11.0794 8 14.6349C8 17.3968 8.53413 19.619 9.44529 21.619L18.2427 11.0476L11.3933 5.2381Z" fill="#EA4335"/>
<path d="M22.5157 9.04763C25.5948 9.04763 28.0769 11.5556 28.0769 14.6667C28.0769 16.0318 27.5742 17.3016 26.7573 18.2857C26.7573 18.2857 31.1246 13.0159 35.3976 7.90477C33.6381 4.4762 30.5905 1.87303 26.9144 0.698425L18.2427 11.0476C19.2795 9.84128 20.7876 9.04763 22.5157 9.04763Z" fill="#4285F4"/>
<path d="M22.5157 20.254C19.4366 20.254 16.9545 17.746 16.9545 14.6349C16.9545 13.2698 17.4258 12 18.2427 11.0476L9.44531 21.619C10.9534 24.9841 13.467 27.7143 16.0434 31.1111L26.7573 18.254C25.7205 19.4921 24.2124 20.254 22.5157 20.254Z" fill="#FBBC04"/>
<path d="M26.5689 34.6667C31.4075 27.0159 37.0315 23.5556 37.0315 14.6667C37.0315 12.2222 36.4346 9.93653 35.3977 7.90479L16.0435 31.1111C16.8604 32.1905 17.7087 33.4286 18.5256 34.6984C21.479 39.3016 20.6621 42.0318 22.5472 42.0318C24.4324 42.0318 23.6155 39.2699 26.5689 34.6667Z" fill="#34A853"/>
</g>
<defs>
<clipPath id="clip0_320_2165">
<rect width="29" height="42" fill="white" transform="translate(8)"/>
</clipPath>
</defs>
</svg>
