<svg width="42" height="42" viewBox="0 0 42 42" fill="none" xmlns="http://www.w3.org/2000/svg">
<g clip-path="url(#clip0_320_2147)">
<path d="M21.0069 0C12.2396 0 9.67544 0.00904805 9.17703 0.0503999C7.37783 0.199997 6.25827 0.483364 5.03854 1.09078C4.09858 1.55769 3.35725 2.09888 2.62561 2.85753C1.29318 4.24106 0.485638 5.94317 0.193302 7.96646C0.0511817 8.94869 0.00982954 9.14901 0.00143219 14.1662C-0.00179024 15.8386 0.00143219 18.0396 0.00143219 20.9918C0.00143219 29.7543 0.0111153 32.3166 0.0531179 32.8141C0.198476 34.5654 0.473033 35.6672 1.05447 36.8723C2.16565 39.1793 4.28785 40.9111 6.788 41.5574C7.65369 41.7803 8.60982 41.9031 9.83728 41.9612C10.3573 41.9838 15.658 42 20.9619 42C26.2659 42 31.5698 41.9935 32.0769 41.9677C33.4982 41.9008 34.3235 41.79 35.236 41.5541C37.7523 40.9047 39.8358 39.1987 40.9696 36.8594C41.5397 35.6833 41.8288 34.5395 41.9596 32.8797C41.988 32.5179 42 26.7482 42 20.9863C42 15.2234 41.9871 9.46436 41.9587 9.10248C41.8262 7.41588 41.5371 6.28179 40.9486 5.08307C40.4657 4.1018 39.9295 3.36899 39.151 2.61974C37.7617 1.29241 36.0626 0.48465 34.038 0.192568C33.057 0.0507176 32.8616 0.00871484 27.8419 0H21.0069Z" fill="url(#paint0_radial_320_2147)"/>
<path d="M21.0069 0C12.2396 0 9.67544 0.00904805 9.17703 0.0503999C7.37783 0.199997 6.25827 0.483364 5.03854 1.09078C4.09858 1.55769 3.35725 2.09888 2.62561 2.85753C1.29318 4.24106 0.485638 5.94317 0.193302 7.96646C0.0511817 8.94869 0.00982954 9.14901 0.00143219 14.1662C-0.00179024 15.8386 0.00143219 18.0396 0.00143219 20.9918C0.00143219 29.7543 0.0111153 32.3166 0.0531179 32.8141C0.198476 34.5654 0.473033 35.6672 1.05447 36.8723C2.16565 39.1793 4.28785 40.9111 6.788 41.5574C7.65369 41.7803 8.60982 41.9031 9.83728 41.9612C10.3573 41.9838 15.658 42 20.9619 42C26.2659 42 31.5698 41.9935 32.0769 41.9677C33.4982 41.9008 34.3235 41.79 35.236 41.5541C37.7523 40.9047 39.8358 39.1987 40.9696 36.8594C41.5397 35.6833 41.8288 34.5395 41.9596 32.8797C41.988 32.5179 42 26.7482 42 20.9863C42 15.2234 41.9871 9.46436 41.9587 9.10248C41.8262 7.41588 41.5371 6.28179 40.9486 5.08307C40.4657 4.1018 39.9295 3.36899 39.151 2.61974C37.7617 1.29241 36.0626 0.48465 34.038 0.192568C33.057 0.0507176 32.8616 0.00871484 27.8419 0H21.0069Z" fill="url(#paint1_radial_320_2147)"/>
<path d="M21.0069 0C12.2396 0 9.67544 0.00904805 9.17703 0.0503999C7.37783 0.199997 6.25827 0.483364 5.03854 1.09078C4.09858 1.55769 3.35725 2.09888 2.62561 2.85753C1.29318 4.24106 0.485638 5.94317 0.193302 7.96646C0.0511817 8.94869 0.00982954 9.14901 0.00143219 14.1662C-0.00179024 15.8386 0.00143219 18.0396 0.00143219 20.9918C0.00143219 29.7543 0.0111153 32.3166 0.0531179 32.8141C0.198476 34.5654 0.473033 35.6672 1.05447 36.8723C2.16565 39.1793 4.28785 40.9111 6.788 41.5574C7.65369 41.7803 8.60982 41.9031 9.83728 41.9612C10.3573 41.9838 15.658 42 20.9619 42C26.2659 42 31.5698 41.9935 32.0769 41.9677C33.4982 41.9008 34.3235 41.79 35.236 41.5541C37.7523 40.9047 39.8358 39.1987 40.9696 36.8594C41.5397 35.6833 41.8288 34.5395 41.9596 32.8797C41.988 32.5179 42 26.7482 42 20.9863C42 15.2234 41.9871 9.46436 41.9587 9.10248C41.8262 7.41588 41.5371 6.28179 40.9486 5.08307C40.4657 4.1018 39.9295 3.36899 39.151 2.61974C37.7617 1.29241 36.0626 0.48465 34.038 0.192568C33.057 0.0507176 32.8616 0.00871484 27.8419 0H21.0069Z" fill="url(#paint2_radial_320_2147)"/>
<path d="M21.0069 0C12.2396 0 9.67544 0.00904805 9.17703 0.0503999C7.37783 0.199997 6.25827 0.483364 5.03854 1.09078C4.09858 1.55769 3.35725 2.09888 2.62561 2.85753C1.29318 4.24106 0.485638 5.94317 0.193302 7.96646C0.0511817 8.94869 0.00982954 9.14901 0.00143219 14.1662C-0.00179024 15.8386 0.00143219 18.0396 0.00143219 20.9918C0.00143219 29.7543 0.0111153 32.3166 0.0531179 32.8141C0.198476 34.5654 0.473033 35.6672 1.05447 36.8723C2.16565 39.1793 4.28785 40.9111 6.788 41.5574C7.65369 41.7803 8.60982 41.9031 9.83728 41.9612C10.3573 41.9838 15.658 42 20.9619 42C26.2659 42 31.5698 41.9935 32.0769 41.9677C33.4982 41.9008 34.3235 41.79 35.236 41.5541C37.7523 40.9047 39.8358 39.1987 40.9696 36.8594C41.5397 35.6833 41.8288 34.5395 41.9596 32.8797C41.988 32.5179 42 26.7482 42 20.9863C42 15.2234 41.9871 9.46436 41.9587 9.10248C41.8262 7.41588 41.5371 6.28179 40.9486 5.08307C40.4657 4.1018 39.9295 3.36899 39.151 2.61974C37.7617 1.29241 36.0626 0.48465 34.038 0.192568C33.057 0.0507176 32.8616 0.00871484 27.8419 0H21.0069Z" fill="url(#paint3_radial_320_2147)"/>
<path d="M21.0083 5.39282C16.7673 5.39282 16.2351 5.41135 14.5694 5.4871C12.9069 5.56317 11.7722 5.82617 10.7792 6.21206C9.75218 6.61061 8.88094 7.14376 8.01296 8.01142C7.14433 8.87877 6.61078 9.74935 6.21062 10.7753C5.82347 11.7678 5.55995 12.9021 5.48514 14.5626C5.41064 16.2271 5.39111 16.7593 5.39111 20.9971C5.39111 25.235 5.40999 25.7652 5.48545 27.4297C5.56192 29.0909 5.82511 30.2248 6.21094 31.217C6.61013 32.2433 7.14367 33.1139 8.01198 33.9812C8.87965 34.8492 9.75088 35.3837 10.7773 35.7822C11.7708 36.1681 12.906 36.4311 14.5681 36.5072C16.2338 36.5829 16.7657 36.6015 21.0064 36.6015C25.2477 36.6015 25.7783 36.5829 27.444 36.5072C29.1065 36.4311 30.2425 36.1681 31.2361 35.7822C32.2628 35.3837 33.1328 34.8492 34.0004 33.9812C34.8691 33.1139 35.4026 32.2433 35.8028 31.2173C36.1867 30.2248 36.4502 29.0906 36.5283 27.43C36.6031 25.7656 36.6226 25.235 36.6226 20.9971C36.6226 16.7593 36.6031 16.2274 36.5283 14.563C36.4502 12.9017 36.1867 11.7678 35.8028 10.7757C35.4026 9.74935 34.8691 8.87876 34.0004 8.01142C33.1318 7.14343 32.2632 6.61028 31.2351 6.21205C30.2396 5.82617 29.1042 5.56317 27.4418 5.4871C25.7761 5.41135 25.2458 5.39282 21.0034 5.39282H21.0083ZM19.6074 8.20486C20.0232 8.20421 20.4871 8.20486 21.0083 8.20486C25.1778 8.20486 25.6719 8.21981 27.3184 8.29458C28.841 8.36415 29.6673 8.61836 30.2178 8.83194C30.9466 9.11477 31.4661 9.45287 32.0123 9.99902C32.5589 10.5452 32.8972 11.0653 33.1809 11.7935C33.3947 12.3429 33.6494 13.1686 33.7187 14.6901C33.7935 16.335 33.8098 16.8292 33.8098 20.9936C33.8098 25.158 33.7935 25.6521 33.7187 27.2971C33.6491 28.8185 33.3947 29.6442 33.1809 30.1936C32.8979 30.9218 32.5589 31.4403 32.0123 31.9862C31.4658 32.5323 30.9469 32.8704 30.2178 33.1532C29.668 33.3678 28.841 33.6214 27.3184 33.6909C25.6723 33.7657 25.1778 33.7819 21.0083 33.7819C16.8386 33.7819 16.3444 33.7657 14.6982 33.6909C13.1757 33.6207 12.3493 33.3665 11.7985 33.1529C11.0698 32.8701 10.5492 32.532 10.0027 31.9858C9.45613 31.4397 9.11779 30.9208 8.83409 30.1923C8.62035 29.6429 8.36562 28.8172 8.29633 27.2958C8.2215 25.6508 8.20653 25.1567 8.20653 20.9897C8.20653 16.8227 8.2215 16.3311 8.29633 14.6862C8.36595 13.1647 8.62035 12.339 8.83409 11.789C9.11713 11.0608 9.45613 10.5406 10.0027 9.99448C10.5492 9.44832 11.0698 9.11023 11.7985 8.82675C12.349 8.61218 13.1757 8.35863 14.6982 8.28872C16.1388 8.2237 16.697 8.20421 19.6075 8.20094L19.6074 8.20486ZM29.344 10.7958C28.3094 10.7958 27.47 11.6336 27.47 12.6677C27.47 13.7015 28.3094 14.5402 29.344 14.5402C30.3785 14.5402 31.2179 13.7015 31.2179 12.6677C31.2179 11.6339 30.3785 10.7952 29.344 10.7952L29.344 10.7958ZM21.0083 12.9837C16.5796 12.9837 12.9889 16.5717 12.9889 20.9971C12.9889 25.4226 16.5796 29.009 21.0083 29.009C25.4371 29.009 29.0264 25.4226 29.0264 20.9971C29.0264 16.5717 25.4367 12.9837 21.008 12.9837H21.0083ZM21.0083 15.7957C23.8829 15.7957 26.2136 18.1243 26.2136 20.9971C26.2136 23.8696 23.8829 26.1986 21.0083 26.1986C18.1334 26.1986 15.803 23.8696 15.803 20.9971C15.803 18.1243 18.1334 15.7957 21.0083 15.7957Z" fill="white"/>
</g>
<defs>
<radialGradient id="paint0_radial_320_2147" cx="0" cy="0" r="1" gradientTransform="matrix(-25.8281 7.28413 -5.24795 -18.6079 40.6438 19.6859)" gradientUnits="userSpaceOnUse">
<stop stop-color="#FF005F"/>
<stop offset="1" stop-color="#FC01D8"/>
</radialGradient>
<radialGradient id="paint1_radial_320_2147" cx="0" cy="0" r="1" gradientUnits="userSpaceOnUse" gradientTransform="translate(11.1559 45.2349) rotate(-90) scale(33.5252 35.5695)">
<stop stop-color="#FFCC00"/>
<stop offset="0.1242" stop-color="#FFCC00"/>
<stop offset="0.5672" stop-color="#FE4A05"/>
<stop offset="0.6942" stop-color="#FF0F3F"/>
<stop offset="1" stop-color="#FE0657" stop-opacity="0"/>
</radialGradient>
<radialGradient id="paint2_radial_320_2147" cx="0" cy="0" r="1" gradientTransform="matrix(6.95864 -11.99 15.6095 9.0594 22.0613 41.4077)" gradientUnits="userSpaceOnUse">
<stop stop-color="#FFCC00"/>
<stop offset="1" stop-color="#FFCC00" stop-opacity="0"/>
</radialGradient>
<radialGradient id="paint3_radial_320_2147" cx="0" cy="0" r="1" gradientTransform="matrix(-25.5446 7.19292 -2.45 -8.70319 5.6985 1.71023)" gradientUnits="userSpaceOnUse">
<stop stop-color="#780CFF"/>
<stop offset="1" stop-color="#820BFF" stop-opacity="0"/>
</radialGradient>
<clipPath id="clip0_320_2147">
<rect width="42" height="42" fill="white"/>
</clipPath>
</defs>
</svg>
