<svg width="83" height="25" viewBox="0 0 83 25" fill="none" xmlns="http://www.w3.org/2000/svg">
<path d="M19.3794 0.0339345C19.3996 0.0105642 19.437 0.0354552 19.4233 0.0632313C17.6367 3.69174 15.8496 7.32046 14.063 10.949C15.6664 10.9502 17.2701 10.9517 18.8735 10.9529C18.8864 10.9529 18.8924 10.9646 18.8843 10.9744C15.7501 14.5894 12.6152 18.205 9.48096 21.8201C8.76702 22.6435 8.05232 23.4673 7.33838 24.2908C7.30762 24.352 7.27734 24.4141 7.24658 24.4753C7.23101 24.4675 7.21527 24.4597 7.19971 24.4519C7.17921 24.4746 7.13946 24.455 7.15283 24.4275C7.67545 23.3914 8.19858 22.3552 8.72119 21.3191C10.0311 18.7222 11.34 16.124 12.6499 13.5271C11.0611 13.5259 9.47206 13.5254 7.8833 13.5242C7.84548 13.524 7.82871 13.4876 7.85303 13.4587C11.6951 8.98404 15.5373 4.50863 19.3794 0.0339345ZM6.47314 2.0271H2.98291V22.4753H6.47314V24.4509H0.899902V0.0515126H6.47314V2.0271ZM25.8003 24.4509H20.4146V22.4753H23.7173V2.0271H20.4146V0.0515126H25.8003V24.4509Z" fill="#9CA3AF"/>
<path d="M30.751 19.75V17.1035L37.387 9.3615C37.6898 9.006 37.9927 8.6505 38.2955 8.295C38.6115 7.9395 38.9538 7.584 39.3225 7.2285V6.7545H31.462V4.345H43.075V6.9915L36.3995 14.7532C36.1098 15.0956 35.807 15.4445 35.491 15.8C35.175 16.1555 34.8327 16.511 34.464 16.8665V17.3405H43.233V19.75H30.751ZM48.4516 20.0068C47.372 20.0068 46.4766 19.7434 45.7656 19.2167C45.0546 18.6901 44.5214 17.9593 44.1659 17.0245C43.8235 16.0897 43.6524 15.0166 43.6524 13.8052C43.6524 12.5676 43.8301 11.4879 44.1856 10.5662C44.5411 9.64458 45.0744 8.927 45.7854 8.4135C46.4964 7.9 47.3851 7.64325 48.4516 7.64325C49.2943 7.64325 49.979 7.81442 50.5056 8.15675C51.0455 8.48592 51.447 8.91383 51.7104 9.4405H52.1844V7.9H54.8704V19.75H52.1844V18.2095H51.7104C51.447 18.6967 51.052 19.118 50.5254 19.4735C49.9987 19.829 49.3075 20.0068 48.4516 20.0068ZM49.1626 17.8737C50.0185 17.8737 50.6965 17.5117 51.1969 16.7875C51.7104 16.0502 51.9671 15.0627 51.9671 13.825C51.9671 12.5873 51.7104 11.6064 51.1969 10.8822C50.6965 10.1449 50.0185 9.77625 49.1626 9.77625C48.3858 9.77625 47.7735 10.1186 47.3259 10.8032C46.8914 11.4879 46.6741 12.4952 46.6741 13.825C46.6741 15.1548 46.8914 16.1621 47.3259 16.8467C47.7735 17.5314 48.3858 17.8737 49.1626 17.8737ZM57.1817 19.75V7.9H59.848V10.033H60.322C60.401 9.65117 60.5458 9.28908 60.7565 8.94675C60.9672 8.60442 61.2963 8.32792 61.744 8.11725C62.1917 7.89342 62.7907 7.7815 63.5412 7.7815H64.114V10.4477H63.324C62.1917 10.4477 61.3687 10.7374 60.8552 11.3167C60.3549 11.8961 60.1047 12.7717 60.1047 13.9435V19.75H57.1817ZM65.5169 23.7V7.9H68.2029V9.4405H68.6769C68.9402 8.95333 69.3352 8.532 69.8619 8.1765C70.4017 7.821 71.1127 7.64325 71.9949 7.64325C73.0614 7.64325 73.9435 7.90658 74.6414 8.43325C75.3392 8.95992 75.8659 9.69067 76.2214 10.6255C76.5769 11.5472 76.7546 12.6202 76.7546 13.8447C76.7546 15.0692 76.5769 16.1489 76.2214 17.0837C75.8659 18.0054 75.3326 18.723 74.6216 19.2365C73.9238 19.75 73.0548 20.0068 72.0146 20.0068C71.2378 20.0068 70.5992 19.8619 70.0989 19.5722C69.5985 19.2826 69.2035 18.8942 68.9139 18.407H68.4399V23.7H65.5169ZM71.2246 17.8737C72.0146 17.8737 72.6269 17.5314 73.0614 16.8467C73.4959 16.1621 73.7131 15.1548 73.7131 13.825C73.7131 12.4952 73.4959 11.4879 73.0614 10.8032C72.6269 10.1186 72.0146 9.77625 71.2246 9.77625C70.3688 9.77625 69.6907 10.1449 69.1904 10.8822C68.69 11.6064 68.4399 12.5873 68.4399 13.825C68.4399 15.0627 68.69 16.0502 69.1904 16.7875C69.6907 17.5117 70.3688 17.8737 71.2246 17.8737Z" fill="#9CA3AF"/>
<path d="M80.7937 5.50001L79.775 3.20001H80.1875L80.9 4.88751L81.6125 3.20001H82.025L81.0063 5.50001H80.7937ZM79.7 5.50001V3.20001H80.1V5.50001H79.7ZM81.7 5.50001V3.20001H82.1V5.50001H81.7ZM78.2 5.50001V3.40001H78.6V5.50001H78.2ZM77.5 3.55001V3.20001H79.3V3.55001H77.5Z" fill="#9CA3AF"/>
</svg>
