<svg width="104" height="52" viewBox="0 0 104 52" fill="none" xmlns="http://www.w3.org/2000/svg">
<mask id="path-1-outside-1_292_1005" maskUnits="userSpaceOnUse" x="-0.00390625" y="-0.453857" width="43" height="13" fill="black">
<rect fill="white" x="-0.00390625" y="-0.453857" width="43" height="13"/>
<path d="M27.5336 10.7571C27.394 10.847 27.2664 10.9293 27.1414 11.0098C26.9486 10.7415 26.7697 10.4743 26.5725 10.2217C26.1897 9.73098 25.6974 9.38824 25.1225 9.15119C24.3351 8.8262 23.5197 8.61268 22.6757 8.51644C22.1896 8.46108 21.7034 8.46475 21.2196 8.5743C20.8497 8.65782 20.5604 8.8667 20.2829 9.1051C20.0616 9.29527 19.8456 9.49259 19.6162 9.67235C19.2582 9.9524 18.8385 10.1063 18.4076 10.2334C18.0592 10.336 17.7121 10.4427 17.3652 10.5497C17.3032 10.5688 17.2444 10.5993 17.1801 10.6261C17.2065 10.8637 17.2323 11.0977 17.2606 11.3546C16.524 11.0076 15.8378 10.6034 15.0685 10.4547C15.049 10.115 15.0303 9.79039 15.0113 9.4625C14.424 9.20867 14.074 8.71992 13.7662 8.20899C13.4309 7.65177 13.0119 7.19658 12.431 6.90245C11.7721 6.56858 11.1093 6.24223 10.4461 5.91704C9.95362 5.67536 9.44551 5.47149 8.9164 5.32394C8.3819 5.17485 7.83835 5.0705 7.28536 5.02325C6.92999 4.99278 6.57385 4.96751 6.21751 4.95767C5.61579 4.94051 5.01368 4.92758 4.41177 4.93086C3.6912 4.93491 2.97083 4.95767 2.25026 4.97233C2.20885 4.97291 2.16744 4.97233 2.11659 4.97233C2.1008 4.9243 2.08924 4.87975 2.07171 4.8377C2.03126 4.74068 2.00199 4.6348 1.94228 4.5509C1.84115 4.40894 1.79011 4.261 1.78607 4.08587C1.7826 3.92617 1.74581 3.76743 1.73425 3.60754C1.72713 3.50724 1.71518 3.39595 1.74947 3.30684C1.79473 3.18938 1.76276 3.10258 1.71557 3.00325C1.6339 2.83198 1.60482 2.6474 1.64411 2.46281C1.66433 2.36753 1.64122 2.30465 1.58613 2.23503C1.3627 1.95246 1.18049 1.64637 1.07186 1.29957C0.988263 1.03283 0.976707 0.763378 1.02313 0.4866C1.31628 0.377818 1.61541 0.330176 1.91647 0.301246C2.57251 0.237982 3.22392 0.294496 3.87418 0.386883C4.3274 0.451303 4.78158 0.50743 5.23634 0.558736C5.41932 0.579373 5.60481 0.580917 5.78933 0.584774C6.30766 0.595962 6.82598 0.610812 7.3443 0.610427C7.95238 0.609848 8.56046 0.595382 9.16853 0.585545C9.50214 0.580145 9.83594 0.559507 10.1692 0.566451C10.6987 0.57783 11.2283 0.60059 11.7573 0.629907C12.2796 0.659031 12.8016 0.698185 13.3232 0.740232C13.9215 0.788645 14.5187 0.848243 15.117 0.896462C15.5377 0.930216 15.9591 0.956833 16.3805 0.980171C16.8854 1.00814 17.3906 1.02916 17.8956 1.05385C17.9068 1.05424 17.9176 1.06137 17.9432 1.07121C17.9501 1.23014 17.9559 1.39543 17.965 1.56034C17.9892 2.00705 18.0073 2.45587 18.1759 2.8775C18.2506 3.06478 18.3564 3.23991 18.4452 3.4216C18.4791 3.49065 18.5301 3.51091 18.6043 3.50801C18.8602 3.49856 19.1166 3.48911 19.3728 3.48892C20.6263 3.48699 21.8798 3.48564 23.1334 3.48872C23.8314 3.49046 24.5298 3.48602 25.2271 3.51129C25.8642 3.53444 26.4908 3.64978 27.1116 3.79655C27.7314 3.94314 28.3516 4.09088 28.9765 4.21336C29.474 4.31076 29.9802 4.32754 30.4875 4.28164C30.7481 4.25792 31.0103 4.2556 31.2713 4.23612C31.9425 4.18617 32.6145 4.15492 33.2879 4.169C33.9553 4.18289 34.6227 4.19562 35.2901 4.21085C35.3421 4.21201 35.3936 4.22937 35.4558 4.24114C35.4456 4.36535 35.4417 4.48319 35.4253 4.59911C35.3421 5.18932 35.6528 5.68752 36.1205 5.9452C36.1313 5.87769 36.1542 5.81887 36.1478 5.76332C36.082 5.17813 36.002 4.5941 35.9454 4.00814C35.9115 3.65826 35.9415 3.30723 36.0213 2.93845C36.1168 2.94925 36.2095 2.956 36.3004 2.97104C36.5377 3.01 36.6305 2.95041 36.6862 2.71741C36.6902 2.70024 36.6947 2.68269 36.6977 2.66514C36.7792 2.22712 37.0229 2.20918 37.3366 2.29173C37.66 2.37679 37.9308 2.56427 38.1687 2.79572C38.3351 2.95793 38.4991 3.12438 38.6489 3.30221C38.7215 3.38823 38.7814 3.39807 38.8758 3.35718C39.0235 3.29315 39.174 3.23606 39.3246 3.17974C39.5964 3.07809 39.8757 3.00711 40.1615 3.10355C40.5461 3.23335 40.5583 3.3404 40.5802 3.68025C40.5993 3.97767 40.587 4.27701 40.6008 4.575C40.6503 5.63756 40.7811 6.6872 41.1103 7.70443C41.1321 7.77136 41.1531 7.84349 41.1513 7.91273C41.1226 9.06112 41.3921 10.1472 41.8289 11.199C41.8494 11.248 41.8677 11.2977 41.8937 11.3643C41.7521 11.4235 41.6175 11.48 41.4597 11.5461C41.3613 11.29 41.2613 11.0489 41.1752 10.8032C40.9799 10.2454 40.8195 9.67698 40.7532 9.08832C40.7164 8.76332 40.7178 8.43427 40.696 8.10735C40.6891 8.00184 40.6746 7.89402 40.644 7.79334C40.45 7.15261 40.3146 6.5003 40.2349 5.83545C40.1544 5.16598 40.1278 4.49342 40.1282 3.81989C40.1284 3.51611 39.9683 3.48834 39.7817 3.54119C39.5646 3.60252 39.3554 3.69086 39.142 3.76473C38.9698 3.82452 38.8007 3.89203 38.6087 3.85615C38.5056 3.83687 38.4382 3.78633 38.375 3.70918C38.1258 3.40386 37.86 3.11435 37.5264 2.89814C37.4231 2.83121 37.3087 2.78125 37.212 2.73033C37.1184 2.91299 37.052 3.09101 36.9445 3.23914C36.826 3.40232 36.6278 3.43858 36.4192 3.44957C36.4192 3.69549 36.4019 3.93369 36.4231 4.16842C36.4593 4.57134 36.5192 4.97214 36.5696 5.37371C36.5874 5.51547 36.6053 5.65743 36.6251 5.79881C36.6465 5.95021 36.6047 6.08484 36.5107 6.19999C36.4096 6.3242 36.2996 6.44089 36.1871 6.56819C35.4363 6.15621 34.9153 5.60169 34.9415 4.68205C34.9037 4.67704 34.881 4.67183 34.8583 4.67144C34.1672 4.65621 33.4759 4.62901 32.7848 4.63132C32.3212 4.63306 31.8572 4.66932 31.3943 4.70307C30.6923 4.75399 29.989 4.78524 29.2875 4.73008C28.9169 4.70095 28.5492 4.61435 28.1842 4.53624C27.497 4.38907 26.8144 4.22011 26.1262 4.07893C25.8536 4.0228 25.5713 3.99927 25.2924 3.99155C24.5953 3.97207 23.8976 3.96706 23.2002 3.96224C22.0663 3.95433 20.9324 3.9497 19.7986 3.947C19.4348 3.94623 19.071 3.95471 18.7071 3.96243C18.5944 3.96494 18.4818 3.9767 18.3697 3.98924C18.2876 3.9985 18.2364 3.96224 18.1909 3.89859C17.864 3.43973 17.6391 2.93825 17.5672 2.37602C17.5393 2.15807 17.5327 1.93722 17.5143 1.71792C17.5091 1.65389 17.4967 1.59043 17.4869 1.52196C17.3182 1.50807 17.1595 1.49303 17.0006 1.48242C16.4605 1.44558 15.9204 1.41125 15.3807 1.37422C14.9833 1.34702 14.5862 1.31886 14.1892 1.2882C13.7864 1.25714 13.3841 1.22011 12.9811 1.19041C12.5897 1.16148 12.1972 1.14585 11.8064 1.11152C10.7233 1.01624 9.63774 1.05019 8.55294 1.04749C7.75976 1.04575 6.96639 1.06253 6.17321 1.06253C5.46998 1.06253 4.77234 0.987115 4.07604 0.891063C3.67618 0.835899 3.27208 0.809668 2.87163 0.757205C2.42901 0.69915 1.99486 0.756628 1.56052 0.82857C1.5376 0.832428 1.51564 0.841493 1.48482 0.850558C1.45516 1.00563 1.50697 1.14431 1.5636 1.28048C1.70247 1.61435 1.91184 1.90231 2.15049 2.1708C2.17745 2.20108 2.20134 2.23445 2.22407 2.26319C2.03627 2.64103 2.03588 2.7232 2.38721 3.15293C2.36583 3.18224 2.34618 3.21812 2.31826 3.24531C2.19325 3.36663 2.17784 3.51245 2.21155 3.67369C2.22734 3.74949 2.25084 3.83089 2.23813 3.90379C2.19749 4.13467 2.34233 4.28608 2.45482 4.45118C2.47293 4.4776 2.52512 4.49342 2.56153 4.49323C3.00858 4.48879 3.45544 4.4803 3.9025 4.47336C3.96818 4.4722 4.03386 4.47259 4.09954 4.47259C4.79198 4.47239 5.48481 4.456 6.17668 4.47625C7.32889 4.50962 8.47012 4.63962 9.56127 5.03714C10.064 5.22037 10.5565 5.43639 11.0402 5.66572C11.5891 5.92572 12.1203 6.22313 12.6641 6.49413C13.3159 6.81932 13.7866 7.32716 14.1661 7.93626C14.3013 8.15287 14.455 8.35866 14.6081 8.5635C14.8077 8.83044 15.0737 9.00249 15.3971 9.08504C15.4254 9.09217 15.4527 9.10394 15.4795 9.11551C15.4897 9.11995 15.4972 9.13056 15.5196 9.15062C15.4038 9.45478 15.5238 9.76223 15.5329 10.0625C15.9144 10.2166 16.2831 10.3655 16.6643 10.5195C16.6417 10.3617 16.7505 10.3119 16.8657 10.2539C17.2683 10.0512 17.6999 9.93601 18.1314 9.82067C18.56 9.7061 18.9795 9.57012 19.3341 9.29334C19.5498 9.12535 19.7499 8.93749 19.9564 8.75753C20.2858 8.46995 20.6386 8.21536 21.0682 8.1085C21.3024 8.05045 21.5483 8.03405 21.7901 8.01207C22.3639 7.96018 22.9327 8.02537 23.4887 8.15325C24.3366 8.34825 25.1714 8.58992 25.9343 9.0293C26.3706 9.28061 26.7185 9.62876 27.0207 10.0242C27.1971 10.2554 27.3552 10.5009 27.5336 10.7571Z"/>
</mask>
<path d="M27.5336 10.7571C27.394 10.847 27.2664 10.9293 27.1414 11.0098C26.9486 10.7415 26.7697 10.4743 26.5725 10.2217C26.1897 9.73098 25.6974 9.38824 25.1225 9.15119C24.3351 8.8262 23.5197 8.61268 22.6757 8.51644C22.1896 8.46108 21.7034 8.46475 21.2196 8.5743C20.8497 8.65782 20.5604 8.8667 20.2829 9.1051C20.0616 9.29527 19.8456 9.49259 19.6162 9.67235C19.2582 9.9524 18.8385 10.1063 18.4076 10.2334C18.0592 10.336 17.7121 10.4427 17.3652 10.5497C17.3032 10.5688 17.2444 10.5993 17.1801 10.6261C17.2065 10.8637 17.2323 11.0977 17.2606 11.3546C16.524 11.0076 15.8378 10.6034 15.0685 10.4547C15.049 10.115 15.0303 9.79039 15.0113 9.4625C14.424 9.20867 14.074 8.71992 13.7662 8.20899C13.4309 7.65177 13.0119 7.19658 12.431 6.90245C11.7721 6.56858 11.1093 6.24223 10.4461 5.91704C9.95362 5.67536 9.44551 5.47149 8.9164 5.32394C8.3819 5.17485 7.83835 5.0705 7.28536 5.02325C6.92999 4.99278 6.57385 4.96751 6.21751 4.95767C5.61579 4.94051 5.01368 4.92758 4.41177 4.93086C3.6912 4.93491 2.97083 4.95767 2.25026 4.97233C2.20885 4.97291 2.16744 4.97233 2.11659 4.97233C2.1008 4.9243 2.08924 4.87975 2.07171 4.8377C2.03126 4.74068 2.00199 4.6348 1.94228 4.5509C1.84115 4.40894 1.79011 4.261 1.78607 4.08587C1.7826 3.92617 1.74581 3.76743 1.73425 3.60754C1.72713 3.50724 1.71518 3.39595 1.74947 3.30684C1.79473 3.18938 1.76276 3.10258 1.71557 3.00325C1.6339 2.83198 1.60482 2.6474 1.64411 2.46281C1.66433 2.36753 1.64122 2.30465 1.58613 2.23503C1.3627 1.95246 1.18049 1.64637 1.07186 1.29957C0.988263 1.03283 0.976707 0.763378 1.02313 0.4866C1.31628 0.377818 1.61541 0.330176 1.91647 0.301246C2.57251 0.237982 3.22392 0.294496 3.87418 0.386883C4.3274 0.451303 4.78158 0.50743 5.23634 0.558736C5.41932 0.579373 5.60481 0.580917 5.78933 0.584774C6.30766 0.595962 6.82598 0.610812 7.3443 0.610427C7.95238 0.609848 8.56046 0.595382 9.16853 0.585545C9.50214 0.580145 9.83594 0.559507 10.1692 0.566451C10.6987 0.57783 11.2283 0.60059 11.7573 0.629907C12.2796 0.659031 12.8016 0.698185 13.3232 0.740232C13.9215 0.788645 14.5187 0.848243 15.117 0.896462C15.5377 0.930216 15.9591 0.956833 16.3805 0.980171C16.8854 1.00814 17.3906 1.02916 17.8956 1.05385C17.9068 1.05424 17.9176 1.06137 17.9432 1.07121C17.9501 1.23014 17.9559 1.39543 17.965 1.56034C17.9892 2.00705 18.0073 2.45587 18.1759 2.8775C18.2506 3.06478 18.3564 3.23991 18.4452 3.4216C18.4791 3.49065 18.5301 3.51091 18.6043 3.50801C18.8602 3.49856 19.1166 3.48911 19.3728 3.48892C20.6263 3.48699 21.8798 3.48564 23.1334 3.48872C23.8314 3.49046 24.5298 3.48602 25.2271 3.51129C25.8642 3.53444 26.4908 3.64978 27.1116 3.79655C27.7314 3.94314 28.3516 4.09088 28.9765 4.21336C29.474 4.31076 29.9802 4.32754 30.4875 4.28164C30.7481 4.25792 31.0103 4.2556 31.2713 4.23612C31.9425 4.18617 32.6145 4.15492 33.2879 4.169C33.9553 4.18289 34.6227 4.19562 35.2901 4.21085C35.3421 4.21201 35.3936 4.22937 35.4558 4.24114C35.4456 4.36535 35.4417 4.48319 35.4253 4.59911C35.3421 5.18932 35.6528 5.68752 36.1205 5.9452C36.1313 5.87769 36.1542 5.81887 36.1478 5.76332C36.082 5.17813 36.002 4.5941 35.9454 4.00814C35.9115 3.65826 35.9415 3.30723 36.0213 2.93845C36.1168 2.94925 36.2095 2.956 36.3004 2.97104C36.5377 3.01 36.6305 2.95041 36.6862 2.71741C36.6902 2.70024 36.6947 2.68269 36.6977 2.66514C36.7792 2.22712 37.0229 2.20918 37.3366 2.29173C37.66 2.37679 37.9308 2.56427 38.1687 2.79572C38.3351 2.95793 38.4991 3.12438 38.6489 3.30221C38.7215 3.38823 38.7814 3.39807 38.8758 3.35718C39.0235 3.29315 39.174 3.23606 39.3246 3.17974C39.5964 3.07809 39.8757 3.00711 40.1615 3.10355C40.5461 3.23335 40.5583 3.3404 40.5802 3.68025C40.5993 3.97767 40.587 4.27701 40.6008 4.575C40.6503 5.63756 40.7811 6.6872 41.1103 7.70443C41.1321 7.77136 41.1531 7.84349 41.1513 7.91273C41.1226 9.06112 41.3921 10.1472 41.8289 11.199C41.8494 11.248 41.8677 11.2977 41.8937 11.3643C41.7521 11.4235 41.6175 11.48 41.4597 11.5461C41.3613 11.29 41.2613 11.0489 41.1752 10.8032C40.9799 10.2454 40.8195 9.67698 40.7532 9.08832C40.7164 8.76332 40.7178 8.43427 40.696 8.10735C40.6891 8.00184 40.6746 7.89402 40.644 7.79334C40.45 7.15261 40.3146 6.5003 40.2349 5.83545C40.1544 5.16598 40.1278 4.49342 40.1282 3.81989C40.1284 3.51611 39.9683 3.48834 39.7817 3.54119C39.5646 3.60252 39.3554 3.69086 39.142 3.76473C38.9698 3.82452 38.8007 3.89203 38.6087 3.85615C38.5056 3.83687 38.4382 3.78633 38.375 3.70918C38.1258 3.40386 37.86 3.11435 37.5264 2.89814C37.4231 2.83121 37.3087 2.78125 37.212 2.73033C37.1184 2.91299 37.052 3.09101 36.9445 3.23914C36.826 3.40232 36.6278 3.43858 36.4192 3.44957C36.4192 3.69549 36.4019 3.93369 36.4231 4.16842C36.4593 4.57134 36.5192 4.97214 36.5696 5.37371C36.5874 5.51547 36.6053 5.65743 36.6251 5.79881C36.6465 5.95021 36.6047 6.08484 36.5107 6.19999C36.4096 6.3242 36.2996 6.44089 36.1871 6.56819C35.4363 6.15621 34.9153 5.60169 34.9415 4.68205C34.9037 4.67704 34.881 4.67183 34.8583 4.67144C34.1672 4.65621 33.4759 4.62901 32.7848 4.63132C32.3212 4.63306 31.8572 4.66932 31.3943 4.70307C30.6923 4.75399 29.989 4.78524 29.2875 4.73008C28.9169 4.70095 28.5492 4.61435 28.1842 4.53624C27.497 4.38907 26.8144 4.22011 26.1262 4.07893C25.8536 4.0228 25.5713 3.99927 25.2924 3.99155C24.5953 3.97207 23.8976 3.96706 23.2002 3.96224C22.0663 3.95433 20.9324 3.9497 19.7986 3.947C19.4348 3.94623 19.071 3.95471 18.7071 3.96243C18.5944 3.96494 18.4818 3.9767 18.3697 3.98924C18.2876 3.9985 18.2364 3.96224 18.1909 3.89859C17.864 3.43973 17.6391 2.93825 17.5672 2.37602C17.5393 2.15807 17.5327 1.93722 17.5143 1.71792C17.5091 1.65389 17.4967 1.59043 17.4869 1.52196C17.3182 1.50807 17.1595 1.49303 17.0006 1.48242C16.4605 1.44558 15.9204 1.41125 15.3807 1.37422C14.9833 1.34702 14.5862 1.31886 14.1892 1.2882C13.7864 1.25714 13.3841 1.22011 12.9811 1.19041C12.5897 1.16148 12.1972 1.14585 11.8064 1.11152C10.7233 1.01624 9.63774 1.05019 8.55294 1.04749C7.75976 1.04575 6.96639 1.06253 6.17321 1.06253C5.46998 1.06253 4.77234 0.987115 4.07604 0.891063C3.67618 0.835899 3.27208 0.809668 2.87163 0.757205C2.42901 0.69915 1.99486 0.756628 1.56052 0.82857C1.5376 0.832428 1.51564 0.841493 1.48482 0.850558C1.45516 1.00563 1.50697 1.14431 1.5636 1.28048C1.70247 1.61435 1.91184 1.90231 2.15049 2.1708C2.17745 2.20108 2.20134 2.23445 2.22407 2.26319C2.03627 2.64103 2.03588 2.7232 2.38721 3.15293C2.36583 3.18224 2.34618 3.21812 2.31826 3.24531C2.19325 3.36663 2.17784 3.51245 2.21155 3.67369C2.22734 3.74949 2.25084 3.83089 2.23813 3.90379C2.19749 4.13467 2.34233 4.28608 2.45482 4.45118C2.47293 4.4776 2.52512 4.49342 2.56153 4.49323C3.00858 4.48879 3.45544 4.4803 3.9025 4.47336C3.96818 4.4722 4.03386 4.47259 4.09954 4.47259C4.79198 4.47239 5.48481 4.456 6.17668 4.47625C7.32889 4.50962 8.47012 4.63962 9.56127 5.03714C10.064 5.22037 10.5565 5.43639 11.0402 5.66572C11.5891 5.92572 12.1203 6.22313 12.6641 6.49413C13.3159 6.81932 13.7866 7.32716 14.1661 7.93626C14.3013 8.15287 14.455 8.35866 14.6081 8.5635C14.8077 8.83044 15.0737 9.00249 15.3971 9.08504C15.4254 9.09217 15.4527 9.10394 15.4795 9.11551C15.4897 9.11995 15.4972 9.13056 15.5196 9.15062C15.4038 9.45478 15.5238 9.76223 15.5329 10.0625C15.9144 10.2166 16.2831 10.3655 16.6643 10.5195C16.6417 10.3617 16.7505 10.3119 16.8657 10.2539C17.2683 10.0512 17.6999 9.93601 18.1314 9.82067C18.56 9.7061 18.9795 9.57012 19.3341 9.29334C19.5498 9.12535 19.7499 8.93749 19.9564 8.75753C20.2858 8.46995 20.6386 8.21536 21.0682 8.1085C21.3024 8.05045 21.5483 8.03405 21.7901 8.01207C22.3639 7.96018 22.9327 8.02537 23.4887 8.15325C24.3366 8.34825 25.1714 8.58992 25.9343 9.0293C26.3706 9.28061 26.7185 9.62876 27.0207 10.0242C27.1971 10.2554 27.3552 10.5009 27.5336 10.7571Z" fill="#FF6200"/>
<path d="M27.5336 10.7571C27.394 10.847 27.2664 10.9293 27.1414 11.0098C26.9486 10.7415 26.7697 10.4743 26.5725 10.2217C26.1897 9.73098 25.6974 9.38824 25.1225 9.15119C24.3351 8.8262 23.5197 8.61268 22.6757 8.51644C22.1896 8.46108 21.7034 8.46475 21.2196 8.5743C20.8497 8.65782 20.5604 8.8667 20.2829 9.1051C20.0616 9.29527 19.8456 9.49259 19.6162 9.67235C19.2582 9.9524 18.8385 10.1063 18.4076 10.2334C18.0592 10.336 17.7121 10.4427 17.3652 10.5497C17.3032 10.5688 17.2444 10.5993 17.1801 10.6261C17.2065 10.8637 17.2323 11.0977 17.2606 11.3546C16.524 11.0076 15.8378 10.6034 15.0685 10.4547C15.049 10.115 15.0303 9.79039 15.0113 9.4625C14.424 9.20867 14.074 8.71992 13.7662 8.20899C13.4309 7.65177 13.0119 7.19658 12.431 6.90245C11.7721 6.56858 11.1093 6.24223 10.4461 5.91704C9.95362 5.67536 9.44551 5.47149 8.9164 5.32394C8.3819 5.17485 7.83835 5.0705 7.28536 5.02325C6.92999 4.99278 6.57385 4.96751 6.21751 4.95767C5.61579 4.94051 5.01368 4.92758 4.41177 4.93086C3.6912 4.93491 2.97083 4.95767 2.25026 4.97233C2.20885 4.97291 2.16744 4.97233 2.11659 4.97233C2.1008 4.9243 2.08924 4.87975 2.07171 4.8377C2.03126 4.74068 2.00199 4.6348 1.94228 4.5509C1.84115 4.40894 1.79011 4.261 1.78607 4.08587C1.7826 3.92617 1.74581 3.76743 1.73425 3.60754C1.72713 3.50724 1.71518 3.39595 1.74947 3.30684C1.79473 3.18938 1.76276 3.10258 1.71557 3.00325C1.6339 2.83198 1.60482 2.6474 1.64411 2.46281C1.66433 2.36753 1.64122 2.30465 1.58613 2.23503C1.3627 1.95246 1.18049 1.64637 1.07186 1.29957C0.988263 1.03283 0.976707 0.763378 1.02313 0.4866C1.31628 0.377818 1.61541 0.330176 1.91647 0.301246C2.57251 0.237982 3.22392 0.294496 3.87418 0.386883C4.3274 0.451303 4.78158 0.50743 5.23634 0.558736C5.41932 0.579373 5.60481 0.580917 5.78933 0.584774C6.30766 0.595962 6.82598 0.610812 7.3443 0.610427C7.95238 0.609848 8.56046 0.595382 9.16853 0.585545C9.50214 0.580145 9.83594 0.559507 10.1692 0.566451C10.6987 0.57783 11.2283 0.60059 11.7573 0.629907C12.2796 0.659031 12.8016 0.698185 13.3232 0.740232C13.9215 0.788645 14.5187 0.848243 15.117 0.896462C15.5377 0.930216 15.9591 0.956833 16.3805 0.980171C16.8854 1.00814 17.3906 1.02916 17.8956 1.05385C17.9068 1.05424 17.9176 1.06137 17.9432 1.07121C17.9501 1.23014 17.9559 1.39543 17.965 1.56034C17.9892 2.00705 18.0073 2.45587 18.1759 2.8775C18.2506 3.06478 18.3564 3.23991 18.4452 3.4216C18.4791 3.49065 18.5301 3.51091 18.6043 3.50801C18.8602 3.49856 19.1166 3.48911 19.3728 3.48892C20.6263 3.48699 21.8798 3.48564 23.1334 3.48872C23.8314 3.49046 24.5298 3.48602 25.2271 3.51129C25.8642 3.53444 26.4908 3.64978 27.1116 3.79655C27.7314 3.94314 28.3516 4.09088 28.9765 4.21336C29.474 4.31076 29.9802 4.32754 30.4875 4.28164C30.7481 4.25792 31.0103 4.2556 31.2713 4.23612C31.9425 4.18617 32.6145 4.15492 33.2879 4.169C33.9553 4.18289 34.6227 4.19562 35.2901 4.21085C35.3421 4.21201 35.3936 4.22937 35.4558 4.24114C35.4456 4.36535 35.4417 4.48319 35.4253 4.59911C35.3421 5.18932 35.6528 5.68752 36.1205 5.9452C36.1313 5.87769 36.1542 5.81887 36.1478 5.76332C36.082 5.17813 36.002 4.5941 35.9454 4.00814C35.9115 3.65826 35.9415 3.30723 36.0213 2.93845C36.1168 2.94925 36.2095 2.956 36.3004 2.97104C36.5377 3.01 36.6305 2.95041 36.6862 2.71741C36.6902 2.70024 36.6947 2.68269 36.6977 2.66514C36.7792 2.22712 37.0229 2.20918 37.3366 2.29173C37.66 2.37679 37.9308 2.56427 38.1687 2.79572C38.3351 2.95793 38.4991 3.12438 38.6489 3.30221C38.7215 3.38823 38.7814 3.39807 38.8758 3.35718C39.0235 3.29315 39.174 3.23606 39.3246 3.17974C39.5964 3.07809 39.8757 3.00711 40.1615 3.10355C40.5461 3.23335 40.5583 3.3404 40.5802 3.68025C40.5993 3.97767 40.587 4.27701 40.6008 4.575C40.6503 5.63756 40.7811 6.6872 41.1103 7.70443C41.1321 7.77136 41.1531 7.84349 41.1513 7.91273C41.1226 9.06112 41.3921 10.1472 41.8289 11.199C41.8494 11.248 41.8677 11.2977 41.8937 11.3643C41.7521 11.4235 41.6175 11.48 41.4597 11.5461C41.3613 11.29 41.2613 11.0489 41.1752 10.8032C40.9799 10.2454 40.8195 9.67698 40.7532 9.08832C40.7164 8.76332 40.7178 8.43427 40.696 8.10735C40.6891 8.00184 40.6746 7.89402 40.644 7.79334C40.45 7.15261 40.3146 6.5003 40.2349 5.83545C40.1544 5.16598 40.1278 4.49342 40.1282 3.81989C40.1284 3.51611 39.9683 3.48834 39.7817 3.54119C39.5646 3.60252 39.3554 3.69086 39.142 3.76473C38.9698 3.82452 38.8007 3.89203 38.6087 3.85615C38.5056 3.83687 38.4382 3.78633 38.375 3.70918C38.1258 3.40386 37.86 3.11435 37.5264 2.89814C37.4231 2.83121 37.3087 2.78125 37.212 2.73033C37.1184 2.91299 37.052 3.09101 36.9445 3.23914C36.826 3.40232 36.6278 3.43858 36.4192 3.44957C36.4192 3.69549 36.4019 3.93369 36.4231 4.16842C36.4593 4.57134 36.5192 4.97214 36.5696 5.37371C36.5874 5.51547 36.6053 5.65743 36.6251 5.79881C36.6465 5.95021 36.6047 6.08484 36.5107 6.19999C36.4096 6.3242 36.2996 6.44089 36.1871 6.56819C35.4363 6.15621 34.9153 5.60169 34.9415 4.68205C34.9037 4.67704 34.881 4.67183 34.8583 4.67144C34.1672 4.65621 33.4759 4.62901 32.7848 4.63132C32.3212 4.63306 31.8572 4.66932 31.3943 4.70307C30.6923 4.75399 29.989 4.78524 29.2875 4.73008C28.9169 4.70095 28.5492 4.61435 28.1842 4.53624C27.497 4.38907 26.8144 4.22011 26.1262 4.07893C25.8536 4.0228 25.5713 3.99927 25.2924 3.99155C24.5953 3.97207 23.8976 3.96706 23.2002 3.96224C22.0663 3.95433 20.9324 3.9497 19.7986 3.947C19.4348 3.94623 19.071 3.95471 18.7071 3.96243C18.5944 3.96494 18.4818 3.9767 18.3697 3.98924C18.2876 3.9985 18.2364 3.96224 18.1909 3.89859C17.864 3.43973 17.6391 2.93825 17.5672 2.37602C17.5393 2.15807 17.5327 1.93722 17.5143 1.71792C17.5091 1.65389 17.4967 1.59043 17.4869 1.52196C17.3182 1.50807 17.1595 1.49303 17.0006 1.48242C16.4605 1.44558 15.9204 1.41125 15.3807 1.37422C14.9833 1.34702 14.5862 1.31886 14.1892 1.2882C13.7864 1.25714 13.3841 1.22011 12.9811 1.19041C12.5897 1.16148 12.1972 1.14585 11.8064 1.11152C10.7233 1.01624 9.63774 1.05019 8.55294 1.04749C7.75976 1.04575 6.96639 1.06253 6.17321 1.06253C5.46998 1.06253 4.77234 0.987115 4.07604 0.891063C3.67618 0.835899 3.27208 0.809668 2.87163 0.757205C2.42901 0.69915 1.99486 0.756628 1.56052 0.82857C1.5376 0.832428 1.51564 0.841493 1.48482 0.850558C1.45516 1.00563 1.50697 1.14431 1.5636 1.28048C1.70247 1.61435 1.91184 1.90231 2.15049 2.1708C2.17745 2.20108 2.20134 2.23445 2.22407 2.26319C2.03627 2.64103 2.03588 2.7232 2.38721 3.15293C2.36583 3.18224 2.34618 3.21812 2.31826 3.24531C2.19325 3.36663 2.17784 3.51245 2.21155 3.67369C2.22734 3.74949 2.25084 3.83089 2.23813 3.90379C2.19749 4.13467 2.34233 4.28608 2.45482 4.45118C2.47293 4.4776 2.52512 4.49342 2.56153 4.49323C3.00858 4.48879 3.45544 4.4803 3.9025 4.47336C3.96818 4.4722 4.03386 4.47259 4.09954 4.47259C4.79198 4.47239 5.48481 4.456 6.17668 4.47625C7.32889 4.50962 8.47012 4.63962 9.56127 5.03714C10.064 5.22037 10.5565 5.43639 11.0402 5.66572C11.5891 5.92572 12.1203 6.22313 12.6641 6.49413C13.3159 6.81932 13.7866 7.32716 14.1661 7.93626C14.3013 8.15287 14.455 8.35866 14.6081 8.5635C14.8077 8.83044 15.0737 9.00249 15.3971 9.08504C15.4254 9.09217 15.4527 9.10394 15.4795 9.11551C15.4897 9.11995 15.4972 9.13056 15.5196 9.15062C15.4038 9.45478 15.5238 9.76223 15.5329 10.0625C15.9144 10.2166 16.2831 10.3655 16.6643 10.5195C16.6417 10.3617 16.7505 10.3119 16.8657 10.2539C17.2683 10.0512 17.6999 9.93601 18.1314 9.82067C18.56 9.7061 18.9795 9.57012 19.3341 9.29334C19.5498 9.12535 19.7499 8.93749 19.9564 8.75753C20.2858 8.46995 20.6386 8.21536 21.0682 8.1085C21.3024 8.05045 21.5483 8.03405 21.7901 8.01207C22.3639 7.96018 22.9327 8.02537 23.4887 8.15325C24.3366 8.34825 25.1714 8.58992 25.9343 9.0293C26.3706 9.28061 26.7185 9.62876 27.0207 10.0242C27.1971 10.2554 27.3552 10.5009 27.5336 10.7571Z" stroke="#FF6200" stroke-width="0.548761" stroke-linejoin="round" mask="url(#path-1-outside-1_292_1005)"/>
<path d="M49.3239 50.0756C49.3408 50.0727 49.3577 50.0672 49.3724 50.0583C49.4498 50.0112 49.5222 49.9775 49.6152 49.9261C49.7006 49.8789 49.7929 49.8214 49.8698 49.7423C50.2999 49.3001 50.7149 48.843 51.1208 48.3803C51.3158 48.1581 51.5759 47.8779 51.5761 47.4829C51.5765 47.0737 51.5814 46.6488 51.533 46.2308C51.461 45.6072 51.4519 45.0116 51.6332 44.4206C51.9718 43.317 51.9819 42.1959 51.8107 41.0748C51.6725 40.1718 51.4321 39.2959 51.1683 38.4318C51.1031 38.2179 51.0336 38.0042 50.9645 37.7862C50.9417 37.7143 50.8643 37.6738 50.7923 37.696C50.6516 37.7394 50.533 37.7768 50.418 37.8123C50.368 37.8277 50.3311 37.8702 50.323 37.9219C50.322 37.9278 50.3222 37.9244 50.3191 37.9394C50.318 37.9447 50.3159 37.9559 50.3152 37.9688C50.3145 37.9826 50.3151 38.0024 50.3218 38.0242C50.5069 38.6632 50.6979 39.2955 50.874 39.9336C51.0402 40.5358 51.1423 41.1528 51.204 41.7784C51.2856 42.6098 51.2005 43.4266 50.9691 44.2312C50.8074 44.7938 50.7365 45.368 50.8189 45.9638C50.8716 46.3452 50.8919 46.7331 50.9149 47.1266C50.9291 47.3702 50.8914 47.5791 50.7398 47.7475C50.2689 48.2712 49.8045 48.7965 49.3287 49.3126C49.3157 49.3267 49.2919 49.3427 49.2545 49.3592C49.2177 49.3754 49.1744 49.3886 49.1298 49.4005C48.802 49.4882 48.4694 49.4484 48.1163 49.3737C47.4891 49.241 47.0261 48.9374 46.7989 48.3409C46.697 48.0735 46.6006 47.8055 46.5188 47.535C46.2608 46.6815 45.7656 46.0128 44.9364 45.6115C44.7238 45.5086 44.5178 45.3902 44.3056 45.2706C43.9702 45.0814 43.7146 44.8291 43.5704 44.4632C43.5559 44.4266 43.5263 44.3975 43.4893 44.3841C43.4524 44.3709 43.4112 44.3738 43.3768 44.3927C43.2306 44.4727 43.1071 44.4775 42.9936 44.4461C42.8736 44.4128 42.7561 44.3367 42.6335 44.2378C42.3573 44.0149 42.0888 43.7896 41.8804 43.5276C41.3554 42.8675 40.8678 42.2401 40.8924 41.3734C40.8934 41.3369 40.8797 41.3014 40.8545 41.2749C40.8293 41.2485 40.7944 41.2329 40.7579 41.2322C40.65 41.2303 40.5397 41.2286 40.4398 41.2267C40.3847 40.9078 40.3306 40.5942 40.2762 40.2808C40.2642 40.2113 40.2529 40.1476 40.2388 40.099C40.2255 40.053 40.2005 39.9859 40.1358 39.9444C40.0706 39.9028 39.9984 39.9085 39.9515 39.9158C39.9022 39.9234 39.8408 39.9397 39.7743 39.9573C39.7119 39.9739 39.6345 40.006 39.5883 40.0797C39.5401 40.1568 39.549 40.2423 39.5687 40.31C39.5987 40.4122 39.6253 40.5037 39.6389 40.5952C39.6624 40.7545 39.684 40.915 39.7052 41.0763C39.7264 41.237 39.7479 41.3994 39.7722 41.5612C39.7817 41.6242 39.7901 41.6826 39.8033 41.7293C39.8169 41.7775 39.8406 41.834 39.8931 41.8763C39.944 41.917 40.0041 41.9295 40.0519 41.935C40.0969 41.9403 40.1528 41.9421 40.214 41.9437C40.2161 41.9447 40.2201 41.9455 40.2236 41.948C40.2268 41.9502 40.2289 41.9529 40.2307 41.9547C40.2516 42.0072 40.2683 42.063 40.2862 42.1264C40.3043 42.1905 40.3242 42.2634 40.3519 42.3341C40.6964 43.2116 41.2389 43.9517 41.9314 44.5792C42.1735 44.7987 42.4497 44.9955 42.7861 45.0974C42.8009 45.1019 42.8415 45.1191 42.9045 45.1512C42.964 45.1817 43.0354 45.2207 43.1058 45.2611C43.1763 45.3016 43.2451 45.3434 43.3006 45.3791C43.3603 45.4174 43.3936 45.4422 43.4022 45.4507L43.5177 45.5566C43.7939 45.7948 44.1087 45.9674 44.4227 46.1196C45.0075 46.4028 45.4823 46.7632 45.7161 47.3577C45.8464 47.6889 45.9595 48.0288 46.0709 48.3716C46.2223 48.8374 46.459 49.2164 46.7843 49.5C47.1097 49.7835 47.517 49.966 47.9993 50.05C48.3138 50.1047 48.6476 50.1111 48.946 50.137L48.9813 50.1348L49.3239 50.0756Z" fill="#FF6200" stroke="#FF6200" stroke-width="0.274381" stroke-linejoin="round"/>
<path d="M3.18995 26.1093H0.265625V14.7335H12.1467V16.8617H3.18995V19.5717H11.4424V21.6998H3.18995V26.1093Z" fill="#002770"/>
<path d="M26.2381 26.1093H15.291V14.7335H18.2153V23.9811H26.2381V26.1093Z" fill="#002770"/>
<path d="M35.7444 26.3849C30.7991 26.3849 27.737 24.2567 27.737 20.429C27.737 16.6014 30.7991 14.4885 35.7444 14.4885C40.6744 14.4885 43.7366 16.6014 43.7366 20.429C43.7366 24.2567 40.6744 26.3849 35.7444 26.3849ZM35.7444 24.3026C38.73 24.3026 40.7816 22.8634 40.7816 20.429C40.7816 17.9793 38.73 16.5555 35.7444 16.5555C32.7435 16.5555 30.6919 17.9181 30.6919 20.429C30.6919 22.9247 32.7435 24.3026 35.7444 24.3026Z" fill="#002770"/>
<path d="M50.0452 26.1093H47.1209V14.7335H54.9753C58.8948 14.7335 60.3799 16.1421 60.3799 18.0865C60.3799 19.7401 59.2469 20.7965 57.425 21.1333V21.1486C58.7111 21.4242 59.2929 21.8529 59.6756 23.5218L59.8594 24.2873C60.0737 25.206 60.2268 25.6193 60.4718 26.1093H57.4403C57.2872 25.8184 57.1647 25.4662 56.935 24.4711L56.736 23.629C56.5369 22.741 55.8939 22.3582 53.8576 22.3582H50.0452V26.1093ZM50.0452 16.8617V20.3219H54.7456C56.4298 20.3219 57.4403 19.7248 57.4403 18.4846C57.4403 17.4894 56.7054 16.8617 54.914 16.8617H50.0452Z" fill="#002770"/>
<path d="M66.9246 26.1093H64.0003V14.7335H66.9246V26.1093Z" fill="#002770"/>
<path d="M78.8295 26.1093H71.2507V14.7335H78.8295C83.7595 14.7335 86.0867 17.3057 86.0867 20.429C86.0867 23.4146 83.9585 26.1093 78.8295 26.1093ZM74.175 16.8617V23.9811H78.2936C81.2179 23.9811 83.1317 22.9094 83.1317 20.429C83.1317 18.0253 81.3404 16.8617 78.2936 16.8617H74.175Z" fill="#002770"/>
<path d="M103.284 26.1093H100.023L98.8135 23.5983H91.9238L90.6989 26.1093H87.4684L93.4089 14.7335H97.2978L103.284 26.1093ZM95.2462 16.7545L92.8577 21.6539H97.8796L95.5064 16.7545L95.3839 16.4942H95.3533L95.2462 16.7545Z" fill="#002770"/>
<path d="M7.38032 36.384H0V28.3042H7.38032V30.3422H2.33193V31.307H7.19426V33.3329H2.33193V34.3459H7.38032V36.384Z" fill="#002770"/>
<path d="M10.5984 36.384H7.547L10.6852 32.4164V32.2597L7.547 28.3042H10.5984L12.6078 30.9211H12.769L14.6668 28.3042H17.7182L14.5924 32.3079V32.4647L17.7182 36.384H14.6668L12.6698 33.755H12.5086L10.5984 36.384Z" fill="#002770"/>
<path d="M20.0849 36.384H17.4677L21.0524 28.3042H24.3891L27.9862 36.384H25.307L24.6744 34.8886H20.7299L20.0849 36.384ZM22.0943 31.717L21.6106 32.8506H23.8185L23.3347 31.717L22.789 30.3543H22.6277L22.0943 31.717Z" fill="#002770"/>
<path d="M30.5678 36.384H28.2358V28.3042H31.3988L32.9245 31.6567L33.7432 33.743H33.9044L34.6858 31.6567L36.1371 28.3042H39.3001V36.384H36.9682V33.0435L37.055 31.6929H36.8937L36.4224 33.0435L35.182 35.9016H32.3539L31.1135 33.0435L30.6422 31.6929H30.4809L30.5678 33.0435V36.384Z" fill="#002770"/>
<path d="M43.3661 36.384H42.0264V28.3042H46.0949C47.9431 28.3042 49.2083 29.3292 49.2083 31.1261C49.2083 32.9109 47.9431 33.948 46.0949 33.948H43.3661V36.384ZM45.9709 29.474H43.3661V32.7782H45.9709C47.2237 32.7782 47.8687 32.32 47.8687 31.1261C47.8687 29.9322 47.2237 29.474 45.9709 29.474Z" fill="#002770"/>
<path d="M51.3486 36.384H50.009V28.3042H54.3256C56.211 28.3042 57.3769 29.1725 57.3769 30.6799C57.3769 32.0185 56.4715 32.8385 54.9086 32.9229V33.0073C55.5536 33.1762 55.8513 33.538 56.149 34.0444L57.5382 36.384H56.0001L54.6729 34.153C54.3008 33.5138 53.9163 33.2485 52.8743 33.2485H51.3486V36.384ZM51.3486 29.474V32.2476H54.3132C55.4295 32.2476 55.9877 31.8738 55.9877 30.8608C55.9877 29.8719 55.4295 29.474 54.3132 29.474H51.3486Z" fill="#002770"/>
<path d="M64.9914 36.384H58.3429V28.3042H64.9914V29.474H59.6825V31.7411H64.8053V32.8988H59.6825V35.2142H64.9914V36.384Z" fill="#002770"/>
<path d="M67.3744 36.384H66.0348V28.3042H70.1032C71.9514 28.3042 73.2166 29.3292 73.2166 31.1261C73.2166 32.9109 71.9514 33.948 70.1032 33.948H67.3744V36.384ZM69.9792 29.474H67.3744V32.7782H69.9792C71.232 32.7782 71.877 32.32 71.877 31.1261C71.877 29.9322 71.232 29.474 69.9792 29.474Z" fill="#002770"/>
<path d="M74.8432 36.3652H73.2148V34.5277H74.8432V36.3652Z" fill="#002770"/>
<path d="M79.7078 36.4837C77.2174 36.4837 75.5651 34.8715 75.5651 32.394C75.5651 29.9164 77.2174 28.3042 79.7078 28.3042C81.9708 28.3042 83.5513 29.4896 83.5513 31.3863V31.5523H82.1265V31.3863C82.1265 30.1772 81.3482 29.5252 79.7198 29.5252C77.84 29.5252 76.93 30.4143 76.93 32.394C76.93 34.3736 77.84 35.2509 79.7198 35.2509C81.3482 35.2509 82.1265 34.6107 82.1265 33.3897V33.2356H83.5513V33.3897C83.5513 35.2983 81.9828 36.4837 79.7078 36.4837Z" fill="#002770"/>
<path d="M88.4431 36.4837C85.9287 36.4837 84.2644 34.8715 84.2644 32.394C84.2644 29.9164 85.9287 28.3042 88.4431 28.3042C90.9815 28.3042 92.6338 29.9164 92.6338 32.394C92.6338 34.8715 90.9815 36.4837 88.4431 36.4837ZM88.4431 35.2509C90.3469 35.2509 91.2688 34.3736 91.2688 32.394C91.2688 30.4143 90.3469 29.5252 88.4431 29.5252C86.5394 29.5252 85.6294 30.4143 85.6294 32.394C85.6294 34.3736 86.5394 35.2509 88.4431 35.2509Z" fill="#002770"/>
<path d="M94.8823 36.3652H93.5891V28.4227H95.3492L97.6601 33.0222L98.3904 34.67H98.4862L99.1927 33.0222L101.48 28.4227H103.24V36.3652H101.947V31.493L101.994 30.3432H101.899L101.408 31.493L99.1927 35.891H97.6361L95.4211 31.493L94.9302 30.3432H94.8344L94.8823 31.493V36.3652Z" fill="#002770"/>
<path d="M70.1359 15.5842C71.5122 16.0723 80.2324 13.7042 80.8787 12.562C82.5153 12.8104 83.475 13.0181 83.2364 13.3593C82.6212 14.2566 80.7181 14.9343 80.1657 14.9837C79.1696 15.0727 77.1051 15.1959 76.201 15.2809C72.0205 16.3406 70.0547 16.5331 69.8402 15.9724C69.815 15.864 69.8251 15.4739 70.1359 15.5842Z" fill="#FBF8F8"/>
<path d="M70.9282 10.3008C70.6122 10.7514 70.3593 11.2727 70.1883 11.8646C69.9381 12.768 69.8755 13.8667 70.0688 15.1738C70.0704 15.1845 70.072 15.1953 70.0736 15.2061C70.0744 15.212 70.0753 15.2179 70.0761 15.2238C70.0937 15.342 70.1136 15.4622 70.1359 15.5842C71.5122 16.0723 80.2324 13.7042 80.8787 12.562C79.4881 7.55192 73.3519 6.84464 70.9282 10.3008Z" fill="#FBF8F8"/>
<path d="M70.1359 15.5842C71.5122 16.0723 80.2324 13.7042 80.8787 12.562M70.1359 15.5842C69.8251 15.4739 69.815 15.864 69.8402 15.9724C70.0547 16.5331 72.0205 16.3406 76.201 15.2809C77.1051 15.1959 79.1696 15.0727 80.1657 14.9837C80.7181 14.9343 82.6212 14.2566 83.2364 13.3593C83.475 13.0181 82.5153 12.8104 80.8787 12.562M70.1359 15.5842C70.1136 15.4622 70.0937 15.342 70.0761 15.2238M70.1359 15.5842C69.841 14.1329 69.8912 12.8925 70.1883 11.8646M80.8787 12.562C79.4881 7.55192 73.3519 6.84464 70.9282 10.3008M70.1367 15.5841C70.1133 15.4562 70.0923 15.3302 70.0736 15.2061M79.0026 13.2418C77.7059 9.10216 73.0438 8.33285 70.9282 10.3008M70.1351 15.5843C70.1124 15.4619 70.0928 15.3417 70.0761 15.2238M75.751 12.7666C74.1723 9.96652 69.2929 9.61558 70.0736 15.2061M70.9282 10.3008C70.6122 10.7514 70.3593 11.2727 70.1883 11.8646M70.9282 10.3008C70.6104 10.7361 70.3568 11.256 70.1883 11.8646M70.1883 11.8646C69.9381 12.768 69.8755 13.8667 70.0688 15.1738M70.0688 15.1738C70.0704 15.1845 70.072 15.1953 70.0736 15.2061M70.0688 15.1738C70.0712 15.1904 70.0736 15.2071 70.0761 15.2238M70.0736 15.2061C70.0744 15.212 70.0753 15.2179 70.0761 15.2238" stroke="#FF6200" stroke-width="0.698251" stroke-linecap="round" stroke-linejoin="round"/>
</svg>
