<svg width="1080" height="1080" viewBox="0 0 1080 1080" fill="none" xmlns="http://www.w3.org/2000/svg">
<rect width="1080" height="1080" fill="white"/>
<mask id="path-1-outside-1_128_21" maskUnits="userSpaceOnUse" x="105.498" y="320.038" width="354" height="102" fill="black">
<rect fill="white" x="105.498" y="320.038" width="354" height="102"/>
<path d="M334.604 412.315C333.414 413.081 332.327 413.783 331.262 414.468C329.62 412.182 328.095 409.906 326.415 407.753C323.154 403.572 318.959 400.652 314.06 398.633C307.351 395.864 300.405 394.044 293.213 393.224C289.071 392.753 284.929 392.784 280.807 393.717C277.656 394.429 275.191 396.209 272.826 398.24C270.94 399.86 269.101 401.541 267.146 403.073C264.095 405.459 260.519 406.77 256.848 407.853C253.879 408.728 250.922 409.636 247.966 410.549C247.438 410.711 246.937 410.971 246.389 411.199C246.614 413.224 246.834 415.217 247.075 417.406C240.8 414.45 234.952 411.005 228.398 409.738C228.232 406.844 228.073 404.079 227.91 401.285C222.907 399.122 219.925 394.958 217.302 390.605C214.445 385.857 210.876 381.979 205.926 379.473C200.312 376.628 194.665 373.848 189.015 371.077C184.818 369.018 180.489 367.281 175.981 366.024C171.427 364.753 166.796 363.864 162.084 363.462C159.056 363.202 156.022 362.987 152.986 362.903C147.859 362.757 142.729 362.646 137.6 362.674C131.461 362.709 125.323 362.903 119.184 363.028C118.831 363.033 118.478 363.028 118.045 363.028C117.91 362.618 117.812 362.239 117.663 361.881C117.318 361.054 117.068 360.152 116.56 359.437C115.698 358.227 115.263 356.967 115.229 355.475C115.199 354.114 114.886 352.762 114.787 351.399C114.727 350.545 114.625 349.597 114.917 348.837C115.303 347.837 115.03 347.097 114.628 346.251C113.932 344.791 113.685 343.219 114.019 341.646C114.192 340.834 113.995 340.298 113.525 339.705C111.622 337.298 110.069 334.69 109.144 331.735C108.431 329.462 108.333 327.166 108.728 324.808C111.226 323.881 113.775 323.475 116.34 323.229C121.929 322.69 127.48 323.171 133.02 323.959C136.882 324.507 140.751 324.986 144.626 325.423C146.185 325.599 147.765 325.612 149.338 325.645C153.754 325.74 158.17 325.867 162.586 325.863C167.767 325.858 172.948 325.735 178.129 325.651C180.972 325.605 183.816 325.429 186.655 325.489C191.166 325.586 195.679 325.779 200.186 326.029C204.636 326.277 209.084 326.611 213.528 326.969C218.625 327.382 223.714 327.89 228.811 328.3C232.396 328.588 235.986 328.815 239.577 329.014C243.878 329.252 248.183 329.431 252.486 329.641C252.581 329.645 252.673 329.705 252.891 329.789C252.95 331.143 253 332.552 253.077 333.957C253.284 337.763 253.438 341.587 254.874 345.179C255.511 346.775 256.412 348.267 257.168 349.815C257.457 350.403 257.892 350.576 258.524 350.551C260.705 350.471 262.889 350.39 265.072 350.389C275.752 350.372 286.432 350.361 297.113 350.387C303.06 350.402 309.011 350.364 314.951 350.579C320.38 350.776 325.719 351.759 331.008 353.01C336.289 354.259 341.573 355.518 346.897 356.561C351.136 357.391 355.449 357.534 359.772 357.143C361.992 356.941 364.226 356.921 366.449 356.755C372.169 356.329 377.894 356.063 383.632 356.183C389.318 356.301 395.005 356.41 400.691 356.54C401.134 356.55 401.572 356.697 402.102 356.798C402.015 357.856 401.983 358.86 401.843 359.848C401.134 364.876 403.781 369.121 407.766 371.317C407.858 370.742 408.053 370.24 407.999 369.767C407.438 364.781 406.757 359.805 406.274 354.813C405.985 351.832 406.241 348.841 406.921 345.699C407.735 345.791 408.524 345.848 409.299 345.976C411.32 346.308 412.112 345.8 412.586 343.815C412.62 343.669 412.658 343.519 412.684 343.37C413.378 339.638 415.454 339.485 418.128 340.188C420.883 340.913 423.191 342.51 425.217 344.482C426.635 345.865 428.032 347.283 429.309 348.798C429.927 349.531 430.438 349.615 431.242 349.266C432.501 348.721 433.782 348.234 435.066 347.754C437.381 346.888 439.761 346.284 442.196 347.105C445.474 348.211 445.577 349.123 445.764 352.019C445.926 354.553 445.821 357.103 445.94 359.642C446.361 368.696 447.476 377.639 450.28 386.306C450.466 386.876 450.645 387.491 450.63 388.081C450.385 397.865 452.681 407.119 456.403 416.08C456.577 416.497 456.733 416.921 456.955 417.488C455.749 417.993 454.601 418.474 453.257 419.038C452.419 416.856 451.567 414.802 450.833 412.708C449.169 407.955 447.802 403.112 447.238 398.097C446.924 395.328 446.936 392.524 446.75 389.739C446.691 388.84 446.568 387.921 446.307 387.063C444.655 381.604 443.501 376.046 442.822 370.382C442.136 364.678 441.909 358.947 441.912 353.209C441.914 350.62 440.55 350.384 438.96 350.834C437.11 351.357 435.328 352.109 433.51 352.739C432.043 353.248 430.602 353.823 428.966 353.518C428.088 353.353 427.513 352.923 426.975 352.265C424.851 349.664 422.587 347.197 419.744 345.355C418.865 344.785 417.89 344.359 417.066 343.925C416.268 345.482 415.702 346.998 414.786 348.261C413.777 349.651 412.089 349.96 410.311 350.053C410.311 352.149 410.164 354.178 410.344 356.178C410.653 359.611 411.163 363.026 411.593 366.448C411.744 367.655 411.897 368.865 412.066 370.069C412.248 371.359 411.892 372.507 411.091 373.488C410.229 374.546 409.292 375.54 408.334 376.625C401.937 373.115 397.497 368.39 397.721 360.554C397.399 360.512 397.205 360.467 397.012 360.464C391.123 360.334 385.233 360.103 379.345 360.122C375.395 360.137 371.442 360.446 367.498 360.734C361.516 361.167 355.525 361.434 349.548 360.964C346.39 360.715 343.257 359.978 340.147 359.312C334.292 358.058 328.476 356.619 322.612 355.416C320.29 354.937 317.884 354.737 315.508 354.671C309.569 354.505 303.625 354.463 297.682 354.421C288.021 354.354 278.36 354.315 268.7 354.292C265.6 354.285 262.5 354.357 259.4 354.423C258.44 354.444 257.48 354.545 256.525 354.652C255.826 354.73 255.389 354.421 255.002 353.879C252.217 349.97 250.3 345.697 249.688 340.907C249.45 339.05 249.394 337.168 249.237 335.299C249.192 334.754 249.087 334.213 249.004 333.63C247.566 333.511 246.214 333.383 244.86 333.293C240.258 332.979 235.656 332.686 231.058 332.371C227.672 332.139 224.289 331.899 220.906 331.638C217.475 331.373 214.046 331.058 210.613 330.805C207.278 330.558 203.934 330.425 200.604 330.133C191.376 329.321 182.127 329.61 172.884 329.587C166.126 329.572 159.366 329.715 152.608 329.715C146.617 329.715 140.673 329.073 134.74 328.254C131.333 327.784 127.89 327.561 124.478 327.114C120.707 326.619 117.008 327.109 113.307 327.722C113.112 327.755 112.925 327.832 112.662 327.909C112.409 329.23 112.851 330.412 113.333 331.572C114.517 334.417 116.3 336.87 118.334 339.158C118.564 339.416 118.767 339.7 118.961 339.945C117.361 343.164 117.357 343.865 120.351 347.526C120.169 347.776 120.001 348.081 119.763 348.313C118.698 349.347 118.567 350.589 118.854 351.963C118.989 352.609 119.189 353.302 119.08 353.924C118.734 355.891 119.968 357.181 120.927 358.587C121.081 358.812 121.526 358.947 121.836 358.946C125.645 358.908 129.452 358.835 133.261 358.776C133.821 358.766 134.381 358.77 134.94 358.77C140.84 358.768 146.743 358.628 152.638 358.801C162.455 359.085 172.178 360.193 181.475 363.58C185.759 365.141 189.955 366.982 194.076 368.936C198.753 371.151 203.279 373.685 207.912 375.994C213.465 378.764 217.476 383.091 220.709 388.281C221.861 390.127 223.171 391.88 224.476 393.625C226.176 395.9 228.442 397.366 231.198 398.069C231.439 398.13 231.672 398.23 231.9 398.329C231.987 398.366 232.051 398.457 232.241 398.628C231.255 401.219 232.277 403.839 232.355 406.397C235.606 407.71 238.747 408.979 241.994 410.291C241.802 408.946 242.73 408.522 243.711 408.028C247.141 406.3 250.819 405.319 254.495 404.337C258.146 403.36 261.721 402.202 264.742 399.844C266.58 398.412 268.285 396.812 270.044 395.278C272.85 392.828 275.857 390.659 279.517 389.749C281.512 389.254 283.608 389.114 285.668 388.927C290.556 388.485 295.403 389.04 300.14 390.13C307.365 391.791 314.477 393.85 320.978 397.594C324.695 399.735 327.659 402.702 330.233 406.07C331.737 408.041 333.084 410.133 334.604 412.315Z"/>
</mask>
<path d="M334.604 412.315C333.414 413.081 332.327 413.783 331.262 414.468C329.62 412.182 328.095 409.906 326.415 407.753C323.154 403.572 318.959 400.652 314.06 398.633C307.351 395.864 300.405 394.044 293.213 393.224C289.071 392.753 284.929 392.784 280.807 393.717C277.656 394.429 275.191 396.209 272.826 398.24C270.94 399.86 269.101 401.541 267.146 403.073C264.095 405.459 260.519 406.77 256.848 407.853C253.879 408.728 250.922 409.636 247.966 410.549C247.438 410.711 246.937 410.971 246.389 411.199C246.614 413.224 246.834 415.217 247.075 417.406C240.8 414.45 234.952 411.005 228.398 409.738C228.232 406.844 228.073 404.079 227.91 401.285C222.907 399.122 219.925 394.958 217.302 390.605C214.445 385.857 210.876 381.979 205.926 379.473C200.312 376.628 194.665 373.848 189.015 371.077C184.818 369.018 180.489 367.281 175.981 366.024C171.427 364.753 166.796 363.864 162.084 363.462C159.056 363.202 156.022 362.987 152.986 362.903C147.859 362.757 142.729 362.646 137.6 362.674C131.461 362.709 125.323 362.903 119.184 363.028C118.831 363.033 118.478 363.028 118.045 363.028C117.91 362.618 117.812 362.239 117.663 361.881C117.318 361.054 117.068 360.152 116.56 359.437C115.698 358.227 115.263 356.967 115.229 355.475C115.199 354.114 114.886 352.762 114.787 351.399C114.727 350.545 114.625 349.597 114.917 348.837C115.303 347.837 115.03 347.097 114.628 346.251C113.932 344.791 113.685 343.219 114.019 341.646C114.192 340.834 113.995 340.298 113.525 339.705C111.622 337.298 110.069 334.69 109.144 331.735C108.431 329.462 108.333 327.166 108.728 324.808C111.226 323.881 113.775 323.475 116.34 323.229C121.929 322.69 127.48 323.171 133.02 323.959C136.882 324.507 140.751 324.986 144.626 325.423C146.185 325.599 147.765 325.612 149.338 325.645C153.754 325.74 158.17 325.867 162.586 325.863C167.767 325.858 172.948 325.735 178.129 325.651C180.972 325.605 183.816 325.429 186.655 325.489C191.166 325.586 195.679 325.779 200.186 326.029C204.636 326.277 209.084 326.611 213.528 326.969C218.625 327.382 223.714 327.89 228.811 328.3C232.396 328.588 235.986 328.815 239.577 329.014C243.878 329.252 248.183 329.431 252.486 329.641C252.581 329.645 252.673 329.705 252.891 329.789C252.95 331.143 253 332.552 253.077 333.957C253.284 337.763 253.438 341.587 254.874 345.179C255.511 346.775 256.412 348.267 257.168 349.815C257.457 350.403 257.892 350.576 258.524 350.551C260.705 350.471 262.889 350.39 265.072 350.389C275.752 350.372 286.432 350.361 297.113 350.387C303.06 350.402 309.011 350.364 314.951 350.579C320.38 350.776 325.719 351.759 331.008 353.01C336.289 354.259 341.573 355.518 346.897 356.561C351.136 357.391 355.449 357.534 359.772 357.143C361.992 356.941 364.226 356.921 366.449 356.755C372.169 356.329 377.894 356.063 383.632 356.183C389.318 356.301 395.005 356.41 400.691 356.54C401.134 356.55 401.572 356.697 402.102 356.798C402.015 357.856 401.983 358.86 401.843 359.848C401.134 364.876 403.781 369.121 407.766 371.317C407.858 370.742 408.053 370.24 407.999 369.767C407.438 364.781 406.757 359.805 406.274 354.813C405.985 351.832 406.241 348.841 406.921 345.699C407.735 345.791 408.524 345.848 409.299 345.976C411.32 346.308 412.112 345.8 412.586 343.815C412.62 343.669 412.658 343.519 412.684 343.37C413.378 339.638 415.454 339.485 418.128 340.188C420.883 340.913 423.191 342.51 425.217 344.482C426.635 345.865 428.032 347.283 429.309 348.798C429.927 349.531 430.438 349.615 431.242 349.266C432.501 348.721 433.782 348.234 435.066 347.754C437.381 346.888 439.761 346.284 442.196 347.105C445.474 348.211 445.577 349.123 445.764 352.019C445.926 354.553 445.821 357.103 445.94 359.642C446.361 368.696 447.476 377.639 450.28 386.306C450.466 386.876 450.645 387.491 450.63 388.081C450.385 397.865 452.681 407.119 456.403 416.08C456.577 416.497 456.733 416.921 456.955 417.488C455.749 417.993 454.601 418.474 453.257 419.038C452.419 416.856 451.567 414.802 450.833 412.708C449.169 407.955 447.802 403.112 447.238 398.097C446.924 395.328 446.936 392.524 446.75 389.739C446.691 388.84 446.568 387.921 446.307 387.063C444.655 381.604 443.501 376.046 442.822 370.382C442.136 364.678 441.909 358.947 441.912 353.209C441.914 350.62 440.55 350.384 438.96 350.834C437.11 351.357 435.328 352.109 433.51 352.739C432.043 353.248 430.602 353.823 428.966 353.518C428.088 353.353 427.513 352.923 426.975 352.265C424.851 349.664 422.587 347.197 419.744 345.355C418.865 344.785 417.89 344.359 417.066 343.925C416.268 345.482 415.702 346.998 414.786 348.261C413.777 349.651 412.089 349.96 410.311 350.053C410.311 352.149 410.164 354.178 410.344 356.178C410.653 359.611 411.163 363.026 411.593 366.448C411.744 367.655 411.897 368.865 412.066 370.069C412.248 371.359 411.892 372.507 411.091 373.488C410.229 374.546 409.292 375.54 408.334 376.625C401.937 373.115 397.497 368.39 397.721 360.554C397.399 360.512 397.205 360.467 397.012 360.464C391.123 360.334 385.233 360.103 379.345 360.122C375.395 360.137 371.442 360.446 367.498 360.734C361.516 361.167 355.525 361.434 349.548 360.964C346.39 360.715 343.257 359.978 340.147 359.312C334.292 358.058 328.476 356.619 322.612 355.416C320.29 354.937 317.884 354.737 315.508 354.671C309.569 354.505 303.625 354.463 297.682 354.421C288.021 354.354 278.36 354.315 268.7 354.292C265.6 354.285 262.5 354.357 259.4 354.423C258.44 354.444 257.48 354.545 256.525 354.652C255.826 354.73 255.389 354.421 255.002 353.879C252.217 349.97 250.3 345.697 249.688 340.907C249.45 339.05 249.394 337.168 249.237 335.299C249.192 334.754 249.087 334.213 249.004 333.63C247.566 333.511 246.214 333.383 244.86 333.293C240.258 332.979 235.656 332.686 231.058 332.371C227.672 332.139 224.289 331.899 220.906 331.638C217.475 331.373 214.046 331.058 210.613 330.805C207.278 330.558 203.934 330.425 200.604 330.133C191.376 329.321 182.127 329.61 172.884 329.587C166.126 329.572 159.366 329.715 152.608 329.715C146.617 329.715 140.673 329.073 134.74 328.254C131.333 327.784 127.89 327.561 124.478 327.114C120.707 326.619 117.008 327.109 113.307 327.722C113.112 327.755 112.925 327.832 112.662 327.909C112.409 329.23 112.851 330.412 113.333 331.572C114.517 334.417 116.3 336.87 118.334 339.158C118.564 339.416 118.767 339.7 118.961 339.945C117.361 343.164 117.357 343.865 120.351 347.526C120.169 347.776 120.001 348.081 119.763 348.313C118.698 349.347 118.567 350.589 118.854 351.963C118.989 352.609 119.189 353.302 119.08 353.924C118.734 355.891 119.968 357.181 120.927 358.587C121.081 358.812 121.526 358.947 121.836 358.946C125.645 358.908 129.452 358.835 133.261 358.776C133.821 358.766 134.381 358.77 134.94 358.77C140.84 358.768 146.743 358.628 152.638 358.801C162.455 359.085 172.178 360.193 181.475 363.58C185.759 365.141 189.955 366.982 194.076 368.936C198.753 371.151 203.279 373.685 207.912 375.994C213.465 378.764 217.476 383.091 220.709 388.281C221.861 390.127 223.171 391.88 224.476 393.625C226.176 395.9 228.442 397.366 231.198 398.069C231.439 398.13 231.672 398.23 231.9 398.329C231.987 398.366 232.051 398.457 232.241 398.628C231.255 401.219 232.277 403.839 232.355 406.397C235.606 407.71 238.747 408.979 241.994 410.291C241.802 408.946 242.73 408.522 243.711 408.028C247.141 406.3 250.819 405.319 254.495 404.337C258.146 403.36 261.721 402.202 264.742 399.844C266.58 398.412 268.285 396.812 270.044 395.278C272.85 392.828 275.857 390.659 279.517 389.749C281.512 389.254 283.608 389.114 285.668 388.927C290.556 388.485 295.403 389.04 300.14 390.13C307.365 391.791 314.477 393.85 320.978 397.594C324.695 399.735 327.659 402.702 330.233 406.07C331.737 408.041 333.084 410.133 334.604 412.315Z" fill="#FF6200"/>
<path d="M334.604 412.315C333.414 413.081 332.327 413.783 331.262 414.468C329.62 412.182 328.095 409.906 326.415 407.753C323.154 403.572 318.959 400.652 314.06 398.633C307.351 395.864 300.405 394.044 293.213 393.224C289.071 392.753 284.929 392.784 280.807 393.717C277.656 394.429 275.191 396.209 272.826 398.24C270.94 399.86 269.101 401.541 267.146 403.073C264.095 405.459 260.519 406.77 256.848 407.853C253.879 408.728 250.922 409.636 247.966 410.549C247.438 410.711 246.937 410.971 246.389 411.199C246.614 413.224 246.834 415.217 247.075 417.406C240.8 414.45 234.952 411.005 228.398 409.738C228.232 406.844 228.073 404.079 227.91 401.285C222.907 399.122 219.925 394.958 217.302 390.605C214.445 385.857 210.876 381.979 205.926 379.473C200.312 376.628 194.665 373.848 189.015 371.077C184.818 369.018 180.489 367.281 175.981 366.024C171.427 364.753 166.796 363.864 162.084 363.462C159.056 363.202 156.022 362.987 152.986 362.903C147.859 362.757 142.729 362.646 137.6 362.674C131.461 362.709 125.323 362.903 119.184 363.028C118.831 363.033 118.478 363.028 118.045 363.028C117.91 362.618 117.812 362.239 117.663 361.881C117.318 361.054 117.068 360.152 116.56 359.437C115.698 358.227 115.263 356.967 115.229 355.475C115.199 354.114 114.886 352.762 114.787 351.399C114.727 350.545 114.625 349.597 114.917 348.837C115.303 347.837 115.03 347.097 114.628 346.251C113.932 344.791 113.685 343.219 114.019 341.646C114.192 340.834 113.995 340.298 113.525 339.705C111.622 337.298 110.069 334.69 109.144 331.735C108.431 329.462 108.333 327.166 108.728 324.808C111.226 323.881 113.775 323.475 116.34 323.229C121.929 322.69 127.48 323.171 133.02 323.959C136.882 324.507 140.751 324.986 144.626 325.423C146.185 325.599 147.765 325.612 149.338 325.645C153.754 325.74 158.17 325.867 162.586 325.863C167.767 325.858 172.948 325.735 178.129 325.651C180.972 325.605 183.816 325.429 186.655 325.489C191.166 325.586 195.679 325.779 200.186 326.029C204.636 326.277 209.084 326.611 213.528 326.969C218.625 327.382 223.714 327.89 228.811 328.3C232.396 328.588 235.986 328.815 239.577 329.014C243.878 329.252 248.183 329.431 252.486 329.641C252.581 329.645 252.673 329.705 252.891 329.789C252.95 331.143 253 332.552 253.077 333.957C253.284 337.763 253.438 341.587 254.874 345.179C255.511 346.775 256.412 348.267 257.168 349.815C257.457 350.403 257.892 350.576 258.524 350.551C260.705 350.471 262.889 350.39 265.072 350.389C275.752 350.372 286.432 350.361 297.113 350.387C303.06 350.402 309.011 350.364 314.951 350.579C320.38 350.776 325.719 351.759 331.008 353.01C336.289 354.259 341.573 355.518 346.897 356.561C351.136 357.391 355.449 357.534 359.772 357.143C361.992 356.941 364.226 356.921 366.449 356.755C372.169 356.329 377.894 356.063 383.632 356.183C389.318 356.301 395.005 356.41 400.691 356.54C401.134 356.55 401.572 356.697 402.102 356.798C402.015 357.856 401.983 358.86 401.843 359.848C401.134 364.876 403.781 369.121 407.766 371.317C407.858 370.742 408.053 370.24 407.999 369.767C407.438 364.781 406.757 359.805 406.274 354.813C405.985 351.832 406.241 348.841 406.921 345.699C407.735 345.791 408.524 345.848 409.299 345.976C411.32 346.308 412.112 345.8 412.586 343.815C412.62 343.669 412.658 343.519 412.684 343.37C413.378 339.638 415.454 339.485 418.128 340.188C420.883 340.913 423.191 342.51 425.217 344.482C426.635 345.865 428.032 347.283 429.309 348.798C429.927 349.531 430.438 349.615 431.242 349.266C432.501 348.721 433.782 348.234 435.066 347.754C437.381 346.888 439.761 346.284 442.196 347.105C445.474 348.211 445.577 349.123 445.764 352.019C445.926 354.553 445.821 357.103 445.94 359.642C446.361 368.696 447.476 377.639 450.28 386.306C450.466 386.876 450.645 387.491 450.63 388.081C450.385 397.865 452.681 407.119 456.403 416.08C456.577 416.497 456.733 416.921 456.955 417.488C455.749 417.993 454.601 418.474 453.257 419.038C452.419 416.856 451.567 414.802 450.833 412.708C449.169 407.955 447.802 403.112 447.238 398.097C446.924 395.328 446.936 392.524 446.75 389.739C446.691 388.84 446.568 387.921 446.307 387.063C444.655 381.604 443.501 376.046 442.822 370.382C442.136 364.678 441.909 358.947 441.912 353.209C441.914 350.62 440.55 350.384 438.96 350.834C437.11 351.357 435.328 352.109 433.51 352.739C432.043 353.248 430.602 353.823 428.966 353.518C428.088 353.353 427.513 352.923 426.975 352.265C424.851 349.664 422.587 347.197 419.744 345.355C418.865 344.785 417.89 344.359 417.066 343.925C416.268 345.482 415.702 346.998 414.786 348.261C413.777 349.651 412.089 349.96 410.311 350.053C410.311 352.149 410.164 354.178 410.344 356.178C410.653 359.611 411.163 363.026 411.593 366.448C411.744 367.655 411.897 368.865 412.066 370.069C412.248 371.359 411.892 372.507 411.091 373.488C410.229 374.546 409.292 375.54 408.334 376.625C401.937 373.115 397.497 368.39 397.721 360.554C397.399 360.512 397.205 360.467 397.012 360.464C391.123 360.334 385.233 360.103 379.345 360.122C375.395 360.137 371.442 360.446 367.498 360.734C361.516 361.167 355.525 361.434 349.548 360.964C346.39 360.715 343.257 359.978 340.147 359.312C334.292 358.058 328.476 356.619 322.612 355.416C320.29 354.937 317.884 354.737 315.508 354.671C309.569 354.505 303.625 354.463 297.682 354.421C288.021 354.354 278.36 354.315 268.7 354.292C265.6 354.285 262.5 354.357 259.4 354.423C258.44 354.444 257.48 354.545 256.525 354.652C255.826 354.73 255.389 354.421 255.002 353.879C252.217 349.97 250.3 345.697 249.688 340.907C249.45 339.05 249.394 337.168 249.237 335.299C249.192 334.754 249.087 334.213 249.004 333.63C247.566 333.511 246.214 333.383 244.86 333.293C240.258 332.979 235.656 332.686 231.058 332.371C227.672 332.139 224.289 331.899 220.906 331.638C217.475 331.373 214.046 331.058 210.613 330.805C207.278 330.558 203.934 330.425 200.604 330.133C191.376 329.321 182.127 329.61 172.884 329.587C166.126 329.572 159.366 329.715 152.608 329.715C146.617 329.715 140.673 329.073 134.74 328.254C131.333 327.784 127.89 327.561 124.478 327.114C120.707 326.619 117.008 327.109 113.307 327.722C113.112 327.755 112.925 327.832 112.662 327.909C112.409 329.23 112.851 330.412 113.333 331.572C114.517 334.417 116.3 336.87 118.334 339.158C118.564 339.416 118.767 339.7 118.961 339.945C117.361 343.164 117.357 343.865 120.351 347.526C120.169 347.776 120.001 348.081 119.763 348.313C118.698 349.347 118.567 350.589 118.854 351.963C118.989 352.609 119.189 353.302 119.08 353.924C118.734 355.891 119.968 357.181 120.927 358.587C121.081 358.812 121.526 358.947 121.836 358.946C125.645 358.908 129.452 358.835 133.261 358.776C133.821 358.766 134.381 358.77 134.94 358.77C140.84 358.768 146.743 358.628 152.638 358.801C162.455 359.085 172.178 360.193 181.475 363.58C185.759 365.141 189.955 366.982 194.076 368.936C198.753 371.151 203.279 373.685 207.912 375.994C213.465 378.764 217.476 383.091 220.709 388.281C221.861 390.127 223.171 391.88 224.476 393.625C226.176 395.9 228.442 397.366 231.198 398.069C231.439 398.13 231.672 398.23 231.9 398.329C231.987 398.366 232.051 398.457 232.241 398.628C231.255 401.219 232.277 403.839 232.355 406.397C235.606 407.71 238.747 408.979 241.994 410.291C241.802 408.946 242.73 408.522 243.711 408.028C247.141 406.3 250.819 405.319 254.495 404.337C258.146 403.36 261.721 402.202 264.742 399.844C266.58 398.412 268.285 396.812 270.044 395.278C272.85 392.828 275.857 390.659 279.517 389.749C281.512 389.254 283.608 389.114 285.668 388.927C290.556 388.485 295.403 389.04 300.14 390.13C307.365 391.791 314.477 393.85 320.978 397.594C324.695 399.735 327.659 402.702 330.233 406.07C331.737 408.041 333.084 410.133 334.604 412.315Z" stroke="#FF6200" stroke-width="4.67557" stroke-linejoin="round" mask="url(#path-1-outside-1_128_21)"/>
<path d="M520.254 747.32L520.362 747.296C520.468 747.268 520.569 747.224 520.663 747.167C521.323 746.765 521.94 746.479 522.733 746.04C523.462 745.637 524.248 745.149 524.904 744.474C528.568 740.706 532.103 736.815 535.561 732.872C537.223 730.979 539.442 728.592 539.443 725.225C539.446 721.738 539.49 718.121 539.078 714.56C538.464 709.246 538.385 704.172 539.929 699.135C542.724 690.026 542.896 680.779 541.578 671.526L541.446 670.631L541.446 670.63C540.268 662.934 538.213 655.471 535.965 648.107C535.409 646.285 534.817 644.464 534.228 642.606C534.034 641.994 533.382 641.652 532.769 641.842C531.568 642.212 530.554 642.526 529.573 642.829C529.146 642.961 528.831 643.326 528.763 643.767C528.755 643.818 528.758 643.785 528.731 643.917C528.722 643.961 528.704 644.054 528.698 644.164C528.692 644.278 528.697 644.436 528.749 644.614L531.134 652.759C531.927 655.469 532.711 658.178 533.462 660.9C534.878 666.032 535.743 671.288 536.269 676.619C536.921 683.261 536.328 689.792 534.627 696.232L534.272 697.518C532.893 702.313 532.286 707.207 532.989 712.286L533.145 713.507C533.386 715.546 533.533 717.605 533.661 719.684L533.808 722.188C533.93 724.265 533.613 726.047 532.322 727.482L532.321 727.483C528.309 731.945 524.345 736.414 520.291 740.812C520.18 740.933 519.979 741.073 519.658 741.214C519.344 741.352 518.983 741.464 518.603 741.566L518.603 741.567C515.809 742.314 512.977 741.971 509.967 741.334L509.966 741.334C504.621 740.204 500.678 737.618 498.742 732.533L498.742 732.532C497.982 730.539 497.256 728.546 496.619 726.535L496.352 725.671C494.153 718.399 489.937 712.699 482.871 709.28C481.513 708.622 480.187 707.892 478.847 707.139L477.5 706.38C474.639 704.767 472.463 702.614 471.235 699.495C471.112 699.182 470.86 698.938 470.545 698.824C470.229 698.71 469.88 698.737 469.585 698.898C468.339 699.581 467.284 699.623 466.317 699.355C465.294 699.072 464.296 698.423 463.251 697.58C461.044 695.799 458.898 693.999 457.174 691.941L456.836 691.526C452.363 685.901 448.205 680.557 448.414 673.172C448.423 672.86 448.306 672.558 448.09 672.332C447.875 672.107 447.578 671.976 447.266 671.971C446.345 671.954 445.407 671.938 444.556 671.922C444.086 669.205 443.625 666.533 443.162 663.863C443.059 663.27 442.968 662.729 442.848 662.315C442.734 661.922 442.519 661.349 441.964 660.995C441.409 660.641 440.8 660.689 440.4 660.751C439.979 660.816 439.455 660.959 438.887 661.11L438.887 661.111C438.355 661.252 437.699 661.52 437.306 662.147C436.894 662.805 436.968 663.531 437.136 664.108L437.137 664.111C437.392 664.982 437.623 665.762 437.738 666.542C437.939 667.899 438.117 669.262 438.298 670.637C438.478 672.007 438.66 673.389 438.868 674.769C438.949 675.307 439.026 675.806 439.138 676.205C439.254 676.617 439.455 677.098 439.905 677.459C440.339 677.806 440.844 677.91 441.252 677.957C441.639 678.002 442.122 678.013 442.649 678.027C442.652 678.028 442.656 678.03 442.66 678.032C442.676 678.041 442.695 678.052 442.713 678.065C442.732 678.078 442.749 678.092 442.764 678.105C442.771 678.111 442.776 678.118 442.781 678.123C442.958 678.57 443.098 679.048 443.25 679.589C443.404 680.134 443.575 680.753 443.811 681.355L443.812 681.356C446.747 688.833 451.368 695.139 457.269 700.486L457.659 700.834C459.627 702.561 461.863 704.084 464.551 704.897C464.677 704.936 465.024 705.087 465.563 705.362C466.07 705.622 466.674 705.952 467.274 706.296C467.874 706.641 468.46 706.994 468.933 707.298C469.442 707.625 469.724 707.836 469.798 707.908L469.798 707.909C472.372 710.42 475.44 712.127 478.498 713.608C483.481 716.021 487.524 719.094 489.516 724.16C490.626 726.982 491.586 729.878 492.535 732.799L492.786 733.535C494.081 737.167 496.017 740.145 498.616 742.41C501.388 744.827 504.855 746.382 508.965 747.097C511.645 747.564 514.488 747.617 517.032 747.838L517.182 747.841C517.232 747.839 517.282 747.834 517.332 747.825L520.254 747.32Z" fill="#FF6200" stroke="#FF6200" stroke-width="2.33779" stroke-linejoin="round"/>
<path d="M127.174 543.121H102.258V446.197H203.487V464.33H127.174V487.419H197.486V505.552H127.174V543.121Z" fill="#002770"/>
<path d="M323.549 543.121H230.277V446.197H255.193V524.989H323.549V543.121Z" fill="#002770"/>
<path d="M404.545 545.47C362.41 545.47 336.32 527.337 336.32 494.724C336.32 462.112 362.41 444.11 404.545 444.11C446.55 444.11 472.64 462.112 472.64 494.724C472.64 527.337 446.55 545.47 404.545 545.47ZM404.545 527.728C429.983 527.728 447.463 515.466 447.463 494.724C447.463 473.852 429.983 461.721 404.545 461.721C378.977 461.721 361.497 473.331 361.497 494.724C361.497 515.988 378.977 527.728 404.545 527.728Z" fill="#002770"/>
<path d="M526.392 543.121H501.476V446.197H568.397C601.792 446.197 614.445 458.198 614.445 474.766C614.445 488.854 604.792 497.855 589.269 500.725V500.856C600.226 503.204 605.183 506.856 608.445 521.075L610.01 527.598C611.836 535.425 613.141 538.947 615.228 543.121H589.399C588.095 540.643 587.051 537.643 585.094 529.163L583.398 521.989C581.702 514.422 576.224 511.161 558.874 511.161H526.392V543.121ZM526.392 464.33V493.811H566.44C580.789 493.811 589.399 488.724 589.399 478.157C589.399 469.678 583.137 464.33 567.875 464.33H526.392Z" fill="#002770"/>
<path d="M670.208 543.121H645.292V446.197H670.208V543.121Z" fill="#002770"/>
<path d="M771.64 543.121H707.067V446.197H771.64C813.645 446.197 833.473 468.113 833.473 494.724C833.473 520.162 815.34 543.121 771.64 543.121ZM731.983 464.33V524.989H767.074C791.99 524.989 808.296 515.857 808.296 494.724C808.296 474.244 793.034 464.33 767.074 464.33H731.983Z" fill="#002770"/>
<path d="M980 543.121H952.214L941.909 521.728H883.206L872.77 543.121H845.245L895.86 446.197H928.994L980 543.121ZM911.514 463.416L891.164 505.16H933.951L913.731 463.416L912.688 461.199H912.427L911.514 463.416Z" fill="#002770"/>
<path d="M162.882 630.661H100V561.819H162.882V579.184H119.869V587.404H161.297V604.665H119.869V613.296H162.882V630.661Z" fill="#002770"/>
<path d="M190.3 630.661H164.302L191.04 596.857V595.521L164.302 561.819H190.3L207.421 584.116H208.795L224.965 561.819H250.963L224.331 595.932V597.268L250.963 630.661H224.965L207.95 608.262H206.576L190.3 630.661Z" fill="#002770"/>
<path d="M271.128 630.661H248.829L279.371 561.819H307.8L338.449 630.661H315.621L310.231 617.92H276.624L271.128 630.661ZM288.249 590.897L284.127 600.555H302.939L298.817 590.897L294.167 579.287H292.793L288.249 590.897Z" fill="#002770"/>
<path d="M360.444 630.661H340.576V561.819H367.525L380.524 590.383L387.499 608.159H388.873L395.531 590.383L407.897 561.819H434.846V630.661H414.977V602.199L415.717 590.692H414.343L410.327 602.199L399.759 626.551H375.663L365.094 602.199L361.078 590.692H359.705L360.444 602.199V630.661Z" fill="#002770"/>
<path d="M469.489 630.661H458.075V561.819H492.739C508.486 561.819 519.266 570.553 519.266 585.862C519.266 601.069 508.486 609.906 492.739 609.906H469.489V630.661ZM491.682 571.786H469.489V599.939H491.682C502.357 599.939 507.852 596.035 507.852 585.862C507.852 575.69 502.357 571.786 491.682 571.786Z" fill="#002770"/>
<path d="M537.502 630.661H526.088V561.819H562.867C578.931 561.819 588.865 569.217 588.865 582.061C588.865 593.466 581.15 600.453 567.834 601.172V601.891C573.329 603.33 575.866 606.412 578.402 610.728L590.239 630.661H577.134L565.826 611.652C562.655 606.207 559.379 603.946 550.501 603.946H537.502V630.661ZM537.502 571.786V595.418H562.761C572.272 595.418 577.028 592.233 577.028 583.602C577.028 575.177 572.272 571.786 562.761 571.786H537.502Z" fill="#002770"/>
<path d="M653.742 630.661H597.095V561.819H653.742V571.786H608.509V591.103H652.156V600.966H608.509V620.694H653.742V630.661Z" fill="#002770"/>
<path d="M674.045 630.661H662.631V561.819H697.296C713.043 561.819 723.823 570.553 723.823 585.862C723.823 601.069 713.043 609.906 697.296 609.906H674.045V630.661ZM696.239 571.786H674.045V599.939H696.239C706.913 599.939 712.409 596.035 712.409 585.862C712.409 575.69 706.913 571.786 696.239 571.786Z" fill="#002770"/>
<path d="M737.696 630.501H723.822V614.845H737.696V630.501Z" fill="#002770"/>
<path d="M779.144 631.511C757.925 631.511 743.847 617.774 743.847 596.665C743.847 575.556 757.925 561.819 779.144 561.819C798.425 561.819 811.891 571.92 811.891 588.08V589.494H799.751V588.08C799.751 577.778 793.12 572.223 779.246 572.223C763.23 572.223 755.477 579.798 755.477 596.665C755.477 613.532 763.23 621.006 779.246 621.006C793.12 621.006 799.751 615.552 799.751 605.149V603.836H811.891V605.149C811.891 621.41 798.527 631.511 779.144 631.511Z" fill="#002770"/>
<path d="M853.571 631.511C832.148 631.511 817.967 617.774 817.967 596.665C817.967 575.556 832.148 561.819 853.571 561.819C875.198 561.819 889.276 575.556 889.276 596.665C889.276 617.774 875.198 631.511 853.571 631.511ZM853.571 621.006C869.791 621.006 877.646 613.532 877.646 596.665C877.646 579.798 869.791 572.223 853.571 572.223C837.35 572.223 829.597 579.798 829.597 596.665C829.597 613.532 837.35 621.006 853.571 621.006Z" fill="#002770"/>
<path d="M908.434 630.501H897.416V562.829H912.412L932.101 602.018L938.324 616.057H939.14L945.159 602.018L964.644 562.829H979.64V630.501H968.623V588.989L969.031 579.192H968.215L964.032 588.989L945.159 626.461H931.897L913.024 588.989L908.842 579.192H908.026L908.434 588.989V630.501Z" fill="#002770"/>
<path d="M690.956 457.239C704.667 462.102 791.539 438.511 797.978 427.132C814.281 429.606 823.842 431.676 821.465 435.074C815.337 444.014 796.377 450.765 790.874 451.257C780.951 452.144 760.384 453.371 751.378 454.218C709.73 464.775 690.147 466.692 688.01 461.107C687.76 460.027 687.859 456.141 690.956 457.239Z" fill="white"/>
<path d="M698.849 404.605C695.701 409.094 693.181 414.288 691.478 420.184C688.986 429.184 688.362 440.129 690.287 453.151C690.303 453.258 690.319 453.365 690.335 453.472C690.344 453.531 690.352 453.59 690.36 453.649C690.535 454.827 690.734 456.024 690.956 457.239C704.667 462.102 791.539 438.511 797.978 427.132C784.124 377.221 722.994 370.175 698.849 404.605Z" fill="white"/>
<path d="M690.956 457.239C704.667 462.102 791.539 438.511 797.978 427.132M690.956 457.239C687.859 456.141 687.76 460.027 688.01 461.107C690.147 466.692 709.73 464.775 751.378 454.218C760.384 453.371 780.951 452.144 790.874 451.257C796.377 450.765 815.337 444.014 821.465 435.074C823.842 431.676 814.281 429.606 797.978 427.132M690.956 457.239C690.734 456.024 690.535 454.827 690.36 453.649M690.956 457.239C688.018 442.781 688.518 430.424 691.478 420.184M774.819 437.796C773.482 429.035 771.048 422.588 766.314 416.434C740.817 383.287 680.72 386.619 690.287 453.151M797.978 427.132C784.124 377.221 722.994 370.175 698.849 404.605M690.964 457.238C690.731 455.964 690.522 454.709 690.335 453.472M776.519 411.634C756.508 385.482 717.855 378.572 698.849 404.605M690.948 457.241C690.722 456.021 690.527 454.824 690.36 453.649M756.902 422.813C734.691 395.084 682.558 397.779 690.335 453.472M698.849 404.605C695.701 409.094 693.181 414.288 691.478 420.184M698.849 404.605C695.683 408.942 693.156 414.121 691.478 420.184M691.478 420.184C688.986 429.184 688.362 440.129 690.287 453.151M690.287 453.151C690.303 453.258 690.319 453.365 690.335 453.472M690.287 453.151C690.311 453.317 690.335 453.483 690.36 453.649M690.335 453.472C690.344 453.531 690.352 453.59 690.36 453.649" stroke="#FF6200" stroke-width="6.79915" stroke-linecap="round" stroke-linejoin="round"/>
</svg>
