<svg width="187" height="93" viewBox="0 0 187 93" fill="none" xmlns="http://www.w3.org/2000/svg">
<mask id="path-1-outside-1_279_1461" maskUnits="userSpaceOnUse" x="0.800781" y="-0.171875" width="76" height="22" fill="black">
<rect fill="white" x="0.800781" y="-0.171875" width="76" height="22"/>
<path d="M49.6716 19.4047C49.4197 19.5669 49.1897 19.7154 48.9642 19.8605C48.6164 19.3766 48.2936 18.8947 47.9378 18.4389C47.2474 17.5538 46.3593 16.9355 45.3222 16.5079C43.9018 15.9216 42.431 15.5365 40.9085 15.3629C40.0315 15.263 39.1545 15.2696 38.2817 15.4672C37.6146 15.6179 37.0927 15.9947 36.5921 16.4247C36.1928 16.7678 35.8034 17.1237 35.3895 17.448C34.7436 17.9532 33.9865 18.2308 33.2093 18.4601C32.5807 18.6452 31.9546 18.8376 31.3288 19.0307C31.217 19.0652 31.111 19.1201 30.9949 19.1685C31.0425 19.5972 31.0891 20.0192 31.1402 20.4826C29.8115 19.8567 28.5735 19.1275 27.1858 18.8592C27.1507 18.2465 27.117 17.6609 27.0826 17.0695C26.0232 16.6116 25.3919 15.7299 24.8367 14.8083C24.2318 13.8031 23.4761 12.982 22.4281 12.4514C21.2395 11.8491 20.0439 11.2604 18.8476 10.6738C17.9592 10.2379 17.0426 9.87011 16.0882 9.60395C15.124 9.335 14.1435 9.14677 13.1459 9.06153C12.5049 9.00656 11.8624 8.96098 11.2197 8.94323C10.1342 8.91227 9.04808 8.88896 7.96229 8.89487C6.66247 8.90218 5.36299 8.94323 4.06317 8.96968C3.98847 8.97072 3.91376 8.96968 3.82204 8.96968C3.79354 8.88304 3.7727 8.80267 3.74108 8.72682C3.66812 8.55181 3.6153 8.3608 3.50759 8.20945C3.32518 7.95338 3.2331 7.68651 3.22581 7.37059C3.21956 7.08251 3.15319 6.79617 3.13234 6.50773C3.11949 6.32681 3.09794 6.12605 3.15979 5.96531C3.24144 5.75342 3.18376 5.59685 3.09864 5.41767C2.95132 5.10871 2.89885 4.77574 2.96973 4.44278C3.00621 4.2709 2.96452 4.15747 2.86515 4.03187C2.4621 3.52216 2.13341 2.96999 1.93745 2.34442C1.78666 1.86323 1.76581 1.37718 1.84954 0.877899C2.37837 0.681667 2.91796 0.595728 3.46103 0.543539C4.64446 0.429419 5.81954 0.531363 6.99255 0.698021C7.8101 0.814228 8.6294 0.915474 9.44973 1.00802C9.77982 1.04525 10.1144 1.04804 10.4473 1.05499C11.3823 1.07517 12.3173 1.10196 13.2523 1.10127C14.3492 1.10022 15.4461 1.07413 16.543 1.05639C17.1448 1.04664 17.7469 1.00942 18.348 1.02194C19.3032 1.04247 20.2586 1.08352 21.2128 1.13641C22.155 1.18895 23.0966 1.25957 24.0375 1.33542C25.1167 1.42275 26.1942 1.53026 27.2734 1.61725C28.0322 1.67813 28.7924 1.72615 29.5527 1.76825C30.4633 1.8187 31.3747 1.85662 32.2857 1.90116C32.3059 1.90185 32.3253 1.91473 32.3716 1.93247C32.3841 2.21916 32.3945 2.51734 32.4108 2.81482C32.4546 3.62062 32.4873 4.43025 32.7913 5.19082C32.9261 5.52866 33.1168 5.84458 33.277 6.17233C33.3382 6.29689 33.4302 6.33342 33.564 6.3282C34.0258 6.31115 34.4882 6.2941 34.9504 6.29376C37.2116 6.29028 39.4728 6.28784 41.734 6.29341C42.9932 6.29654 44.2531 6.28854 45.5108 6.33412C46.6602 6.37587 47.7905 6.58393 48.9103 6.8487C50.0284 7.11313 51.1472 7.37964 52.2744 7.60058C53.1718 7.77628 54.0849 7.80655 55.0001 7.72374C55.4702 7.68095 55.9431 7.67677 56.4139 7.64163C57.6248 7.55152 58.8371 7.49515 60.0518 7.52055C61.2557 7.5456 62.4596 7.56857 63.6635 7.59605C63.7573 7.59814 63.8501 7.62945 63.9623 7.65068C63.9439 7.87474 63.937 8.08733 63.9074 8.29643C63.7573 9.36109 64.3178 10.2598 65.1614 10.7246C65.1809 10.6029 65.2222 10.4967 65.2107 10.3965C65.0919 9.34091 64.9477 8.28739 64.8456 7.23038C64.7844 6.59924 64.8386 5.96601 64.9825 5.30077C65.1548 5.32025 65.3219 5.33243 65.4859 5.35957C65.914 5.42985 66.0815 5.32234 66.1819 4.90204C66.1892 4.87108 66.1972 4.83941 66.2027 4.80775C66.3497 4.01761 66.7892 3.98525 67.3552 4.13416C67.9386 4.2876 68.4271 4.62579 68.8562 5.0433C69.1564 5.33591 69.4521 5.63617 69.7224 5.95696C69.8534 6.11214 69.9615 6.12988 70.1317 6.05612C70.3982 5.94061 70.6696 5.83762 70.9413 5.73603C71.4315 5.55267 71.9353 5.42463 72.451 5.59859C73.1448 5.83275 73.1667 6.02585 73.2063 6.6389C73.2407 7.17541 73.2185 7.71539 73.2435 8.25294C73.3328 10.1697 73.5687 12.0631 74.1625 13.8981C74.2018 14.0188 74.2396 14.1489 74.2365 14.2738C74.1848 16.3454 74.6708 18.3046 75.4589 20.2019C75.4957 20.2902 75.5287 20.38 75.5756 20.5C75.3202 20.6068 75.0774 20.7088 74.7928 20.8281C74.6152 20.3661 74.4349 19.9312 74.2796 19.4879C73.9273 18.4817 73.6379 17.4563 73.5183 16.3945C73.452 15.8082 73.4544 15.2146 73.4151 14.6249C73.4026 14.4346 73.3766 14.2401 73.3213 14.0585C72.9714 12.9027 72.7272 11.726 72.5833 10.5267C72.4381 9.31899 72.3902 8.10577 72.3909 6.8908C72.3912 6.34281 72.1025 6.29271 71.7658 6.38804C71.3742 6.49868 70.9969 6.65804 70.6119 6.79129C70.3013 6.89915 69.9962 7.02093 69.6498 6.95621C69.4639 6.92142 69.3423 6.83026 69.2283 6.69109C68.7787 6.14032 68.2992 5.61808 67.6975 5.22805C67.5112 5.10732 67.3048 5.01721 67.1304 4.92535C66.9615 5.25484 66.8417 5.57598 66.6478 5.84319C66.4341 6.13754 66.0766 6.20295 65.7003 6.22278C65.7003 6.66639 65.669 7.09608 65.7072 7.51951C65.7726 8.24633 65.8806 8.96933 65.9717 9.69371C66.0036 9.94944 66.0359 10.2055 66.0717 10.4605C66.1103 10.7337 66.0349 10.9765 65.8653 11.1842C65.6829 11.4083 65.4845 11.6188 65.2816 11.8484C63.9272 11.1053 62.9874 10.105 63.0346 8.44604C62.9665 8.43699 62.9255 8.4276 62.8845 8.4269C61.6379 8.39942 60.3909 8.35036 59.1442 8.35454C58.3079 8.35767 57.4709 8.42308 56.6359 8.48397C55.3695 8.57582 54.1009 8.63218 52.8355 8.53267C52.167 8.48014 51.5037 8.32392 50.8453 8.18301C49.6056 7.91754 48.3742 7.61275 47.1328 7.35807C46.6411 7.25682 46.1317 7.21437 45.6286 7.20046C44.3712 7.16532 43.1127 7.15627 41.8546 7.14757C39.8091 7.13331 37.7637 7.12496 35.7186 7.12009C35.0622 7.11869 34.4059 7.134 33.7496 7.14792C33.5463 7.15244 33.343 7.17367 33.1408 7.19628C32.9928 7.21298 32.9004 7.14757 32.8184 7.03276C32.2288 6.20503 31.8229 5.30042 31.6933 4.28621C31.6429 3.89305 31.6311 3.49467 31.5978 3.09907C31.5884 2.98356 31.5662 2.86909 31.5484 2.74558C31.2441 2.72053 30.9578 2.69339 30.6711 2.67426C29.6969 2.6078 28.7226 2.54587 27.749 2.47906C27.0322 2.43001 26.3158 2.37921 25.5997 2.32389C24.8732 2.26787 24.1473 2.20107 23.4205 2.14749C22.7144 2.0953 22.0063 2.06712 21.3014 2.00519C19.3476 1.83331 17.3894 1.89455 15.4325 1.88968C14.0017 1.88654 12.5706 1.91681 11.1397 1.91681C9.87119 1.91681 8.61272 1.78078 7.35668 1.60751C6.63536 1.508 5.90641 1.46068 5.18405 1.36604C4.3856 1.26132 3.60244 1.365 2.81894 1.49478C2.77759 1.50174 2.73798 1.51809 2.68239 1.53444C2.62888 1.81417 2.72235 2.06434 2.8245 2.30997C3.07501 2.91224 3.45269 3.4317 3.88319 3.91601C3.93183 3.97064 3.97492 4.03083 4.01591 4.08267C3.67715 4.76426 3.67645 4.91248 4.31021 5.68766C4.27164 5.74055 4.2362 5.80526 4.18582 5.85432C3.96032 6.07317 3.93252 6.3362 3.99333 6.62707C4.02182 6.76381 4.06421 6.91063 4.04128 7.04215C3.96797 7.45862 4.22925 7.73174 4.43216 8.02957C4.46483 8.07724 4.55899 8.10577 4.62465 8.10542C5.43109 8.09742 6.23718 8.08211 7.04362 8.06958C7.1621 8.0675 7.28059 8.06819 7.39907 8.06819C8.64816 8.06784 9.89795 8.03827 11.146 8.0748C13.2245 8.13499 15.2831 8.3695 17.2514 9.08658C18.1583 9.41711 19.0467 9.80679 19.9192 10.2205C20.9094 10.6895 21.8677 11.226 22.8486 11.7148C24.0243 12.3014 24.8735 13.2175 25.558 14.3163C25.8019 14.707 26.0792 15.0783 26.3554 15.4478C26.7154 15.9293 27.1952 16.2396 27.7786 16.3886C27.8297 16.4014 27.879 16.4227 27.9273 16.4435C27.9457 16.4515 27.9592 16.4707 27.9996 16.5069C27.7907 17.0555 28.0072 17.6101 28.0235 18.1519C28.7118 18.4299 29.3769 18.6985 30.0645 18.9761C30.0238 18.6915 30.2201 18.6017 30.4279 18.497C31.1541 18.1313 31.9327 17.9236 32.711 17.7156C33.4841 17.5089 34.2409 17.2636 34.8805 16.7643C35.2697 16.4613 35.6307 16.1224 36.0031 15.7978C36.5973 15.279 37.2338 14.8197 38.0086 14.627C38.4311 14.5223 38.8748 14.4927 39.3109 14.453C40.3459 14.3594 41.372 14.477 42.3751 14.7077C43.9046 15.0595 45.4104 15.4954 46.7867 16.288C47.5737 16.7414 48.2012 17.3694 48.7463 18.0826C49.0646 18.4998 49.3498 18.9427 49.6716 19.4047Z"/>
</mask>
<path d="M49.6716 19.4047C49.4197 19.5669 49.1897 19.7154 48.9642 19.8605C48.6164 19.3766 48.2936 18.8947 47.9378 18.4389C47.2474 17.5538 46.3593 16.9355 45.3222 16.5079C43.9018 15.9216 42.431 15.5365 40.9085 15.3629C40.0315 15.263 39.1545 15.2696 38.2817 15.4672C37.6146 15.6179 37.0927 15.9947 36.5921 16.4247C36.1928 16.7678 35.8034 17.1237 35.3895 17.448C34.7436 17.9532 33.9865 18.2308 33.2093 18.4601C32.5807 18.6452 31.9546 18.8376 31.3288 19.0307C31.217 19.0652 31.111 19.1201 30.9949 19.1685C31.0425 19.5972 31.0891 20.0192 31.1402 20.4826C29.8115 19.8567 28.5735 19.1275 27.1858 18.8592C27.1507 18.2465 27.117 17.6609 27.0826 17.0695C26.0232 16.6116 25.3919 15.7299 24.8367 14.8083C24.2318 13.8031 23.4761 12.982 22.4281 12.4514C21.2395 11.8491 20.0439 11.2604 18.8476 10.6738C17.9592 10.2379 17.0426 9.87011 16.0882 9.60395C15.124 9.335 14.1435 9.14677 13.1459 9.06153C12.5049 9.00656 11.8624 8.96098 11.2197 8.94323C10.1342 8.91227 9.04808 8.88896 7.96229 8.89487C6.66247 8.90218 5.36299 8.94323 4.06317 8.96968C3.98847 8.97072 3.91376 8.96968 3.82204 8.96968C3.79354 8.88304 3.7727 8.80267 3.74108 8.72682C3.66812 8.55181 3.6153 8.3608 3.50759 8.20945C3.32518 7.95338 3.2331 7.68651 3.22581 7.37059C3.21956 7.08251 3.15319 6.79617 3.13234 6.50773C3.11949 6.32681 3.09794 6.12605 3.15979 5.96531C3.24144 5.75342 3.18376 5.59685 3.09864 5.41767C2.95132 5.10871 2.89885 4.77574 2.96973 4.44278C3.00621 4.2709 2.96452 4.15747 2.86515 4.03187C2.4621 3.52216 2.13341 2.96999 1.93745 2.34442C1.78666 1.86323 1.76581 1.37718 1.84954 0.877899C2.37837 0.681667 2.91796 0.595728 3.46103 0.543539C4.64446 0.429419 5.81954 0.531363 6.99255 0.698021C7.8101 0.814228 8.6294 0.915474 9.44973 1.00802C9.77982 1.04525 10.1144 1.04804 10.4473 1.05499C11.3823 1.07517 12.3173 1.10196 13.2523 1.10127C14.3492 1.10022 15.4461 1.07413 16.543 1.05639C17.1448 1.04664 17.7469 1.00942 18.348 1.02194C19.3032 1.04247 20.2586 1.08352 21.2128 1.13641C22.155 1.18895 23.0966 1.25957 24.0375 1.33542C25.1167 1.42275 26.1942 1.53026 27.2734 1.61725C28.0322 1.67813 28.7924 1.72615 29.5527 1.76825C30.4633 1.8187 31.3747 1.85662 32.2857 1.90116C32.3059 1.90185 32.3253 1.91473 32.3716 1.93247C32.3841 2.21916 32.3945 2.51734 32.4108 2.81482C32.4546 3.62062 32.4873 4.43025 32.7913 5.19082C32.9261 5.52866 33.1168 5.84458 33.277 6.17233C33.3382 6.29689 33.4302 6.33342 33.564 6.3282C34.0258 6.31115 34.4882 6.2941 34.9504 6.29376C37.2116 6.29028 39.4728 6.28784 41.734 6.29341C42.9932 6.29654 44.2531 6.28854 45.5108 6.33412C46.6602 6.37587 47.7905 6.58393 48.9103 6.8487C50.0284 7.11313 51.1472 7.37964 52.2744 7.60058C53.1718 7.77628 54.0849 7.80655 55.0001 7.72374C55.4702 7.68095 55.9431 7.67677 56.4139 7.64163C57.6248 7.55152 58.8371 7.49515 60.0518 7.52055C61.2557 7.5456 62.4596 7.56857 63.6635 7.59605C63.7573 7.59814 63.8501 7.62945 63.9623 7.65068C63.9439 7.87474 63.937 8.08733 63.9074 8.29643C63.7573 9.36109 64.3178 10.2598 65.1614 10.7246C65.1809 10.6029 65.2222 10.4967 65.2107 10.3965C65.0919 9.34091 64.9477 8.28739 64.8456 7.23038C64.7844 6.59924 64.8386 5.96601 64.9825 5.30077C65.1548 5.32025 65.3219 5.33243 65.4859 5.35957C65.914 5.42985 66.0815 5.32234 66.1819 4.90204C66.1892 4.87108 66.1972 4.83941 66.2027 4.80775C66.3497 4.01761 66.7892 3.98525 67.3552 4.13416C67.9386 4.2876 68.4271 4.62579 68.8562 5.0433C69.1564 5.33591 69.4521 5.63617 69.7224 5.95696C69.8534 6.11214 69.9615 6.12988 70.1317 6.05612C70.3982 5.94061 70.6696 5.83762 70.9413 5.73603C71.4315 5.55267 71.9353 5.42463 72.451 5.59859C73.1448 5.83275 73.1667 6.02585 73.2063 6.6389C73.2407 7.17541 73.2185 7.71539 73.2435 8.25294C73.3328 10.1697 73.5687 12.0631 74.1625 13.8981C74.2018 14.0188 74.2396 14.1489 74.2365 14.2738C74.1848 16.3454 74.6708 18.3046 75.4589 20.2019C75.4957 20.2902 75.5287 20.38 75.5756 20.5C75.3202 20.6068 75.0774 20.7088 74.7928 20.8281C74.6152 20.3661 74.4349 19.9312 74.2796 19.4879C73.9273 18.4817 73.6379 17.4563 73.5183 16.3945C73.452 15.8082 73.4544 15.2146 73.4151 14.6249C73.4026 14.4346 73.3766 14.2401 73.3213 14.0585C72.9714 12.9027 72.7272 11.726 72.5833 10.5267C72.4381 9.31899 72.3902 8.10577 72.3909 6.8908C72.3912 6.34281 72.1025 6.29271 71.7658 6.38804C71.3742 6.49868 70.9969 6.65804 70.6119 6.79129C70.3013 6.89915 69.9962 7.02093 69.6498 6.95621C69.4639 6.92142 69.3423 6.83026 69.2283 6.69109C68.7787 6.14032 68.2992 5.61808 67.6975 5.22805C67.5112 5.10732 67.3048 5.01721 67.1304 4.92535C66.9615 5.25484 66.8417 5.57598 66.6478 5.84319C66.4341 6.13754 66.0766 6.20295 65.7003 6.22278C65.7003 6.66639 65.669 7.09608 65.7072 7.51951C65.7726 8.24633 65.8806 8.96933 65.9717 9.69371C66.0036 9.94944 66.0359 10.2055 66.0717 10.4605C66.1103 10.7337 66.0349 10.9765 65.8653 11.1842C65.6829 11.4083 65.4845 11.6188 65.2816 11.8484C63.9272 11.1053 62.9874 10.105 63.0346 8.44604C62.9665 8.43699 62.9255 8.4276 62.8845 8.4269C61.6379 8.39942 60.3909 8.35036 59.1442 8.35454C58.3079 8.35767 57.4709 8.42308 56.6359 8.48397C55.3695 8.57582 54.1009 8.63218 52.8355 8.53267C52.167 8.48014 51.5037 8.32392 50.8453 8.18301C49.6056 7.91754 48.3742 7.61275 47.1328 7.35807C46.6411 7.25682 46.1317 7.21437 45.6286 7.20046C44.3712 7.16532 43.1127 7.15627 41.8546 7.14757C39.8091 7.13331 37.7637 7.12496 35.7186 7.12009C35.0622 7.11869 34.4059 7.134 33.7496 7.14792C33.5463 7.15244 33.343 7.17367 33.1408 7.19628C32.9928 7.21298 32.9004 7.14757 32.8184 7.03276C32.2288 6.20503 31.8229 5.30042 31.6933 4.28621C31.6429 3.89305 31.6311 3.49467 31.5978 3.09907C31.5884 2.98356 31.5662 2.86909 31.5484 2.74558C31.2441 2.72053 30.9578 2.69339 30.6711 2.67426C29.6969 2.6078 28.7226 2.54587 27.749 2.47906C27.0322 2.43001 26.3158 2.37921 25.5997 2.32389C24.8732 2.26787 24.1473 2.20107 23.4205 2.14749C22.7144 2.0953 22.0063 2.06712 21.3014 2.00519C19.3476 1.83331 17.3894 1.89455 15.4325 1.88968C14.0017 1.88654 12.5706 1.91681 11.1397 1.91681C9.87119 1.91681 8.61272 1.78078 7.35668 1.60751C6.63536 1.508 5.90641 1.46068 5.18405 1.36604C4.3856 1.26132 3.60244 1.365 2.81894 1.49478C2.77759 1.50174 2.73798 1.51809 2.68239 1.53444C2.62888 1.81417 2.72235 2.06434 2.8245 2.30997C3.07501 2.91224 3.45269 3.4317 3.88319 3.91601C3.93183 3.97064 3.97492 4.03083 4.01591 4.08267C3.67715 4.76426 3.67645 4.91248 4.31021 5.68766C4.27164 5.74055 4.2362 5.80526 4.18582 5.85432C3.96032 6.07317 3.93252 6.3362 3.99333 6.62707C4.02182 6.76381 4.06421 6.91063 4.04128 7.04215C3.96797 7.45862 4.22925 7.73174 4.43216 8.02957C4.46483 8.07724 4.55899 8.10577 4.62465 8.10542C5.43109 8.09742 6.23718 8.08211 7.04362 8.06958C7.1621 8.0675 7.28059 8.06819 7.39907 8.06819C8.64816 8.06784 9.89795 8.03827 11.146 8.0748C13.2245 8.13499 15.2831 8.3695 17.2514 9.08658C18.1583 9.41711 19.0467 9.80679 19.9192 10.2205C20.9094 10.6895 21.8677 11.226 22.8486 11.7148C24.0243 12.3014 24.8735 13.2175 25.558 14.3163C25.8019 14.707 26.0792 15.0783 26.3554 15.4478C26.7154 15.9293 27.1952 16.2396 27.7786 16.3886C27.8297 16.4014 27.879 16.4227 27.9273 16.4435C27.9457 16.4515 27.9592 16.4707 27.9996 16.5069C27.7907 17.0555 28.0072 17.6101 28.0235 18.1519C28.7118 18.4299 29.3769 18.6985 30.0645 18.9761C30.0238 18.6915 30.2201 18.6017 30.4279 18.497C31.1541 18.1313 31.9327 17.9236 32.711 17.7156C33.4841 17.5089 34.2409 17.2636 34.8805 16.7643C35.2697 16.4613 35.6307 16.1224 36.0031 15.7978C36.5973 15.279 37.2338 14.8197 38.0086 14.627C38.4311 14.5223 38.8748 14.4927 39.3109 14.453C40.3459 14.3594 41.372 14.477 42.3751 14.7077C43.9046 15.0595 45.4104 15.4954 46.7867 16.288C47.5737 16.7414 48.2012 17.3694 48.7463 18.0826C49.0646 18.4998 49.3498 18.9427 49.6716 19.4047Z" fill="#FF6200"/>
<path d="M49.6716 19.4047C49.4197 19.5669 49.1897 19.7154 48.9642 19.8605C48.6164 19.3766 48.2936 18.8947 47.9378 18.4389C47.2474 17.5538 46.3593 16.9355 45.3222 16.5079C43.9018 15.9216 42.431 15.5365 40.9085 15.3629C40.0315 15.263 39.1545 15.2696 38.2817 15.4672C37.6146 15.6179 37.0927 15.9947 36.5921 16.4247C36.1928 16.7678 35.8034 17.1237 35.3895 17.448C34.7436 17.9532 33.9865 18.2308 33.2093 18.4601C32.5807 18.6452 31.9546 18.8376 31.3288 19.0307C31.217 19.0652 31.111 19.1201 30.9949 19.1685C31.0425 19.5972 31.0891 20.0192 31.1402 20.4826C29.8115 19.8567 28.5735 19.1275 27.1858 18.8592C27.1507 18.2465 27.117 17.6609 27.0826 17.0695C26.0232 16.6116 25.3919 15.7299 24.8367 14.8083C24.2318 13.8031 23.4761 12.982 22.4281 12.4514C21.2395 11.8491 20.0439 11.2604 18.8476 10.6738C17.9592 10.2379 17.0426 9.87011 16.0882 9.60395C15.124 9.335 14.1435 9.14677 13.1459 9.06153C12.5049 9.00656 11.8624 8.96098 11.2197 8.94323C10.1342 8.91227 9.04808 8.88896 7.96229 8.89487C6.66247 8.90218 5.36299 8.94323 4.06317 8.96968C3.98847 8.97072 3.91376 8.96968 3.82204 8.96968C3.79354 8.88304 3.7727 8.80267 3.74108 8.72682C3.66812 8.55181 3.6153 8.3608 3.50759 8.20945C3.32518 7.95338 3.2331 7.68651 3.22581 7.37059C3.21956 7.08251 3.15319 6.79617 3.13234 6.50773C3.11949 6.32681 3.09794 6.12605 3.15979 5.96531C3.24144 5.75342 3.18376 5.59685 3.09864 5.41767C2.95132 5.10871 2.89885 4.77574 2.96973 4.44278C3.00621 4.2709 2.96452 4.15747 2.86515 4.03187C2.4621 3.52216 2.13341 2.96999 1.93745 2.34442C1.78666 1.86323 1.76581 1.37718 1.84954 0.877899C2.37837 0.681667 2.91796 0.595728 3.46103 0.543539C4.64446 0.429419 5.81954 0.531363 6.99255 0.698021C7.8101 0.814228 8.6294 0.915474 9.44973 1.00802C9.77982 1.04525 10.1144 1.04804 10.4473 1.05499C11.3823 1.07517 12.3173 1.10196 13.2523 1.10127C14.3492 1.10022 15.4461 1.07413 16.543 1.05639C17.1448 1.04664 17.7469 1.00942 18.348 1.02194C19.3032 1.04247 20.2586 1.08352 21.2128 1.13641C22.155 1.18895 23.0966 1.25957 24.0375 1.33542C25.1167 1.42275 26.1942 1.53026 27.2734 1.61725C28.0322 1.67813 28.7924 1.72615 29.5527 1.76825C30.4633 1.8187 31.3747 1.85662 32.2857 1.90116C32.3059 1.90185 32.3253 1.91473 32.3716 1.93247C32.3841 2.21916 32.3945 2.51734 32.4108 2.81482C32.4546 3.62062 32.4873 4.43025 32.7913 5.19082C32.9261 5.52866 33.1168 5.84458 33.277 6.17233C33.3382 6.29689 33.4302 6.33342 33.564 6.3282C34.0258 6.31115 34.4882 6.2941 34.9504 6.29376C37.2116 6.29028 39.4728 6.28784 41.734 6.29341C42.9932 6.29654 44.2531 6.28854 45.5108 6.33412C46.6602 6.37587 47.7905 6.58393 48.9103 6.8487C50.0284 7.11313 51.1472 7.37964 52.2744 7.60058C53.1718 7.77628 54.0849 7.80655 55.0001 7.72374C55.4702 7.68095 55.9431 7.67677 56.4139 7.64163C57.6248 7.55152 58.8371 7.49515 60.0518 7.52055C61.2557 7.5456 62.4596 7.56857 63.6635 7.59605C63.7573 7.59814 63.8501 7.62945 63.9623 7.65068C63.9439 7.87474 63.937 8.08733 63.9074 8.29643C63.7573 9.36109 64.3178 10.2598 65.1614 10.7246C65.1809 10.6029 65.2222 10.4967 65.2107 10.3965C65.0919 9.34091 64.9477 8.28739 64.8456 7.23038C64.7844 6.59924 64.8386 5.96601 64.9825 5.30077C65.1548 5.32025 65.3219 5.33243 65.4859 5.35957C65.914 5.42985 66.0815 5.32234 66.1819 4.90204C66.1892 4.87108 66.1972 4.83941 66.2027 4.80775C66.3497 4.01761 66.7892 3.98525 67.3552 4.13416C67.9386 4.2876 68.4271 4.62579 68.8562 5.0433C69.1564 5.33591 69.4521 5.63617 69.7224 5.95696C69.8534 6.11214 69.9615 6.12988 70.1317 6.05612C70.3982 5.94061 70.6696 5.83762 70.9413 5.73603C71.4315 5.55267 71.9353 5.42463 72.451 5.59859C73.1448 5.83275 73.1667 6.02585 73.2063 6.6389C73.2407 7.17541 73.2185 7.71539 73.2435 8.25294C73.3328 10.1697 73.5687 12.0631 74.1625 13.8981C74.2018 14.0188 74.2396 14.1489 74.2365 14.2738C74.1848 16.3454 74.6708 18.3046 75.4589 20.2019C75.4957 20.2902 75.5287 20.38 75.5756 20.5C75.3202 20.6068 75.0774 20.7088 74.7928 20.8281C74.6152 20.3661 74.4349 19.9312 74.2796 19.4879C73.9273 18.4817 73.6379 17.4563 73.5183 16.3945C73.452 15.8082 73.4544 15.2146 73.4151 14.6249C73.4026 14.4346 73.3766 14.2401 73.3213 14.0585C72.9714 12.9027 72.7272 11.726 72.5833 10.5267C72.4381 9.31899 72.3902 8.10577 72.3909 6.8908C72.3912 6.34281 72.1025 6.29271 71.7658 6.38804C71.3742 6.49868 70.9969 6.65804 70.6119 6.79129C70.3013 6.89915 69.9962 7.02093 69.6498 6.95621C69.4639 6.92142 69.3423 6.83026 69.2283 6.69109C68.7787 6.14032 68.2992 5.61808 67.6975 5.22805C67.5112 5.10732 67.3048 5.01721 67.1304 4.92535C66.9615 5.25484 66.8417 5.57598 66.6478 5.84319C66.4341 6.13754 66.0766 6.20295 65.7003 6.22278C65.7003 6.66639 65.669 7.09608 65.7072 7.51951C65.7726 8.24633 65.8806 8.96933 65.9717 9.69371C66.0036 9.94944 66.0359 10.2055 66.0717 10.4605C66.1103 10.7337 66.0349 10.9765 65.8653 11.1842C65.6829 11.4083 65.4845 11.6188 65.2816 11.8484C63.9272 11.1053 62.9874 10.105 63.0346 8.44604C62.9665 8.43699 62.9255 8.4276 62.8845 8.4269C61.6379 8.39942 60.3909 8.35036 59.1442 8.35454C58.3079 8.35767 57.4709 8.42308 56.6359 8.48397C55.3695 8.57582 54.1009 8.63218 52.8355 8.53267C52.167 8.48014 51.5037 8.32392 50.8453 8.18301C49.6056 7.91754 48.3742 7.61275 47.1328 7.35807C46.6411 7.25682 46.1317 7.21437 45.6286 7.20046C44.3712 7.16532 43.1127 7.15627 41.8546 7.14757C39.8091 7.13331 37.7637 7.12496 35.7186 7.12009C35.0622 7.11869 34.4059 7.134 33.7496 7.14792C33.5463 7.15244 33.343 7.17367 33.1408 7.19628C32.9928 7.21298 32.9004 7.14757 32.8184 7.03276C32.2288 6.20503 31.8229 5.30042 31.6933 4.28621C31.6429 3.89305 31.6311 3.49467 31.5978 3.09907C31.5884 2.98356 31.5662 2.86909 31.5484 2.74558C31.2441 2.72053 30.9578 2.69339 30.6711 2.67426C29.6969 2.6078 28.7226 2.54587 27.749 2.47906C27.0322 2.43001 26.3158 2.37921 25.5997 2.32389C24.8732 2.26787 24.1473 2.20107 23.4205 2.14749C22.7144 2.0953 22.0063 2.06712 21.3014 2.00519C19.3476 1.83331 17.3894 1.89455 15.4325 1.88968C14.0017 1.88654 12.5706 1.91681 11.1397 1.91681C9.87119 1.91681 8.61272 1.78078 7.35668 1.60751C6.63536 1.508 5.90641 1.46068 5.18405 1.36604C4.3856 1.26132 3.60244 1.365 2.81894 1.49478C2.77759 1.50174 2.73798 1.51809 2.68239 1.53444C2.62888 1.81417 2.72235 2.06434 2.8245 2.30997C3.07501 2.91224 3.45269 3.4317 3.88319 3.91601C3.93183 3.97064 3.97492 4.03083 4.01591 4.08267C3.67715 4.76426 3.67645 4.91248 4.31021 5.68766C4.27164 5.74055 4.2362 5.80526 4.18582 5.85432C3.96032 6.07317 3.93252 6.3362 3.99333 6.62707C4.02182 6.76381 4.06421 6.91063 4.04128 7.04215C3.96797 7.45862 4.22925 7.73174 4.43216 8.02957C4.46483 8.07724 4.55899 8.10577 4.62465 8.10542C5.43109 8.09742 6.23718 8.08211 7.04362 8.06958C7.1621 8.0675 7.28059 8.06819 7.39907 8.06819C8.64816 8.06784 9.89795 8.03827 11.146 8.0748C13.2245 8.13499 15.2831 8.3695 17.2514 9.08658C18.1583 9.41711 19.0467 9.80679 19.9192 10.2205C20.9094 10.6895 21.8677 11.226 22.8486 11.7148C24.0243 12.3014 24.8735 13.2175 25.558 14.3163C25.8019 14.707 26.0792 15.0783 26.3554 15.4478C26.7154 15.9293 27.1952 16.2396 27.7786 16.3886C27.8297 16.4014 27.879 16.4227 27.9273 16.4435C27.9457 16.4515 27.9592 16.4707 27.9996 16.5069C27.7907 17.0555 28.0072 17.6101 28.0235 18.1519C28.7118 18.4299 29.3769 18.6985 30.0645 18.9761C30.0238 18.6915 30.2201 18.6017 30.4279 18.497C31.1541 18.1313 31.9327 17.9236 32.711 17.7156C33.4841 17.5089 34.2409 17.2636 34.8805 16.7643C35.2697 16.4613 35.6307 16.1224 36.0031 15.7978C36.5973 15.279 37.2338 14.8197 38.0086 14.627C38.4311 14.5223 38.8748 14.4927 39.3109 14.453C40.3459 14.3594 41.372 14.477 42.3751 14.7077C43.9046 15.0595 45.4104 15.4954 46.7867 16.288C47.5737 16.7414 48.2012 17.3694 48.7463 18.0826C49.0646 18.4998 49.3498 18.9427 49.6716 19.4047Z" stroke="#FF6200" stroke-width="0.989906" stroke-linejoin="round" mask="url(#path-1-outside-1_279_1461)"/>
<path d="M88.9753 90.331L89.0198 90.3193C89.0343 90.3139 89.0487 90.3072 89.0619 90.2992C89.2017 90.2142 89.3323 90.1527 89.5002 90.0598C89.6543 89.9746 89.8206 89.8714 89.9593 89.7287C90.7351 88.9309 91.4831 88.1068 92.2153 87.2722C92.5671 86.8713 93.037 86.3662 93.0373 85.6533C93.0379 84.9151 93.0474 84.1492 92.96 83.3952C92.8301 82.2704 92.8137 81.1963 93.1406 80.1301C93.7513 78.1393 93.7702 76.1169 93.4614 74.0946C93.2121 72.4654 92.7767 70.8851 92.3008 69.3262C92.1831 68.9404 92.0585 68.5549 91.9339 68.1617C91.8928 68.0321 91.7544 67.96 91.6245 68.0001C91.3704 68.0786 91.1556 68.1441 90.9479 68.2083C90.8575 68.2363 90.7907 68.314 90.7762 68.4075C90.7746 68.418 90.7756 68.4115 90.7698 68.4393C90.7679 68.4489 90.7642 68.468 90.7629 68.491C90.7616 68.5159 90.7622 68.5511 90.7741 68.5902C91.1081 69.7433 91.4535 70.8838 91.7713 72.0351C92.071 73.1214 92.2543 74.234 92.3656 75.3624C92.5129 76.8624 92.3599 78.3357 91.9426 79.7873C91.6505 80.8026 91.523 81.8391 91.6717 82.9144C91.7668 83.6022 91.8035 84.3007 91.8449 85.0102C91.8706 85.4498 91.8027 85.8273 91.5293 86.1312C90.6799 87.0759 89.8413 88.0229 88.9829 88.9541C88.9594 88.9796 88.9167 89.0088 88.8489 89.0387C88.7825 89.068 88.7054 89.0915 88.6249 89.1131C88.0335 89.2712 87.434 89.1995 86.7969 89.0645C85.6652 88.8252 84.8301 88.2775 84.4202 87.2011C84.2364 86.7189 84.0617 86.2363 83.9142 85.7485C83.4487 84.2088 82.5562 83.0018 81.0603 82.2778C80.6769 82.0923 80.306 81.8793 79.9234 81.6638C79.318 81.3223 78.8573 80.8665 78.5971 80.2064C78.571 80.1403 78.5174 80.0884 78.4506 80.0642C78.3838 80.0401 78.3094 80.0455 78.2471 80.0796C77.9833 80.2241 77.76 80.2331 77.5553 80.1765C77.3388 80.1165 77.1275 79.9784 76.9064 79.8001C76.4705 79.4484 76.0456 79.0934 75.6943 78.6936L75.5481 78.5187C74.6011 77.3278 73.7208 76.1963 73.7651 74.6329C73.7669 74.567 73.7422 74.5031 73.6967 74.4554C73.6511 74.4076 73.588 74.3798 73.5219 74.3786C73.3271 74.3751 73.1285 74.3721 72.9483 74.3688C72.8489 73.7934 72.7512 73.2272 72.6531 72.6617C72.6314 72.5364 72.6119 72.4219 72.5866 72.3343C72.5625 72.2511 72.5168 72.1294 72.3994 72.0544C72.282 71.9797 72.153 71.9896 72.0684 72.0027C71.9793 72.0165 71.8678 72.047 71.7476 72.079C71.6351 72.1088 71.496 72.1658 71.4129 72.2984C71.3257 72.4376 71.3421 72.5916 71.3777 72.7138L71.3779 72.7148C71.432 72.899 71.4801 73.0641 71.5045 73.229C71.5469 73.5164 71.5855 73.8054 71.6238 74.0964C71.6619 74.3865 71.7005 74.6794 71.7444 74.9714C71.7615 75.0851 71.7771 75.1906 71.8008 75.2749C71.8254 75.3621 71.8684 75.4647 71.9638 75.541C72.0555 75.6143 72.1624 75.6363 72.2486 75.6464C72.33 75.6559 72.4316 75.6581 72.5425 75.6609C72.5436 75.6615 72.5452 75.6614 72.5467 75.6622C72.5501 75.6641 72.5539 75.6664 72.5578 75.6692C72.5643 75.6738 72.5686 75.6792 72.572 75.6826C72.6094 75.777 72.6398 75.8773 72.672 75.9914C72.7045 76.1068 72.7403 76.238 72.7902 76.3654C73.4117 77.9482 74.3902 79.2838 75.6393 80.4156L75.8063 80.5622C76.2025 80.8977 76.6504 81.1894 77.1814 81.3501C77.2082 81.3582 77.2816 81.3896 77.3956 81.4479C77.5029 81.5028 77.6309 81.573 77.7578 81.6458C77.8849 81.7188 78.0095 81.7932 78.1096 81.8576C78.2174 81.9269 78.277 81.9722 78.2926 81.9874L78.5012 82.1793C78.9995 82.6089 79.5681 82.9197 80.1346 83.1941C81.1895 83.7051 82.0456 84.3555 82.4674 85.4279C82.7023 86.0254 82.9058 86.6384 83.1067 87.2568C83.3799 88.0968 83.8066 88.7804 84.3933 89.2919C84.9801 89.8036 85.7146 90.1331 86.5847 90.2846C87.1521 90.3834 87.7542 90.3945 88.2926 90.4411C88.3138 90.443 88.3355 90.4416 88.3565 90.438L88.9753 90.331Z" fill="#FF6200" stroke="#FF6200" stroke-width="0.494953" stroke-linejoin="round"/>
<path d="M5.75174 47.0993H0.476562V26.5786H21.9087V30.4176H5.75174V35.3061H20.6382V39.1451H5.75174V47.0993Z" fill="#002770"/>
<path d="M47.3281 47.0993H27.5807V26.5786H32.8558V43.2603H47.3281V47.0993Z" fill="#002770"/>
<path d="M64.4765 47.5965C55.5556 47.5965 50.0319 43.7575 50.0319 36.8528C50.0319 29.9481 55.5556 26.1367 64.4765 26.1367C73.3697 26.1367 78.8934 29.9481 78.8934 36.8528C78.8934 43.7575 73.3697 47.5965 64.4765 47.5965ZM64.4765 43.8403C69.8621 43.8403 73.563 41.2442 73.563 36.8528C73.563 32.4338 69.8621 29.8652 64.4765 29.8652C59.0632 29.8652 55.3623 32.3233 55.3623 36.8528C55.3623 41.3546 59.0632 43.8403 64.4765 43.8403Z" fill="#002770"/>
<path d="M90.2737 47.0993H84.9985V26.5786H99.1669C106.237 26.5786 108.916 29.1195 108.916 32.6271C108.916 35.6099 106.873 37.5156 103.586 38.1232V38.1509C105.906 38.648 106.955 39.4213 107.646 42.4318L107.977 43.8127C108.364 45.4698 108.64 46.2155 109.082 47.0993H103.613C103.337 46.5746 103.116 45.9393 102.702 44.1441L102.343 42.6251C101.984 41.0232 100.824 40.3327 97.1507 40.3327H90.2737V47.0993ZM90.2737 30.4176V36.6595H98.7526C101.791 36.6595 103.613 35.5823 103.613 33.3452C103.613 31.55 102.288 30.4176 99.0564 30.4176H90.2737Z" fill="#002770"/>
<path d="M120.722 47.0993H115.447V26.5786H120.722V47.0993Z" fill="#002770"/>
<path d="M142.197 47.0993H128.526V26.5786H142.197C151.09 26.5786 155.289 31.2186 155.289 36.8528C155.289 42.2384 151.45 47.0993 142.197 47.0993ZM133.801 30.4176V43.2603H141.231C146.506 43.2603 149.958 41.327 149.958 36.8528C149.958 32.5166 146.727 30.4176 141.231 30.4176H133.801Z" fill="#002770"/>
<path d="M186.311 47.0993H180.428L178.246 42.5699H165.818L163.608 47.0993H157.781L168.497 26.5786H175.512L186.311 47.0993ZM171.811 30.2243L167.503 39.0623H176.562L172.281 30.2243L172.06 29.7548H172.005L171.811 30.2243Z" fill="#002770"/>
<path d="M13.3133 65.6336H0V51.0586H13.3133V54.735H4.20656V56.4753H12.9777V60.1299H4.20656V61.9572H13.3133V65.6336Z" fill="#002770"/>
<path d="M19.1183 65.6336H13.614L19.2749 58.4766V58.1938L13.614 51.0586H19.1183L22.7431 55.7792H23.034L26.4574 51.0586H31.9617L26.3231 58.2808V58.5636L31.9617 65.6336H26.4574L22.855 60.8913H22.5641L19.1183 65.6336Z" fill="#002770"/>
<path d="M36.231 65.6336H31.5098L37.9763 51.0586H43.9953L50.4841 65.6336H45.651L44.5099 62.9362H37.3945L36.231 65.6336ZM39.8558 57.2149L38.9832 59.2598H42.966L42.0934 57.2149L41.1088 54.7567H40.818L39.8558 57.2149Z" fill="#002770"/>
<path d="M55.141 65.6336H50.9344V51.0586H56.6401L59.3923 57.1061L60.869 60.8695H61.1599L62.5695 57.1061L65.1875 51.0586H70.8932V65.6336H66.6866V59.6078L66.8432 57.1714H66.5524L65.7021 59.6078L63.4646 64.7635H58.363L56.1255 59.6078L55.2752 57.1714H54.9843L55.141 59.6078V65.6336Z" fill="#002770"/>
<path d="M78.2277 65.6336H75.8112V51.0586H83.1503C86.4842 51.0586 88.7665 52.9077 88.7665 56.149C88.7665 59.3685 86.4842 61.2394 83.1503 61.2394H78.2277V65.6336ZM82.9265 53.1687H78.2277V59.1292H82.9265C85.1864 59.1292 86.35 58.3026 86.35 56.149C86.35 53.9954 85.1864 53.1687 82.9265 53.1687Z" fill="#002770"/>
<path d="M92.6274 65.6336H90.2109V51.0586H97.9975C101.399 51.0586 103.502 52.6249 103.502 55.3441C103.502 57.7588 101.868 59.238 99.0491 59.3903V59.5426C100.213 59.8471 100.75 60.4997 101.287 61.4134L103.793 65.6336H101.018L98.624 61.6092C97.9528 60.4562 97.2591 59.9776 95.3796 59.9776H92.6274V65.6336ZM92.6274 53.1687V58.1721H97.9751C99.9889 58.1721 100.996 57.4977 100.996 55.6704C100.996 53.8866 99.9889 53.1687 97.9751 53.1687H92.6274Z" fill="#002770"/>
<path d="M117.237 65.6336H105.244V51.0586H117.237V53.1687H107.661V57.2584H116.902V59.3468H107.661V63.5235H117.237V65.6336Z" fill="#002770"/>
<path d="M121.536 65.6336H119.12V51.0586H126.459C129.793 51.0586 132.075 52.9077 132.075 56.149C132.075 59.3685 129.793 61.2394 126.459 61.2394H121.536V65.6336ZM126.235 53.1687H121.536V59.1292H126.235C128.495 59.1292 129.658 58.3026 129.658 56.149C129.658 53.9954 128.495 53.1687 126.235 53.1687Z" fill="#002770"/>
<path d="M135.012 65.5997H132.074V62.2852H135.012V65.5997Z" fill="#002770"/>
<path d="M143.787 65.8136C139.294 65.8136 136.314 62.9053 136.314 58.4361C136.314 53.9668 139.294 51.0586 143.787 51.0586C147.869 51.0586 150.72 53.197 150.72 56.6184V56.9178H148.15V56.6184C148.15 54.4373 146.746 53.2611 143.808 53.2611C140.418 53.2611 138.776 54.8649 138.776 58.4361C138.776 62.0072 140.418 63.5896 143.808 63.5896C146.746 63.5896 148.15 62.4349 148.15 60.2323V59.9543H150.72V60.2323C150.72 63.6752 147.891 65.8136 143.787 65.8136Z" fill="#002770"/>
<path d="M159.544 65.8136C155.009 65.8136 152.007 62.9053 152.007 58.4361C152.007 53.9668 155.009 51.0586 159.544 51.0586C164.123 51.0586 167.104 53.9668 167.104 58.4361C167.104 62.9053 164.123 65.8136 159.544 65.8136ZM159.544 63.5896C162.979 63.5896 164.642 62.0072 164.642 58.4361C164.642 54.8649 162.979 53.2611 159.544 53.2611C156.11 53.2611 154.469 54.8649 154.469 58.4361C154.469 62.0072 156.11 63.5896 159.544 63.5896Z" fill="#002770"/>
<path d="M171.16 65.5997H168.827V51.2724H172.002L176.171 59.5694L177.488 62.5418H177.661L178.935 59.5694L183.061 51.2724H186.236V65.5997H183.903V56.8109L183.989 54.7366H183.817L182.931 56.8109L178.935 64.7444H176.128L172.132 56.8109L171.246 54.7366H171.074L171.16 56.8109V65.5997Z" fill="#002770"/>
<path d="M126.515 28.1125C128.998 28.9931 144.728 24.7212 145.894 22.6608C148.846 23.1088 150.578 23.4836 150.147 24.099C149.038 25.7177 145.604 26.9402 144.608 27.0293C142.811 27.1899 139.087 27.4121 137.456 27.5654C129.915 29.4771 126.369 29.8241 125.982 28.8128C125.937 28.6172 125.955 27.9136 126.515 28.1125Z" fill="#FBF8F8"/>
<path d="M127.945 18.5818C127.375 19.3946 126.918 20.3351 126.61 21.4027C126.159 23.0324 126.046 25.0143 126.394 27.3722C126.397 27.3916 126.4 27.411 126.403 27.4304C126.404 27.441 126.406 27.4517 126.407 27.4624C126.439 27.6757 126.475 27.8924 126.515 28.1125C128.998 28.9931 144.728 24.7212 145.894 22.6608C143.386 13.6232 132.317 12.3473 127.945 18.5818Z" fill="#FBF8F8"/>
<path d="M126.515 28.1125C128.998 28.9931 144.728 24.7212 145.894 22.6608M126.515 28.1125C125.955 27.9136 125.937 28.6172 125.982 28.8128C126.369 29.8241 129.915 29.4771 137.456 27.5654C139.087 27.4121 142.811 27.1899 144.608 27.0293C145.604 26.9402 149.038 25.7177 150.147 24.099C150.578 23.4836 148.846 23.1088 145.894 22.6608M126.515 28.1125C126.475 27.8924 126.439 27.6757 126.407 27.4624M126.515 28.1125C125.983 25.4945 126.074 23.2569 126.61 21.4027M145.894 22.6608C143.386 13.6232 132.317 12.3473 127.945 18.5818M126.517 28.1123C126.475 27.8816 126.437 27.6543 126.403 27.4304M142.51 23.8871C140.171 16.4196 131.761 15.0319 127.945 18.5818M126.514 28.1128C126.473 27.8919 126.438 27.6751 126.407 27.4624M136.644 23.0298C133.797 17.9788 124.995 17.3458 126.403 27.4304M127.945 18.5818C127.375 19.3946 126.918 20.3351 126.61 21.4027M127.945 18.5818C127.371 19.367 126.914 20.3049 126.61 21.4027M126.61 21.4027C126.159 23.0324 126.046 25.0143 126.394 27.3722M126.394 27.3722C126.397 27.3916 126.4 27.411 126.403 27.4304M126.394 27.3722C126.399 27.4022 126.403 27.4323 126.407 27.4624M126.403 27.4304C126.404 27.441 126.406 27.4517 126.407 27.4624" stroke="#FF6200" stroke-width="1.25957" stroke-linecap="round" stroke-linejoin="round"/>
</svg>
