<svg width="1920" height="1080" viewBox="0 0 1920 1080" fill="none" xmlns="http://www.w3.org/2000/svg">
<rect width="1920" height="1080" fill="white"/>
<mask id="path-1-outside-1_89_1155" maskUnits="userSpaceOnUse" x="460.779" y="286.508" width="407" height="117" fill="black">
<rect fill="white" x="460.779" y="286.508" width="407" height="117"/>
<path d="M723.952 392.772C722.582 393.653 721.332 394.461 720.107 395.249C718.217 392.619 716.462 390 714.529 387.523C710.776 382.712 705.95 379.352 700.313 377.028C692.593 373.842 684.6 371.748 676.325 370.805C671.559 370.262 666.793 370.298 662.049 371.372C658.423 372.191 655.587 374.239 652.866 376.576C650.696 378.44 648.579 380.375 646.33 382.137C642.82 384.883 638.705 386.392 634.481 387.638C631.065 388.644 627.662 389.69 624.261 390.739C623.653 390.926 623.077 391.225 622.446 391.488C622.705 393.818 622.958 396.111 623.235 398.63C616.014 395.228 609.286 391.265 601.744 389.807C601.553 386.477 601.37 383.294 601.183 380.08C595.426 377.591 591.994 372.8 588.977 367.791C585.689 362.328 581.582 357.865 575.887 354.981C569.426 351.708 562.929 348.509 556.427 345.32C551.598 342.951 546.617 340.952 541.43 339.506C536.189 338.044 530.86 337.021 525.439 336.558C521.955 336.259 518.463 336.011 514.97 335.915C509.071 335.747 503.167 335.62 497.266 335.652C490.202 335.692 483.139 335.915 476.075 336.059C475.669 336.064 475.263 336.059 474.765 336.059C474.61 335.588 474.496 335.151 474.325 334.739C473.928 333.787 473.641 332.749 473.056 331.927C472.064 330.535 471.564 329.085 471.524 327.368C471.49 325.802 471.129 324.246 471.016 322.678C470.946 321.695 470.829 320.604 471.165 319.73C471.609 318.579 471.296 317.728 470.833 316.754C470.032 315.075 469.747 313.265 470.132 311.455C470.331 310.521 470.104 309.905 469.564 309.222C467.374 306.452 465.587 303.451 464.522 300.051C463.703 297.436 463.589 294.794 464.044 292.081C466.918 291.014 469.851 290.547 472.803 290.263C479.234 289.643 485.621 290.197 491.996 291.103C496.439 291.735 500.892 292.285 505.35 292.788C507.144 292.99 508.963 293.005 510.772 293.043C515.854 293.153 520.935 293.298 526.017 293.295C531.978 293.289 537.94 293.147 543.901 293.051C547.172 292.998 550.445 292.795 553.712 292.864C558.903 292.975 564.096 293.198 569.281 293.486C574.402 293.771 579.52 294.155 584.634 294.567C590.499 295.042 596.355 295.626 602.22 296.099C606.344 296.43 610.476 296.691 614.608 296.92C619.557 297.194 624.51 297.4 629.461 297.642C629.571 297.646 629.677 297.716 629.928 297.812C629.996 299.37 630.053 300.991 630.141 302.608C630.379 306.987 630.557 311.387 632.209 315.521C632.942 317.357 633.978 319.074 634.849 320.855C635.181 321.532 635.682 321.731 636.409 321.702C638.918 321.61 641.432 321.517 643.943 321.515C656.233 321.496 668.522 321.483 680.812 321.513C687.655 321.53 694.502 321.487 701.338 321.735C707.585 321.961 713.728 323.092 719.814 324.531C725.891 325.968 731.971 327.417 738.097 328.618C742.975 329.573 747.938 329.737 752.912 329.287C755.466 329.054 758.037 329.032 760.595 328.841C767.176 328.351 773.765 328.045 780.366 328.183C786.91 328.319 793.453 328.444 799.996 328.593C800.506 328.604 801.01 328.775 801.62 328.89C801.52 330.108 801.482 331.263 801.322 332.4C800.506 338.186 803.552 343.07 808.137 345.596C808.243 344.935 808.467 344.358 808.405 343.813C807.759 338.076 806.975 332.35 806.42 326.606C806.088 323.175 806.382 319.734 807.164 316.118C808.101 316.224 809.009 316.291 809.901 316.438C812.227 316.82 813.137 316.236 813.683 313.951C813.723 313.783 813.766 313.611 813.796 313.439C814.595 309.145 816.984 308.969 820.06 309.778C823.23 310.612 825.886 312.45 828.218 314.719C829.849 316.309 831.456 317.941 832.925 319.685C833.637 320.528 834.225 320.625 835.15 320.224C836.598 319.596 838.073 319.036 839.55 318.484C842.214 317.487 844.952 316.792 847.755 317.737C851.526 319.01 851.645 320.059 851.86 323.391C852.047 326.307 851.926 329.242 852.062 332.163C852.547 342.58 853.83 352.871 857.057 362.844C857.27 363.5 857.476 364.207 857.459 364.886C857.178 376.145 859.82 386.793 864.102 397.104C864.302 397.584 864.482 398.072 864.737 398.725C863.349 399.305 862.029 399.859 860.482 400.508C859.517 397.997 858.537 395.633 857.693 393.224C855.778 387.755 854.205 382.183 853.556 376.411C853.195 373.225 853.208 369.999 852.995 366.794C852.927 365.76 852.785 364.703 852.485 363.716C850.583 357.434 849.256 351.039 848.474 344.521C847.685 337.957 847.424 331.363 847.428 324.76C847.43 321.782 845.861 321.51 844.031 322.028C841.903 322.629 839.852 323.495 837.76 324.219C836.071 324.805 834.413 325.467 832.531 325.116C831.52 324.926 830.859 324.431 830.24 323.675C827.797 320.681 825.191 317.843 821.92 315.723C820.908 315.067 819.786 314.577 818.838 314.078C817.92 315.869 817.269 317.614 816.215 319.066C815.054 320.666 813.111 321.022 811.066 321.129C811.066 323.54 810.896 325.876 811.103 328.177C811.458 332.127 812.046 336.057 812.54 339.994C812.714 341.383 812.89 342.775 813.084 344.161C813.294 345.646 812.884 346.966 811.963 348.094C810.971 349.312 809.893 350.456 808.79 351.704C801.429 347.665 796.321 342.229 796.578 333.213C796.208 333.163 795.985 333.112 795.762 333.109C788.987 332.959 782.21 332.693 775.434 332.715C770.889 332.732 766.34 333.088 761.802 333.419C754.919 333.918 748.024 334.224 741.147 333.683C737.514 333.398 733.909 332.549 730.33 331.783C723.593 330.34 716.9 328.684 710.153 327.3C707.481 326.749 704.713 326.519 701.979 326.443C695.145 326.252 688.305 326.203 681.467 326.156C670.35 326.078 659.233 326.033 648.119 326.006C644.551 325.999 640.984 326.082 637.417 326.158C636.312 326.182 635.208 326.297 634.109 326.42C633.304 326.511 632.802 326.156 632.356 325.532C629.152 321.033 626.946 316.117 626.242 310.604C625.968 308.468 625.904 306.303 625.722 304.152C625.671 303.525 625.551 302.903 625.454 302.231C623.8 302.095 622.244 301.948 620.686 301.844C615.391 301.482 610.096 301.146 604.805 300.783C600.909 300.516 597.016 300.24 593.124 299.939C589.175 299.635 585.23 299.272 581.28 298.981C577.443 298.697 573.594 298.544 569.763 298.207C559.144 297.273 548.502 297.606 537.866 297.58C530.09 297.563 522.312 297.727 514.535 297.727C507.641 297.727 500.801 296.988 493.975 296.046C490.055 295.505 486.093 295.248 482.167 294.734C477.828 294.164 473.571 294.728 469.313 295.433C469.088 295.471 468.873 295.56 468.571 295.649C468.28 297.169 468.788 298.529 469.343 299.864C470.705 303.137 472.757 305.96 475.097 308.592C475.361 308.889 475.595 309.216 475.818 309.498C473.977 313.203 473.973 314.008 477.418 318.221C477.208 318.509 477.016 318.86 476.742 319.127C475.516 320.316 475.365 321.746 475.696 323.327C475.85 324.07 476.081 324.868 475.956 325.583C475.558 327.846 476.978 329.331 478.081 330.949C478.258 331.208 478.77 331.363 479.127 331.361C483.51 331.318 487.891 331.235 492.274 331.167C492.917 331.155 493.561 331.159 494.205 331.159C500.994 331.157 507.786 330.996 514.569 331.195C525.866 331.522 537.054 332.797 547.752 336.694C552.68 338.49 557.509 340.608 562.251 342.856C567.633 345.405 572.841 348.321 578.172 350.978C584.562 354.166 589.177 359.145 592.897 365.117C594.223 367.24 595.73 369.258 597.231 371.266C599.187 373.883 601.795 375.57 604.966 376.379C605.243 376.449 605.511 376.565 605.774 376.678C605.874 376.722 605.947 376.826 606.167 377.022C605.032 380.004 606.208 383.018 606.297 385.963C610.038 387.473 613.652 388.933 617.389 390.442C617.168 388.895 618.235 388.408 619.364 387.838C623.311 385.851 627.543 384.722 631.773 383.591C635.974 382.468 640.087 381.135 643.564 378.421C645.679 376.774 647.641 374.933 649.665 373.168C652.894 370.349 656.354 367.853 660.565 366.805C662.861 366.236 665.272 366.075 667.642 365.86C673.268 365.351 678.844 365.99 684.296 367.244C692.608 369.156 700.793 371.525 708.272 375.833C712.55 378.297 715.96 381.71 718.923 385.586C720.653 387.854 722.203 390.261 723.952 392.772Z"/>
</mask>
<path d="M723.952 392.772C722.582 393.653 721.332 394.461 720.107 395.249C718.217 392.619 716.462 390 714.529 387.523C710.776 382.712 705.95 379.352 700.313 377.028C692.593 373.842 684.6 371.748 676.325 370.805C671.559 370.262 666.793 370.298 662.049 371.372C658.423 372.191 655.587 374.239 652.866 376.576C650.696 378.44 648.579 380.375 646.33 382.137C642.82 384.883 638.705 386.392 634.481 387.638C631.065 388.644 627.662 389.69 624.261 390.739C623.653 390.926 623.077 391.225 622.446 391.488C622.705 393.818 622.958 396.111 623.235 398.63C616.014 395.228 609.286 391.265 601.744 389.807C601.553 386.477 601.37 383.294 601.183 380.08C595.426 377.591 591.994 372.8 588.977 367.791C585.689 362.328 581.582 357.865 575.887 354.981C569.426 351.708 562.929 348.509 556.427 345.32C551.598 342.951 546.617 340.952 541.43 339.506C536.189 338.044 530.86 337.021 525.439 336.558C521.955 336.259 518.463 336.011 514.97 335.915C509.071 335.747 503.167 335.62 497.266 335.652C490.202 335.692 483.139 335.915 476.075 336.059C475.669 336.064 475.263 336.059 474.765 336.059C474.61 335.588 474.496 335.151 474.325 334.739C473.928 333.787 473.641 332.749 473.056 331.927C472.064 330.535 471.564 329.085 471.524 327.368C471.49 325.802 471.129 324.246 471.016 322.678C470.946 321.695 470.829 320.604 471.165 319.73C471.609 318.579 471.296 317.728 470.833 316.754C470.032 315.075 469.747 313.265 470.132 311.455C470.331 310.521 470.104 309.905 469.564 309.222C467.374 306.452 465.587 303.451 464.522 300.051C463.703 297.436 463.589 294.794 464.044 292.081C466.918 291.014 469.851 290.547 472.803 290.263C479.234 289.643 485.621 290.197 491.996 291.103C496.439 291.735 500.892 292.285 505.35 292.788C507.144 292.99 508.963 293.005 510.772 293.043C515.854 293.153 520.935 293.298 526.017 293.295C531.978 293.289 537.94 293.147 543.901 293.051C547.172 292.998 550.445 292.795 553.712 292.864C558.903 292.975 564.096 293.198 569.281 293.486C574.402 293.771 579.52 294.155 584.634 294.567C590.499 295.042 596.355 295.626 602.22 296.099C606.344 296.43 610.476 296.691 614.608 296.92C619.557 297.194 624.51 297.4 629.461 297.642C629.571 297.646 629.677 297.716 629.928 297.812C629.996 299.37 630.053 300.991 630.141 302.608C630.379 306.987 630.557 311.387 632.209 315.521C632.942 317.357 633.978 319.074 634.849 320.855C635.181 321.532 635.682 321.731 636.409 321.702C638.918 321.61 641.432 321.517 643.943 321.515C656.233 321.496 668.522 321.483 680.812 321.513C687.655 321.53 694.502 321.487 701.338 321.735C707.585 321.961 713.728 323.092 719.814 324.531C725.891 325.968 731.971 327.417 738.097 328.618C742.975 329.573 747.938 329.737 752.912 329.287C755.466 329.054 758.037 329.032 760.595 328.841C767.176 328.351 773.765 328.045 780.366 328.183C786.91 328.319 793.453 328.444 799.996 328.593C800.506 328.604 801.01 328.775 801.62 328.89C801.52 330.108 801.482 331.263 801.322 332.4C800.506 338.186 803.552 343.07 808.137 345.596C808.243 344.935 808.467 344.358 808.405 343.813C807.759 338.076 806.975 332.35 806.42 326.606C806.088 323.175 806.382 319.734 807.164 316.118C808.101 316.224 809.009 316.291 809.901 316.438C812.227 316.82 813.137 316.236 813.683 313.951C813.723 313.783 813.766 313.611 813.796 313.439C814.595 309.145 816.984 308.969 820.06 309.778C823.23 310.612 825.886 312.45 828.218 314.719C829.849 316.309 831.456 317.941 832.925 319.685C833.637 320.528 834.225 320.625 835.15 320.224C836.598 319.596 838.073 319.036 839.55 318.484C842.214 317.487 844.952 316.792 847.755 317.737C851.526 319.01 851.645 320.059 851.86 323.391C852.047 326.307 851.926 329.242 852.062 332.163C852.547 342.58 853.83 352.871 857.057 362.844C857.27 363.5 857.476 364.207 857.459 364.886C857.178 376.145 859.82 386.793 864.102 397.104C864.302 397.584 864.482 398.072 864.737 398.725C863.349 399.305 862.029 399.859 860.482 400.508C859.517 397.997 858.537 395.633 857.693 393.224C855.778 387.755 854.205 382.183 853.556 376.411C853.195 373.225 853.208 369.999 852.995 366.794C852.927 365.76 852.785 364.703 852.485 363.716C850.583 357.434 849.256 351.039 848.474 344.521C847.685 337.957 847.424 331.363 847.428 324.76C847.43 321.782 845.861 321.51 844.031 322.028C841.903 322.629 839.852 323.495 837.76 324.219C836.071 324.805 834.413 325.467 832.531 325.116C831.52 324.926 830.859 324.431 830.24 323.675C827.797 320.681 825.191 317.843 821.92 315.723C820.908 315.067 819.786 314.577 818.838 314.078C817.92 315.869 817.269 317.614 816.215 319.066C815.054 320.666 813.111 321.022 811.066 321.129C811.066 323.54 810.896 325.876 811.103 328.177C811.458 332.127 812.046 336.057 812.54 339.994C812.714 341.383 812.89 342.775 813.084 344.161C813.294 345.646 812.884 346.966 811.963 348.094C810.971 349.312 809.893 350.456 808.79 351.704C801.429 347.665 796.321 342.229 796.578 333.213C796.208 333.163 795.985 333.112 795.762 333.109C788.987 332.959 782.21 332.693 775.434 332.715C770.889 332.732 766.34 333.088 761.802 333.419C754.919 333.918 748.024 334.224 741.147 333.683C737.514 333.398 733.909 332.549 730.33 331.783C723.593 330.34 716.9 328.684 710.153 327.3C707.481 326.749 704.713 326.519 701.979 326.443C695.145 326.252 688.305 326.203 681.467 326.156C670.35 326.078 659.233 326.033 648.119 326.006C644.551 325.999 640.984 326.082 637.417 326.158C636.312 326.182 635.208 326.297 634.109 326.42C633.304 326.511 632.802 326.156 632.356 325.532C629.152 321.033 626.946 316.117 626.242 310.604C625.968 308.468 625.904 306.303 625.722 304.152C625.671 303.525 625.551 302.903 625.454 302.231C623.8 302.095 622.244 301.948 620.686 301.844C615.391 301.482 610.096 301.146 604.805 300.783C600.909 300.516 597.016 300.24 593.124 299.939C589.175 299.635 585.23 299.272 581.28 298.981C577.443 298.697 573.594 298.544 569.763 298.207C559.144 297.273 548.502 297.606 537.866 297.58C530.09 297.563 522.312 297.727 514.535 297.727C507.641 297.727 500.801 296.988 493.975 296.046C490.055 295.505 486.093 295.248 482.167 294.734C477.828 294.164 473.571 294.728 469.313 295.433C469.088 295.471 468.873 295.56 468.571 295.649C468.28 297.169 468.788 298.529 469.343 299.864C470.705 303.137 472.757 305.96 475.097 308.592C475.361 308.889 475.595 309.216 475.818 309.498C473.977 313.203 473.973 314.008 477.418 318.221C477.208 318.509 477.016 318.86 476.742 319.127C475.516 320.316 475.365 321.746 475.696 323.327C475.85 324.07 476.081 324.868 475.956 325.583C475.558 327.846 476.978 329.331 478.081 330.949C478.258 331.208 478.77 331.363 479.127 331.361C483.51 331.318 487.891 331.235 492.274 331.167C492.917 331.155 493.561 331.159 494.205 331.159C500.994 331.157 507.786 330.996 514.569 331.195C525.866 331.522 537.054 332.797 547.752 336.694C552.68 338.49 557.509 340.608 562.251 342.856C567.633 345.405 572.841 348.321 578.172 350.978C584.562 354.166 589.177 359.145 592.897 365.117C594.223 367.24 595.73 369.258 597.231 371.266C599.187 373.883 601.795 375.57 604.966 376.379C605.243 376.449 605.511 376.565 605.774 376.678C605.874 376.722 605.947 376.826 606.167 377.022C605.032 380.004 606.208 383.018 606.297 385.963C610.038 387.473 613.652 388.933 617.389 390.442C617.168 388.895 618.235 388.408 619.364 387.838C623.311 385.851 627.543 384.722 631.773 383.591C635.974 382.468 640.087 381.135 643.564 378.421C645.679 376.774 647.641 374.933 649.665 373.168C652.894 370.349 656.354 367.853 660.565 366.805C662.861 366.236 665.272 366.075 667.642 365.86C673.268 365.351 678.844 365.99 684.296 367.244C692.608 369.156 700.793 371.525 708.272 375.833C712.55 378.297 715.96 381.71 718.923 385.586C720.653 387.854 722.203 390.261 723.952 392.772Z" fill="#FF6200"/>
<path d="M723.952 392.772C722.582 393.653 721.332 394.461 720.107 395.249C718.217 392.619 716.462 390 714.529 387.523C710.776 382.712 705.95 379.352 700.313 377.028C692.593 373.842 684.6 371.748 676.325 370.805C671.559 370.262 666.793 370.298 662.049 371.372C658.423 372.191 655.587 374.239 652.866 376.576C650.696 378.44 648.579 380.375 646.33 382.137C642.82 384.883 638.705 386.392 634.481 387.638C631.065 388.644 627.662 389.69 624.261 390.739C623.653 390.926 623.077 391.225 622.446 391.488C622.705 393.818 622.958 396.111 623.235 398.63C616.014 395.228 609.286 391.265 601.744 389.807C601.553 386.477 601.37 383.294 601.183 380.08C595.426 377.591 591.994 372.8 588.977 367.791C585.689 362.328 581.582 357.865 575.887 354.981C569.426 351.708 562.929 348.509 556.427 345.32C551.598 342.951 546.617 340.952 541.43 339.506C536.189 338.044 530.86 337.021 525.439 336.558C521.955 336.259 518.463 336.011 514.97 335.915C509.071 335.747 503.167 335.62 497.266 335.652C490.202 335.692 483.139 335.915 476.075 336.059C475.669 336.064 475.263 336.059 474.765 336.059C474.61 335.588 474.496 335.151 474.325 334.739C473.928 333.787 473.641 332.749 473.056 331.927C472.064 330.535 471.564 329.085 471.524 327.368C471.49 325.802 471.129 324.246 471.016 322.678C470.946 321.695 470.829 320.604 471.165 319.73C471.609 318.579 471.296 317.728 470.833 316.754C470.032 315.075 469.747 313.265 470.132 311.455C470.331 310.521 470.104 309.905 469.564 309.222C467.374 306.452 465.587 303.451 464.522 300.051C463.703 297.436 463.589 294.794 464.044 292.081C466.918 291.014 469.851 290.547 472.803 290.263C479.234 289.643 485.621 290.197 491.996 291.103C496.439 291.735 500.892 292.285 505.35 292.788C507.144 292.99 508.963 293.005 510.772 293.043C515.854 293.153 520.935 293.298 526.017 293.295C531.978 293.289 537.94 293.147 543.901 293.051C547.172 292.998 550.445 292.795 553.712 292.864C558.903 292.975 564.096 293.198 569.281 293.486C574.402 293.771 579.52 294.155 584.634 294.567C590.499 295.042 596.355 295.626 602.22 296.099C606.344 296.43 610.476 296.691 614.608 296.92C619.557 297.194 624.51 297.4 629.461 297.642C629.571 297.646 629.677 297.716 629.928 297.812C629.996 299.37 630.053 300.991 630.141 302.608C630.379 306.987 630.557 311.387 632.209 315.521C632.942 317.357 633.978 319.074 634.849 320.855C635.181 321.532 635.682 321.731 636.409 321.702C638.918 321.61 641.432 321.517 643.943 321.515C656.233 321.496 668.522 321.483 680.812 321.513C687.655 321.53 694.502 321.487 701.338 321.735C707.585 321.961 713.728 323.092 719.814 324.531C725.891 325.968 731.971 327.417 738.097 328.618C742.975 329.573 747.938 329.737 752.912 329.287C755.466 329.054 758.037 329.032 760.595 328.841C767.176 328.351 773.765 328.045 780.366 328.183C786.91 328.319 793.453 328.444 799.996 328.593C800.506 328.604 801.01 328.775 801.62 328.89C801.52 330.108 801.482 331.263 801.322 332.4C800.506 338.186 803.552 343.07 808.137 345.596C808.243 344.935 808.467 344.358 808.405 343.813C807.759 338.076 806.975 332.35 806.42 326.606C806.088 323.175 806.382 319.734 807.164 316.118C808.101 316.224 809.009 316.291 809.901 316.438C812.227 316.82 813.137 316.236 813.683 313.951C813.723 313.783 813.766 313.611 813.796 313.439C814.595 309.145 816.984 308.969 820.06 309.778C823.23 310.612 825.886 312.45 828.218 314.719C829.849 316.309 831.456 317.941 832.925 319.685C833.637 320.528 834.225 320.625 835.15 320.224C836.598 319.596 838.073 319.036 839.55 318.484C842.214 317.487 844.952 316.792 847.755 317.737C851.526 319.01 851.645 320.059 851.86 323.391C852.047 326.307 851.926 329.242 852.062 332.163C852.547 342.58 853.83 352.871 857.057 362.844C857.27 363.5 857.476 364.207 857.459 364.886C857.178 376.145 859.82 386.793 864.102 397.104C864.302 397.584 864.482 398.072 864.737 398.725C863.349 399.305 862.029 399.859 860.482 400.508C859.517 397.997 858.537 395.633 857.693 393.224C855.778 387.755 854.205 382.183 853.556 376.411C853.195 373.225 853.208 369.999 852.995 366.794C852.927 365.76 852.785 364.703 852.485 363.716C850.583 357.434 849.256 351.039 848.474 344.521C847.685 337.957 847.424 331.363 847.428 324.76C847.43 321.782 845.861 321.51 844.031 322.028C841.903 322.629 839.852 323.495 837.76 324.219C836.071 324.805 834.413 325.467 832.531 325.116C831.52 324.926 830.859 324.431 830.24 323.675C827.797 320.681 825.191 317.843 821.92 315.723C820.908 315.067 819.786 314.577 818.838 314.078C817.92 315.869 817.269 317.614 816.215 319.066C815.054 320.666 813.111 321.022 811.066 321.129C811.066 323.54 810.896 325.876 811.103 328.177C811.458 332.127 812.046 336.057 812.54 339.994C812.714 341.383 812.89 342.775 813.084 344.161C813.294 345.646 812.884 346.966 811.963 348.094C810.971 349.312 809.893 350.456 808.79 351.704C801.429 347.665 796.321 342.229 796.578 333.213C796.208 333.163 795.985 333.112 795.762 333.109C788.987 332.959 782.21 332.693 775.434 332.715C770.889 332.732 766.34 333.088 761.802 333.419C754.919 333.918 748.024 334.224 741.147 333.683C737.514 333.398 733.909 332.549 730.33 331.783C723.593 330.34 716.9 328.684 710.153 327.3C707.481 326.749 704.713 326.519 701.979 326.443C695.145 326.252 688.305 326.203 681.467 326.156C670.35 326.078 659.233 326.033 648.119 326.006C644.551 325.999 640.984 326.082 637.417 326.158C636.312 326.182 635.208 326.297 634.109 326.42C633.304 326.511 632.802 326.156 632.356 325.532C629.152 321.033 626.946 316.117 626.242 310.604C625.968 308.468 625.904 306.303 625.722 304.152C625.671 303.525 625.551 302.903 625.454 302.231C623.8 302.095 622.244 301.948 620.686 301.844C615.391 301.482 610.096 301.146 604.805 300.783C600.909 300.516 597.016 300.24 593.124 299.939C589.175 299.635 585.23 299.272 581.28 298.981C577.443 298.697 573.594 298.544 569.763 298.207C559.144 297.273 548.502 297.606 537.866 297.58C530.09 297.563 522.312 297.727 514.535 297.727C507.641 297.727 500.801 296.988 493.975 296.046C490.055 295.505 486.093 295.248 482.167 294.734C477.828 294.164 473.571 294.728 469.313 295.433C469.088 295.471 468.873 295.56 468.571 295.649C468.28 297.169 468.788 298.529 469.343 299.864C470.705 303.137 472.757 305.96 475.097 308.592C475.361 308.889 475.595 309.216 475.818 309.498C473.977 313.203 473.973 314.008 477.418 318.221C477.208 318.509 477.016 318.86 476.742 319.127C475.516 320.316 475.365 321.746 475.696 323.327C475.85 324.07 476.081 324.868 475.956 325.583C475.558 327.846 476.978 329.331 478.081 330.949C478.258 331.208 478.77 331.363 479.127 331.361C483.51 331.318 487.891 331.235 492.274 331.167C492.917 331.155 493.561 331.159 494.205 331.159C500.994 331.157 507.786 330.996 514.569 331.195C525.866 331.522 537.054 332.797 547.752 336.694C552.68 338.49 557.509 340.608 562.251 342.856C567.633 345.405 572.841 348.321 578.172 350.978C584.562 354.166 589.177 359.145 592.897 365.117C594.223 367.24 595.73 369.258 597.231 371.266C599.187 373.883 601.795 375.57 604.966 376.379C605.243 376.449 605.511 376.565 605.774 376.678C605.874 376.722 605.947 376.826 606.167 377.022C605.032 380.004 606.208 383.018 606.297 385.963C610.038 387.473 613.652 388.933 617.389 390.442C617.168 388.895 618.235 388.408 619.364 387.838C623.311 385.851 627.543 384.722 631.773 383.591C635.974 382.468 640.087 381.135 643.564 378.421C645.679 376.774 647.641 374.933 649.665 373.168C652.894 370.349 656.354 367.853 660.565 366.805C662.861 366.236 665.272 366.075 667.642 365.86C673.268 365.351 678.844 365.99 684.296 367.244C692.608 369.156 700.793 371.525 708.272 375.833C712.55 378.297 715.96 381.71 718.923 385.586C720.653 387.854 722.203 390.261 723.952 392.772Z" stroke="#FF6200" stroke-width="5.38002" stroke-linejoin="round" mask="url(#path-1-outside-1_89_1155)"/>
<path d="M937.574 778.251C937.74 778.222 937.9 778.162 938.044 778.075C938.804 777.612 939.513 777.282 940.426 776.778C941.264 776.314 942.169 775.753 942.923 774.977C947.14 770.641 951.207 766.163 955.186 761.626L955.927 760.782C957.696 758.744 959.651 756.218 959.653 752.828L959.656 749.794C959.649 746.739 959.588 743.629 959.232 740.555L959.108 739.412C958.522 733.712 958.547 728.24 960.213 722.807C963.429 712.326 963.627 701.685 962.11 691.038L961.958 690.007C960.772 682.259 958.813 674.715 956.609 667.274L955.651 664.091C955.011 661.994 954.33 659.899 953.652 657.76C953.429 657.056 952.68 656.663 951.974 656.881C950.592 657.307 949.425 657.669 948.296 658.018C947.804 658.169 947.443 658.588 947.364 659.096C947.355 659.155 947.359 659.116 947.328 659.268C947.317 659.32 947.295 659.426 947.289 659.553C947.282 659.684 947.289 659.866 947.348 660.07L947.347 660.07C949.164 666.344 951.043 672.546 952.772 678.81C954.401 684.715 955.397 690.763 956.002 696.897L956.071 697.661C956.749 705.55 955.901 713.303 953.703 720.946C952.116 726.464 951.419 732.096 952.227 737.94C952.615 740.744 952.824 743.581 952.999 746.452L953.17 749.333C953.301 751.573 952.988 753.516 951.724 755.11L951.458 755.425C946.841 760.56 942.281 765.703 937.616 770.764C937.488 770.903 937.257 771.063 936.888 771.225C936.527 771.384 936.111 771.513 935.674 771.63L935.674 771.631C932.458 772.491 929.2 772.096 925.736 771.363L925.736 771.363C919.585 770.062 915.048 767.087 912.82 761.237L912.82 761.236C911.821 758.615 910.871 755.993 910.07 753.341C907.54 744.973 902.688 738.414 894.557 734.479C892.473 733.471 890.457 732.315 888.377 731.143C885.086 729.287 882.582 726.809 881.168 723.22C881.027 722.861 880.737 722.58 880.374 722.449C880.011 722.318 879.609 722.348 879.271 722.534C877.836 723.32 876.622 723.367 875.509 723.059C874.332 722.734 873.183 721.986 871.982 721.016C869.273 718.831 866.644 716.621 864.6 714.051C859.453 707.579 854.668 701.429 854.909 692.932C854.919 692.573 854.785 692.224 854.537 691.965C854.289 691.705 853.947 691.555 853.588 691.549C852.529 691.53 851.45 691.511 850.47 691.493C849.929 688.367 849.399 685.293 848.866 682.22C848.748 681.538 848.641 680.915 848.503 680.439C848.372 679.987 848.126 679.328 847.488 678.921C846.849 678.513 846.148 678.568 845.688 678.639C845.204 678.714 844.6 678.878 843.947 679.052L843.947 679.053C843.335 679.215 842.58 679.524 842.127 680.246C841.653 681.003 841.738 681.838 841.932 682.503L841.933 682.506C842.191 683.383 842.425 684.18 842.569 684.966L842.625 685.304C842.856 686.865 843.061 688.433 843.269 690.014C843.424 691.197 843.582 692.387 843.751 693.578L843.925 694.769C844.019 695.388 844.106 695.963 844.235 696.421C844.369 696.895 844.6 697.45 845.118 697.864C845.617 698.264 846.199 698.383 846.668 698.438C847.113 698.49 847.668 698.502 848.274 698.518C848.278 698.52 848.284 698.521 848.288 698.524C848.307 698.535 848.328 698.547 848.349 698.562C848.371 698.577 848.39 698.593 848.407 698.609C848.415 698.616 848.421 698.624 848.428 698.63C848.632 699.145 848.792 699.693 848.968 700.315C849.145 700.943 849.341 701.655 849.613 702.347L849.613 702.349C852.991 710.952 858.308 718.209 865.097 724.361C867.471 726.512 870.179 728.438 873.478 729.436L873.633 729.494C873.836 729.576 874.176 729.735 874.642 729.973C875.225 730.271 875.92 730.651 876.61 731.047C877.301 731.444 877.975 731.85 878.519 732.2C879.105 732.576 879.43 732.819 879.515 732.902L879.515 732.903C882.477 735.792 886.007 737.755 889.526 739.46C895.26 742.237 899.911 745.773 902.204 751.603C903.48 754.85 904.587 758.181 905.679 761.543L905.967 762.389C907.457 766.569 909.685 769.994 912.674 772.601C915.864 775.382 919.854 777.171 924.583 777.994C927.667 778.531 930.939 778.594 933.865 778.848L934.038 778.851C934.096 778.849 934.154 778.842 934.211 778.833L937.574 778.251Z" fill="#FF6200" stroke="#FF6200" stroke-width="2.69001" stroke-linejoin="round"/>
<path d="M485.269 543.287H456.599V431.759H573.08V452.624H485.269V479.192H566.175V500.057H485.269V543.287Z" fill="#002770"/>
<path d="M711.231 543.287H603.906V431.759H632.576V522.422H711.231V543.287Z" fill="#002770"/>
<path d="M804.431 545.989C755.947 545.989 725.926 525.124 725.926 487.598C725.926 450.072 755.947 429.357 804.431 429.357C852.764 429.357 882.785 450.072 882.785 487.598C882.785 525.124 852.764 545.989 804.431 545.989ZM804.431 525.574C833.701 525.574 853.815 511.465 853.815 487.598C853.815 463.581 833.701 449.622 804.431 449.622C775.01 449.622 754.896 462.981 754.896 487.598C754.896 512.065 775.01 525.574 804.431 525.574Z" fill="#002770"/>
<path d="M944.635 543.287H915.965V431.759H992.969C1031.4 431.759 1045.96 445.569 1045.96 464.632C1045.96 480.843 1034.85 491.2 1016.99 494.503V494.653C1029.59 497.355 1035.3 501.558 1039.05 517.919L1040.85 525.424C1042.95 534.431 1044.45 538.483 1046.86 543.287H1017.14C1015.63 540.435 1014.43 536.982 1012.18 527.226L1010.23 518.97C1008.28 510.264 1001.98 506.511 982.011 506.511H944.635V543.287ZM944.635 452.624V486.547H990.717C1007.23 486.547 1017.14 480.693 1017.14 468.535C1017.14 458.778 1009.93 452.624 992.369 452.624H944.635Z" fill="#002770"/>
<path d="M1110.12 543.287H1081.45V431.759H1110.12V543.287Z" fill="#002770"/>
<path d="M1226.83 543.287H1152.53V431.759H1226.83C1275.17 431.759 1297.98 456.977 1297.98 487.598C1297.98 516.868 1277.12 543.287 1226.83 543.287ZM1181.2 452.624V522.422H1221.58C1250.25 522.422 1269.01 511.915 1269.01 487.598C1269.01 464.032 1251.45 452.624 1221.58 452.624H1181.2Z" fill="#002770"/>
<path d="M1466.59 543.287H1434.62L1422.76 518.67H1355.21L1343.2 543.287H1311.53L1369.77 431.759H1407.9L1466.59 543.287ZM1387.78 451.573L1364.37 499.606H1413.6L1390.33 451.573L1389.13 449.021H1388.83L1387.78 451.573Z" fill="#002770"/>
<path d="M526.356 644.015H454V564.802H526.356V584.782H476.862V594.241H524.532V614.103H476.862V624.035H526.356V644.015Z" fill="#002770"/>
<path d="M557.906 644.015H527.99L558.757 605.118V603.581L527.99 564.802H557.906L577.606 590.457H579.187L597.793 564.802H627.708L597.063 604.054V605.591L627.708 644.015H597.793L578.214 618.241H576.633L557.906 644.015Z" fill="#002770"/>
<path d="M650.911 644.015H625.252L660.397 564.802H693.109L728.375 644.015H702.108L695.906 629.355H657.235L650.911 644.015ZM670.612 598.261L665.869 609.374H687.515L682.772 598.261L677.422 584.901H675.841L670.612 598.261Z" fill="#002770"/>
<path d="M753.685 644.015H730.823V564.802H761.832L776.79 597.669L784.816 618.123H786.397L794.058 597.669L808.286 564.802H839.296V644.015H816.434V611.266L817.285 598.024H815.704L811.083 611.266L798.923 639.286H771.196L759.035 611.266L754.414 598.024H752.833L753.685 611.266V644.015Z" fill="#002770"/>
<path d="M879.159 644.015H866.025V564.802H905.912C924.032 564.802 936.435 574.851 936.435 592.467C936.435 609.965 924.032 620.133 905.912 620.133H879.159V644.015ZM904.696 576.27H879.159V608.665H904.696C916.978 608.665 923.302 604.172 923.302 592.467C923.302 580.763 916.978 576.27 904.696 576.27Z" fill="#002770"/>
<path d="M957.419 644.015H944.286V564.802H986.605C1005.09 564.802 1016.52 573.314 1016.52 588.093C1016.52 601.216 1007.64 609.256 992.321 610.084V610.911C998.644 612.566 1001.56 616.113 1004.48 621.079L1018.1 644.015H1003.02L990.01 622.143C986.362 615.877 982.592 613.276 972.377 613.276H957.419V644.015ZM957.419 576.27V603.463H986.483C997.428 603.463 1002.9 599.798 1002.9 589.866C1002.9 580.172 997.428 576.27 986.483 576.27H957.419Z" fill="#002770"/>
<path d="M1091.17 644.015H1025.99V564.802H1091.17V576.27H1039.12V598.497H1089.35V609.847H1039.12V632.547H1091.17V644.015Z" fill="#002770"/>
<path d="M1114.53 644.015H1101.4V564.802H1141.29C1159.41 564.802 1171.81 574.851 1171.81 592.467C1171.81 609.965 1159.41 620.133 1141.29 620.133H1114.53V644.015ZM1140.07 576.27H1114.53V608.665H1140.07C1152.35 608.665 1158.68 604.172 1158.68 592.467C1158.68 580.763 1152.35 576.27 1140.07 576.27Z" fill="#002770"/>
<path d="M1187.78 643.831H1171.81V625.817H1187.78V643.831Z" fill="#002770"/>
<path d="M1235.47 644.993C1211.05 644.993 1194.85 629.187 1194.85 604.898C1194.85 580.608 1211.05 564.802 1235.47 564.802C1257.65 564.802 1273.15 576.424 1273.15 595.019V596.646H1259.18V595.019C1259.18 583.164 1251.55 576.772 1235.59 576.772C1217.16 576.772 1208.24 585.489 1208.24 604.898C1208.24 624.306 1217.16 632.906 1235.59 632.906C1251.55 632.906 1259.18 626.631 1259.18 614.66V613.149H1273.15V614.66C1273.15 633.371 1257.77 644.993 1235.47 644.993Z" fill="#002770"/>
<path d="M1321.11 644.993C1296.46 644.993 1280.14 629.187 1280.14 604.898C1280.14 580.608 1296.46 564.802 1321.11 564.802C1345.99 564.802 1362.19 580.608 1362.19 604.898C1362.19 629.187 1345.99 644.993 1321.11 644.993ZM1321.11 632.906C1339.77 632.906 1348.81 624.306 1348.81 604.898C1348.81 585.489 1339.77 576.772 1321.11 576.772C1302.44 576.772 1293.52 585.489 1293.52 604.898C1293.52 624.306 1302.44 632.906 1321.11 632.906Z" fill="#002770"/>
<path d="M1384.24 643.831H1371.56V565.964H1388.82L1411.47 611.057L1418.63 627.212H1419.57L1426.5 611.057L1448.92 565.964H1466.17V643.831H1453.5V596.065L1453.96 584.792H1453.03L1448.21 596.065L1426.5 639.182H1411.24L1389.52 596.065L1384.71 584.792H1383.77L1384.24 596.065V643.831Z" fill="#002770"/>
<path d="M1133.99 444.465C1149.77 450.061 1249.73 422.914 1257.14 409.821C1275.9 412.668 1286.9 415.05 1284.17 418.96C1277.11 429.247 1255.3 437.015 1248.97 437.581C1237.55 438.602 1213.88 440.014 1203.52 440.988C1155.6 453.136 1133.06 455.342 1130.6 448.915C1130.32 447.672 1130.43 443.201 1133.99 444.465Z" fill="white"/>
<path d="M1143.08 383.901C1139.45 389.066 1136.55 395.042 1134.59 401.827C1131.73 412.182 1131.01 424.777 1133.22 439.761C1133.24 439.884 1133.26 440.007 1133.28 440.13C1133.29 440.198 1133.3 440.266 1133.31 440.334C1133.51 441.689 1133.74 443.066 1133.99 444.465C1149.77 450.061 1249.73 422.914 1257.14 409.821C1241.2 352.39 1170.86 344.282 1143.08 383.901Z" fill="white"/>
<path d="M1133.99 444.465C1149.77 450.061 1249.73 422.914 1257.14 409.821M1133.99 444.465C1130.43 443.201 1130.32 447.672 1130.6 448.915C1133.06 455.342 1155.6 453.136 1203.52 440.988C1213.88 440.014 1237.55 438.602 1248.97 437.581C1255.3 437.015 1277.11 429.247 1284.17 418.96C1286.9 415.05 1275.9 412.668 1257.14 409.821M1133.99 444.465C1133.74 443.066 1133.51 441.689 1133.31 440.334M1133.99 444.465C1130.61 427.828 1131.19 413.609 1134.59 401.827M1230.49 422.093C1228.95 412.011 1226.15 404.593 1220.71 397.512C1191.37 359.371 1122.22 363.204 1133.22 439.761M1257.14 409.821C1241.2 352.39 1170.86 344.282 1143.08 383.901M1134 444.464C1133.73 442.998 1133.49 441.553 1133.28 440.13M1232.45 391.989C1209.42 361.896 1164.95 353.945 1143.08 383.901M1133.98 444.467C1133.72 443.063 1133.5 441.686 1133.31 440.334M1209.88 404.852C1184.32 372.945 1124.33 376.046 1133.28 440.13M1143.08 383.901C1139.45 389.066 1136.55 395.042 1134.59 401.827M1143.08 383.901C1139.43 388.89 1136.52 394.85 1134.59 401.827M1134.59 401.827C1131.73 412.182 1131.01 424.777 1133.22 439.761M1133.22 439.761C1133.24 439.884 1133.26 440.007 1133.28 440.13M1133.22 439.761C1133.25 439.951 1133.28 440.142 1133.31 440.334M1133.28 440.13C1133.29 440.198 1133.3 440.266 1133.31 440.334" stroke="#FF6200" stroke-width="7.82356" stroke-linecap="round" stroke-linejoin="round"/>
</svg>
